<svg version="1.2" xmlns="http://www.w3.org/2000/svg" viewBox="0 0 4174 699" width="4174" height="699">
	<title>LogoHeader</title>
	<style>
		.s0 { fill: #c99620 } 
		.s1 { fill: #5e4134 } 
		.s2 { fill: #ffffff } 
		.s3 { fill: #c35f3e } 
	</style>
	<g id="Background">
		<path id="Path 0" class="s0" d="m-749 0.5c4.1 0.2 9.2 0.7 11.3 1 2 0.3 7 1.5 10.9 2.8 4 1.3 10.4 4.2 14.3 6.4 3.9 2.2 10.1 7.1 14 10.9 3.9 3.7 8.1 8.4 9.4 10.4 1.3 1.9 3.7 6 5.3 9 1.6 3 3.7 8 4.7 11 1 3 2.1 6.7 2.5 8.3 0.3 1.5 0.9 6.2 1.2 10.4 0.3 4.5 0.1 11.2-0.6 15.8-0.7 4.4-2.2 10.5-3.3 13.5-1.1 3-4.1 9.1-6.6 13.5-2.5 4.3-7.1 10.4-10.1 13.4-3 3-7.8 7.2-10.5 9.2-2.8 2.1-8.4 5.3-12.5 7.2-4.1 1.9-10.9 4.2-15 5.2-4.1 0.9-8.2 1.5-9 1.3q-1.5-0.3-1.3 1.7c0.1 1.1 0.4 4 0.7 6.5 0.2 2.5 0.7 5.6 1 7 0.3 1.4 0.7 4.7 1 7.5 0.3 2.7 1 6.6 1.5 8.5 0.6 1.9 1 3.7 0.9 4-0.1 0.3 0.2 2.3 0.6 4.5 0.4 2.2 1.5 7.4 2.3 11.5 0.8 4.1 1.9 9.5 2.4 12 0.5 2.5 1.4 6.3 2 8.5 0.6 2.2 1.3 4.7 1.4 5.5 0.2 0.8 1.7 6.4 3.3 12.5 1.7 6.1 3.7 13.5 4.5 16.5 0.9 3 2.7 9.1 4.1 13.5 1.5 4.4 2.6 8.3 2.6 8.7 0 0.5 2.3 7 5.1 14.5 2.9 7.6 7.1 18 9.5 23 2.4 5.1 4.4 9.5 4.4 9.8 0 0.3 2.8 5.6 6.1 11.7 3.4 6.2 8.6 15 11.5 19.5 3 4.6 5.4 8.7 5.4 9.3 0 0.6 0.3 1.1 0.8 1.2 0.4 0.2 2.3 2.3 4.2 4.8 1.9 2.4 4.4 5.5 5.5 6.9 1.1 1.4 5.1 5.7 9 9.4 3.9 3.8 10.4 9.4 14.5 12.6 4.1 3.1 11.1 7.5 15.5 9.7 4.4 2.2 9.1 4.4 10.5 4.8 1.4 0.5 3 0.9 3.5 1.1 0.5 0.1 3.5 1 6.5 1.8 3 0.9 7.7 1.8 10.5 2.1 3.5 0.3 8.4-0.4 16.5-2.4 6.3-1.6 14.4-4.1 18-5.6 3.6-1.4 10.3-4.5 15-6.9 4.7-2.3 11.6-6.1 15.5-8.5 3.9-2.4 11.7-7.6 17.5-11.6 5.8-4 12.1-8.8 14.1-10.6 2-1.8 6.2-5.6 9.5-8.3 3.2-2.8 10.1-9.3 15.4-14.6 5.2-5.2 12.4-12.8 16-16.8 3.6-4 7.9-8.7 9.5-10.6 1.6-1.8 4.6-5.4 6.5-8 1.9-2.5 4.5-5.9 5.8-7.3 1.3-1.5 3-3.9 3.8-5.5 0.8-1.5 1.7-2.7 2.1-2.7 0.5 0 1.7-1.4 2.7-3.2 1.1-1.8 2.4-3.7 2.8-4.3 0.4-0.6 2.3-3 7.5-10l-4.9-5.5c-2.7-3-5.8-8-7-11-1.5-3.8-2.2-7.9-2.2-13-0.1-4.1 0.2-8.8 0.6-10.5 0.3-1.7 0.9-3.9 1.4-5 0.4-1.1 2.1-4 3.8-6.5 1.7-2.5 4.4-5.7 6.1-7.3 1.6-1.5 5.9-4.1 9.5-5.9 5.8-2.8 7.5-3.1 15.5-3.2 8.2-0.1 9.6 0.2 15.5 3.1 4.1 1.9 8.4 5.1 11.5 8.5 3.4 3.6 5.9 7.5 7.8 12.3 2.4 6.2 2.6 8 2.2 15.5-0.3 6.8-1 9.6-3.2 13.9-1.5 3-4.9 7.6-7.6 10.2-2.6 2.7-6.5 5.8-8.7 6.9-2.2 1.1-7.1 2.7-11 3.5-3.9 0.8-8.2 1.2-9.8 0.8-1.5-0.4-3.8-0.7-5.1-0.7-2.1-0.1-2.7 0.9-5.2 8.4-1.6 4.7-3.6 10.5-4.4 13-0.8 2.5-1.7 5.4-1.9 6.5-0.3 1.1-2.3 9-4.5 17.5-2.3 8.5-4.8 18.4-5.6 22-0.7 3.6-1.8 7.7-2.4 9.2-0.6 1.6-1.3 4.3-1.5 6-0.2 1.8-0.9 5.3-1.5 7.8-0.5 2.5-1.3 6.3-1.6 8.5-0.3 2.2-0.8 5.4-1 7-0.3 1.6-0.9 5-1.5 7.5-0.5 2.5-1.2 7-1.6 10-0.3 3-0.7 5.7-0.9 6-0.2 0.3-0.7 4.3-1 9-0.4 4.7-0.7 18.2-0.8 30-0.1 11.8 0.2 24.2 0.6 27.5 0.4 3.3 0.9 6.7 1.1 7.5 0.1 0.8 0.6 3.1 1 5 0.4 1.9 1.4 5.3 2.3 7.5 0.8 2.2 2.9 6.8 4.7 10.3 1.7 3.5 4.7 8 6.6 10 1.9 2 5.5 5.1 8 6.7 2.5 1.7 5.6 3.6 7 4.2 1.4 0.6 5.4 1.4 9 1.8 3.6 0.4 9.9 0.2 14-0.4 4.1-0.5 11.8-2.4 17-4.1 5.2-1.7 15.4-5.9 22.5-9.4 7.1-3.4 16-8.1 19.8-10.4 3.7-2.3 6.9-4.2 7.2-4.2 0.3 0 5.6-3.5 11.7-7.7 6.2-4.2 16-11.1 21.8-15.4 5.8-4.3 11-8.2 11.5-8.6 0.5-0.5 6.1-5 12.2-10.1 6.2-5.1 11.2-9.5 11-10-0.2-0.4-1.8-3.8-3.7-7.7-3.2-6.5-3.4-7.7-3.4-16.5-0.1-8.3 0.3-10.2 2.7-15.3 1.5-3.2 5-7.9 7.9-10.8 2.9-2.8 7.3-6.1 9.8-7.3 2.5-1.3 7-2.8 10-3.5 4.2-0.9 7-0.9 12-0.1 3.6 0.7 9.1 2.6 12.4 4.3 3.9 2.1 7.5 5.2 10.7 9.2 2.7 3.3 5.6 8 6.4 10.5 0.9 2.5 1.8 6.7 2.1 9.5 0.3 2.7 0.1 7.5-0.5 10.5-0.6 3-2.3 7.8-3.8 10.7-1.6 2.8-5.3 7.4-8.3 10.1-3 2.8-7.5 5.9-10 7.1-2.5 1.1-7.2 2.3-10.5 2.7-3.7 0.4-8.1 0.2-11.5-0.6-3-0.7-7.6-2.3-10.3-3.6-2.6-1.3-4.9-2.4-5.2-2.4-0.3 0-1.6 1.9-2.9 4.3-1.3 2.3-3.3 5.8-4.4 7.7-1 1.9-5.1 8.9-8.9 15.5-3.8 6.6-9.3 16.3-12 21.5-2.8 5.2-7.7 14-10.8 19.5-3.2 5.5-8.5 14.7-11.8 20.5-3.3 5.8-6.6 11.9-7.5 13.5-0.8 1.6-2.7 5-4.2 7.5-1.5 2.5-5.6 9.6-9.1 15.8-3.5 6.2-7.8 13.7-9.4 16.6-1.6 2.9-5.4 9.8-8.4 15.2-3 5.4-5.9 10.6-6.6 11.4-0.7 0.8-3.2 5.3-5.7 10-2.5 4.7-5.9 10.7-7.6 13.5-1.7 2.7-5.9 10-9.3 16-3.5 6-8 14.1-10 18-3.3 6.3-4 7-7.1 7.3-1.9 0.2-7.5-1.1-13.8-3.3-5.8-2-17-5.6-25-8-8-2.4-22.8-6.6-33-9.3-10.2-2.7-24.6-6.4-32-8.2-7.4-1.8-16.2-3.8-19.5-4.5-3.3-0.7-9.4-2-13.5-2.8-4.1-0.9-10.6-2.3-14.5-3.2-3.9-0.9-8.6-1.8-10.5-2.1-1.9-0.3-6.4-1.2-10-2-3.6-0.8-8.1-1.7-10-1.9-1.9-0.2-7-1.1-11.2-1.9-4.3-0.9-9.4-1.6-11.3-1.6-1.9 0-3.7-0.5-4-1-0.3-0.5-1-0.8-1.5-0.5-0.5 0.3-6.3-0.4-12.7-1.4-6.5-1.1-17.2-2.7-23.8-3.6-6.6-0.9-16.5-2.3-22-3-5.5-0.8-13.1-1.6-17-2-3.9-0.3-9.5-0.8-12.5-1-3-0.3-16.7-1.4-30.5-2.6-13.7-1.1-30.4-2.4-37-2.7-6.6-0.4-28.6-0.6-49-0.5-20.4 0-43.5 0.4-51.5 0.7-8 0.4-17.4 0.8-21 1.1-3.6 0.2-9.9 0.7-14 1-4.1 0.3-10.9 0.7-15 1-4.1 0.2-13.1 0.9-20 1.5-6.9 0.6-13.6 1.3-15 1.4-1.4 0.2-9 1.1-17 2-8 0.9-16.1 1.9-18 2.1-1.9 0.3-7.3 0.9-12 1.5-4.7 0.6-9.6 1.2-11 1.5-1.4 0.2-7.7 1.2-14 2.1-6.3 0.9-13.5 1.9-16 2.4-2.5 0.4-9 1.5-14.5 2.5-5.5 0.9-10.9 1.8-12 2-1.1 0.1-3.3 0.5-5 0.8-1.7 0.4-16.7 3.6-33.5 7.2-16.8 3.6-37.5 8.4-46 10.7-8.5 2.2-18.2 4.9-21.5 5.9-3.3 1-7 1.9-8.2 1.9-1.8 0-3-1.5-5.9-7.3-2-3.9-17.5-34.7-34.4-68.2-16.9-33.5-42.6-84.4-57-113-14.4-28.6-26.4-52.2-26.6-52.5-0.2-0.3-3.2 0.9-6.6 2.5-5.6 2.6-7.4 3-15.3 3-8.1 0-9.7-0.3-15.5-3.2-4.4-2.1-8-4.9-11.1-8.5-2.5-2.9-5.6-7.2-6.7-9.5-1.2-2.4-2.8-7.4-3.4-11.3-1.2-6.1-1.1-7.7 0.5-13.7 1-3.8 3-8.7 4.5-11 1.5-2.3 5-6.1 7.7-8.5 2.8-2.4 7.7-5.4 11-6.7 4.4-1.8 8-2.4 13.5-2.3 5.4 0 9.2 0.6 13.5 2.3 4.4 1.7 7.6 3.9 12 8.4 4.8 4.9 6.6 7.6 8.8 13.6 1.5 4.1 2.8 9.2 2.9 11.4 0.1 2.2-0.2 5.9-0.5 8.3-0.4 2.3-1.9 6.7-3.4 9.8-1.6 3.1-3.4 6.2-4.1 6.8-0.7 0.6-1.3 1.5-1.2 2.1 0 0.6 4.8 5.3 10.8 10.6 5.9 5.3 15.2 13.4 20.7 18 5.5 4.6 10.7 8.9 11.5 9.6 0.8 0.7 5.1 3.8 9.5 7.1 4.4 3.2 11.6 8.3 16 11.4 4.4 3 12.5 8.1 18 11.3 5.5 3.1 14.5 7.8 20 10.2 5.5 2.5 13.4 5.4 17.5 6.5 4.4 1.2 11.6 2.2 17.5 2.4 9.2 0.3 10.4 0.1 15.4-2.4 3-1.5 7.9-4.9 11-7.7 3-2.7 6.8-7.2 8.6-10 1.7-2.7 4.3-8.1 5.7-12 1.4-3.9 3.1-9.2 3.7-12 0.6-2.7 1.3-6.6 1.6-8.5 0.2-1.9 1-9.1 1.6-16 0.6-7.1 0.9-20.2 0.6-30.5-0.3-9.9-0.8-20.3-1.1-23-0.3-2.7-0.8-6.8-1-9-0.3-2.2-1-8.1-1.6-13-0.7-4.9-1.4-10.6-1.6-12.5-0.3-1.9-0.6-4.4-0.9-5.5-0.2-1.1-0.4-2-0.5-2-0.1 0-0.3-0.9-0.5-2-0.1-1.1-0.6-4-0.9-6.5-0.3-2.5-1.5-9.2-2.7-15-1.1-5.8-4-18.8-6.5-29-2.4-10.2-5.2-21.5-7.9-31.8l-7 0.5c-4.1 0.3-8.7 0-11-0.7-2.2-0.6-6-2.1-8.5-3.3-2.5-1.2-6.7-4.4-9.4-7.2-2.7-2.7-5.9-7.2-7.1-10-1.2-2.7-2.8-7.7-3.4-11-1-4.6-1-7.2-0.1-11.5 0.7-3 2.1-7.3 3.1-9.5 1-2.2 4-6.4 6.6-9.4q4.8-5.3 11.3-8.5c6-2.9 7.2-3.1 16.5-3 8.2 0 10.9 0.5 15 2.3 2.9 1.4 7.4 4.8 10.9 8.4 3.3 3.4 6.7 8 7.6 10.2 1 2.2 2.3 6.5 2.9 9.5 0.7 3.2 0.9 7.6 0.5 10.5-0.4 2.8-2.1 7.9-3.7 11.5-1.9 4-5 8.3-12.7 15.5l8.7 13c4.7 7.1 10.7 15.8 13.2 19.1 2.5 3.4 5.3 7.2 6.1 8.4 0.8 1.2 2.4 3.4 3.5 4.9 1.1 1.4 3 3.7 4.1 5.1 1.2 1.4 4.1 4.8 6.4 7.5 2.3 2.8 5.8 6.9 7.8 9.2 2 2.4 9.3 9.8 16.2 16.7 6.9 6.8 14.8 14.3 17.5 16.7 2.8 2.4 8.6 7.2 13 10.5 4.4 3.4 11.6 8.5 16 11.4 4.4 2.8 13 7.6 19 10.5 6 3 15 6.8 20 8.5 5 1.7 10.6 3.4 12.5 3.6 1.9 0.3 5.8 0.5 8.5 0.5 2.8 0 9.3-1.1 14.5-2.4 5.2-1.3 12.4-3.7 16-5.3 3.6-1.5 9-4.4 12-6.3 3-1.9 9.1-6.2 13.5-9.6 4.4-3.4 10.5-8.9 13.5-12.2 3-3.2 7.1-7.8 9-10.2 1.9-2.3 4.2-5.1 5-6.1 0.8-1.1 3-4.1 4.8-6.7 1.9-2.6 5.2-7.7 7.5-11.3 2.3-3.6 4.9-7.9 5.8-9.5 0.9-1.6 5.5-10.4 10.1-19.5 4.7-9.1 10.1-20.3 12-25 1.9-4.7 4-10.1 4.7-12 0.7-1.9 3.5-9.8 6.3-17.5 2.7-7.7 5.3-15.3 5.7-17 0.5-1.7 2.2-7.1 3.9-12 1.7-4.9 3.6-11.5 4.3-14.5 0.7-3 2.1-8.7 3.1-12.5 1.1-3.8 2.1-8.1 2.4-9.5 0.3-1.4 0.9-3.8 1.4-5.5 0.5-1.7 1.2-4.1 1.4-5.5 0.3-1.4 1.3-5.7 2.1-9.5 0.9-3.8 1.8-9 2.1-11.5 0.3-2.5 1-5.5 1.5-6.7 0.5-1.3 0.9-3 0.9-3.8 0-1.1-1.6-1.7-5.7-2.1-3.2-0.4-8.9-1.8-12.8-3.3-3.9-1.5-10.1-4.8-14-7.3-3.9-2.6-10-8-13.6-12-3.6-4-8.2-10.2-10.2-13.8-2-3.6-4.3-8.7-5.2-11.5-0.9-2.7-2.2-7.7-3-11-0.8-3.7-1.2-10-1-16.5 0.1-5.8 0.5-11.8 0.8-13.5 0.3-1.6 1.3-5.2 2.2-8 1-2.7 3.6-8.4 5.9-12.5 2.7-4.9 7-10.3 12.7-16 4.7-4.7 11.2-10.1 14.5-12 3.2-1.9 8.8-4.5 12.4-5.8 3.6-1.3 9.9-3 14-3.7 4.1-0.8 10.9-1.2 15-1z"/>
		<path id="Path 1" class="s1" d="m3254 31.5c9.6 0.2 14.7 1 30.5 4.9 10.4 2.5 20.8 5.2 23 5.9 2.2 0.8 5.8 2.4 8 3.5 2.2 1.2 9.4 6.1 16 11 11 8 12.7 9.8 20.8 20.7 4.8 6.6 9.6 13.6 10.6 15.5 1 1.9 2.7 7 3.7 11.3 1.1 4.2 2.2 7.7 2.6 7.7 0.5 0 5.9-3.5 12-7.9 6.2-4.3 13.3-8.9 15.8-10.1 2.5-1.3 6.7-3.1 9.5-4 2.7-1 15.1-4.1 27.5-7 19.1-4.5 24-5.3 32.5-5.3 8.6-0.1 12.8 0.6 29.5 4.6 10.7 2.6 21.8 5.5 24.5 6.4 2.8 0.9 10.6 5.7 17.5 10.6 6.9 4.9 13.8 10.1 15.4 11.6 1.5 1.4 6.7 8 11.5 14.6 4.8 6.6 9.5 13.5 10.4 15.3 1 1.7 3.9 12.6 6.7 24.2 2.7 11.6 5 22.5 5 24.3 0 1.7-2 12-4.6 22.7-2.5 10.7-5.4 21.3-6.4 23.5-1 2.2-5.9 9.6-10.8 16.5-5 6.9-12.8 16.6-17.4 21.5-4.6 4.9-13.7 14.2-32.5 32l-1.6 9c-1.2 6.9-1.3 9.2-0.4 9.7 0.7 0.4 3.7 1.2 6.7 1.8 4.1 0.9 6.8 0.9 10.7 0.1 2.9-0.6 8.7-1.1 12.8-1.1 5.5 0 13.1 1.3 28.2 4.9 11.5 2.7 22.4 5.6 24.3 6.6 1.9 1 4.7 2.6 6.2 3.6 2.1 1.4 4.6 1.9 9.5 1.9 3.8 0 10.4-0.3 22.6-1.5l10.7-15c5.8-8.3 31.3-44.9 56.6-81.5 42.1-60.8 46.3-67.1 48.4-74 1.2-4.1 3.9-11.3 5.9-16 2-4.7 5.9-11.9 8.5-16 2.7-4.1 9.2-13.3 14.6-20.5 5.3-7.2 11.9-15 14.6-17.4 2.7-2.4 10.5-8.4 17.4-13.4 6.9-5 15.2-10.6 18.5-12.4 3.3-1.8 8.7-4.2 12-5.3 3.3-1.1 15.7-4.2 27.5-7 18.6-4.3 22.9-5 32-5 9.2 0 13.2 0.7 32 5.1 11.8 2.9 24 6.3 27 7.6 3 1.4 11.6 6.9 19 12.2 7.4 5.4 15.1 11.8 17 14.2 1.9 2.4 6.6 8.6 10.4 13.9 3.8 5.2 7.9 11.5 9.2 14 1.3 2.5 4.6 13.9 7.4 25.5 4.3 17.3 5.1 22 4.6 26.5-0.3 3-2.6 13.6-9.6 41.5l-8.3 11.4c-4.5 6.3-10.5 13.8-13.2 16.6-2.8 2.8-9.7 8.6-15.5 13-5.8 4.3-10.7 8-11 8.3-0.3 0.2-1.2 8.1-2.2 17.6-0.9 9.4-2 21.7-3.3 37.6h2.7c1.6 0 11.5 2 22 4.5 10.6 2.5 21.5 5.7 24.3 7 2.7 1.4 9.9 6.2 16 10.7 9.9 7.5 11.8 9.5 28.8 33.3l4.4 17.5c2.3 9.6 4.6 20 4.9 23 0.4 4.5-0.4 9.4-4.6 27-3.1 13-6.4 24.3-8.4 28.5-1.7 3.9-6.1 11.3-9.5 16.5-3.5 5.2-10.2 14.7-14.9 21-4.7 6.3-12 15.5-16.2 20.5-4.3 5-13.3 14.4-20.1 21-6.8 6.7-16.9 15.7-22.4 20.1-5.5 4.4-16.3 12.5-24 18.1-7.7 5.5-17.4 12.2-21.5 14.9-4.1 2.6-12.7 7.3-19 10.3-9 4.3-15.4 6.4-29 9.8-9.6 2.3-22.2 5.2-28 6.4-8.1 1.7-12.2 2-18 1.5-4.1-0.4-16.9-2.9-28.5-5.6-11.6-2.7-22.8-5.5-25-6.3-2.2-0.8-5.4-2.2-7-3.3-1.6-1-7.3-5-12.5-8.7-5.2-3.7-11.5-8.7-13.9-11-2.4-2.3-8.1-9.6-12.8-16.2-4.6-6.6-8.5-12.5-8.6-13-0.2-0.5-8.1 6.9-17.7 16.6-10.2 10.2-21.7 20.7-27.5 25-5.5 4-15.4 11-22 15.4-6.6 4.4-16.1 9.8-21 11.9-5.6 2.4-18.4 6-34 9.8-16.1 3.8-28.6 6.2-35 6.7-5.5 0.5-14.3 0.5-19.5 0.1-5.4-0.4-19.3-3-32-6-12.4-2.9-25.2-6.2-28.5-7.5-3.3-1.2-8.3-3.4-11-4.8-2.8-1.4-10.9-6.8-31-21.3l-8.5 3.2c-4.7 1.8-18.2 5.6-30 8.5-18.5 4.4-22.9 5.2-31.5 5.2-8.5 0-13.2-0.7-30.5-4.8-11.3-2.6-23-5.6-26-6.7-3.3-1.2-10.9-5.8-18.8-11.6-7.4-5.3-14-10.5-14.8-11.5-1.3-1.6-1.9-1.3-9.2 3.7-4.2 3-11.1 7-15.2 9-5 2.4-14.5 5.3-29 8.7-12.4 3-24.9 5.4-29.5 5.6-7.1 0.5-10.6-0.1-30.5-4.7-12.4-2.8-25.2-6.4-28.5-7.9-3.3-1.5-9.3-5.1-20.5-13.1l-7.3 6.5c-3.9 3.6-13.8 11.4-21.9 17.3-8.2 5.9-18.5 12.8-23 15.5-4.6 2.6-11.9 6.1-16.3 7.8-4.4 1.7-18.1 5.5-30.5 8.5-12.4 2.9-25.6 5.8-29.5 6.3-3.9 0.6-10.9 1.1-15.8 1.1-4.8 0-12-0.5-16-1-3.9-0.6-17.6-3.5-30.2-6.6-16.4-3.9-25.3-6.6-31-9.3-4.4-2.1-14-8.2-34.5-23.1l-13.3 5.1c-7.2 2.8-20.8 7.1-30.2 9.4-9.4 2.4-24.2 5.9-33 7.9-9.8 2.2-21.1 3.9-29 4.5-8.3 0.6-17.5 0.6-25.5 0-8-0.6-18.8-2.4-30-5-9.6-2.2-22-5.2-27.5-6.6-5.5-1.3-13.4-3.8-17.5-5.5-4.1-1.6-9.4-4-16-7.8l-8.3 5.9c-4.5 3.2-11.4 7.5-15.2 9.4-3.8 2-9.5 4.5-12.5 5.5-3 1.1-16.3 4.5-29.5 7.7-22.3 5.4-24.9 5.8-36 5.9-11 0-13.6-0.4-31.5-4.8-10.7-2.6-21.3-5.5-23.5-6.5-2.2-0.9-9.6-5.8-16.5-10.8-6.9-4.9-13.8-10.5-15.5-12.4-1.7-1.9-5-6.2-7.5-9.6-2.5-3.4-4.9-6.2-5.5-6.2-0.6 0-2.3 1-4 2.3-1.7 1.3-4.6 3.1-6.5 4.1-1.9 1-12.9 4-24.5 6.8-17.3 4.1-22.6 5-30 5-7.4-0.1-12.8-1-30-5.2-11.6-2.8-23.3-6.2-26-7.5-2.8-1.3-10.4-6.2-17-11-6.6-4.9-14.6-11.3-17.8-14.4-3.2-3.2-10-11.6-15.1-18.7-5.1-7.1-10.5-15.3-11.8-18-1.4-2.8-3.2-7.3-4.1-10-0.9-2.8-3.5-12.9-5.7-22.5-2.3-9.6-4.5-19.9-5.5-28l-14 10.1c-7.7 5.5-17.6 12.3-22 14.9-4.4 2.7-13.2 7.3-19.5 10.4-6.3 3-16 7-21.5 8.9-5.5 1.9-13.2 4.2-24 6.9l-6.3 11.2c-3.4 6.1-11.3 18.2-17.5 26.8-6.1 8.6-14.5 19.5-18.5 24.2-3.9 4.7-10.5 11.4-14.6 14.8-4 3.5-13.4 10.6-20.7 16-7.4 5.3-17.2 11.6-21.9 14.1-4.7 2.5-11.9 5.7-16 7.1-4.1 1.5-17.8 5.1-30.5 8.2-21.5 5.2-24 5.6-54 6.6l-22.5-5.2c-12.4-2.9-24.8-6-27.5-7-2.8-0.9-6.6-2.5-8.5-3.5-1.9-0.9-9.3-5.9-16.5-11.1-7.2-5.1-15.3-11.7-18.1-14.6-2.8-2.9-8.5-10-12.6-15.8-4.1-5.8-8.3-12.1-9.4-14-1-1.9-2-3.6-2.2-3.8-0.1-0.1-5 3.1-11 7.2-5.9 4-13.6 8.9-17.2 10.8-3.6 2-10.6 5.2-15.5 7.2-4.9 1.9-20.3 6.2-34 9.5-13.8 3.3-28.5 6.4-32.8 7-4.2 0.6-13 1.1-19.5 1.1-6.4 0-16-0.7-21.2-1.4-5.2-0.8-18.9-3.7-30.5-6.5-11.6-2.7-23.9-5.9-27.5-7.1-3.6-1.2-9.7-3.6-13.5-5.5-3.8-1.8-13.3-7.8-21-13.3-7.7-5.5-16.4-12.2-24.6-19.7l-9.7 9.6c-5.3 5.3-14 12.7-19.2 16.6-5.2 3.8-13.8 9.9-19 13.5-5.2 3.7-14 8.9-19.5 11.6-5.5 2.7-14.1 6.4-19 8-4.9 1.7-19.6 5.6-32.5 8.6-12.9 3.1-26.9 6-31 6.6-4.1 0.6-14.9 1.1-24 1.1-10.2 0-20.2-0.6-26.3-1.5-5.3-0.9-19.3-3.9-31-6.6-11.6-2.8-24.8-6.2-29.2-7.7-4.4-1.4-10.5-3.7-13.5-5.1-3-1.3-8.2-4-11.5-6-3.3-2-12.1-8-19.5-13.4-7.4-5.3-16.7-13-20.7-17-3.9-4-8.2-8.7-9.6-10.3-1.3-1.6-6.2-8.4-10.9-15-4.7-6.6-10-14.5-11.7-17.5-1.7-3-4.4-9.3-6.2-14-1.7-4.7-5.6-19.1-8.6-32-3.6-15.3-5.7-26.9-6.2-33.2-0.3-5.4-0.3-14.2 0-19.5 0.5-6.4 2.6-18 6.2-33.3 3-12.9 6.5-26.4 7.7-30 1.2-3.6 3.6-9.6 5.5-13.5 1.8-3.9 7.5-12.9 12.6-20 5.1-7.1 11.4-15.5 14-18.5 2.6-3 10-9.4 16.5-14.2 6.6-4.7 14.6-10.2 17.9-12.2 3.3-2 9.7-4.6 14.3-5.8 8-2.2 8.3-2.4 7.7-4.8-0.4-1.4-1.6-6.6-2.6-11.5-1.3-5.9-2.2-14.7-2.6-25.5-0.3-10.5-0.1-19.2 0.6-24 0.7-4.1 3.6-17.6 6.6-30 2.9-12.4 6.8-26.6 8.5-31.5 1.8-5 4.6-11.7 6.2-15 1.7-3.3 5.5-9.8 8.5-14.5 3.1-4.7 9.9-14.4 15.3-21.5 5.3-7.2 13.8-16.8 18.7-21.5 4.9-4.7 15.2-13 22.9-18.5 7.6-5.5 18-12.1 22.9-14.7 4.9-2.5 12.4-5.8 16.5-7.1 4.1-1.4 17.6-4.9 52.5-13.2l35 0.1 22.5 5.3c12.4 2.9 25.2 6.2 28.5 7.2 3.3 1.1 8.7 3.2 18 7.7l8.5-4.3c4.7-2.3 11.9-5.4 16-6.8 4.1-1.4 15.2-4.5 24.5-6.7 9.3-2.3 21.9-5.2 28-6.5 6.1-1.3 16.8-2.9 24-3.6 7.3-0.6 17.4-0.8 23-0.5 5.8 0.4 17.4 2.4 27.5 4.7 9.6 2.2 21.8 5.1 27 6.5 5.2 1.4 12.4 4 16 5.8 3.6 1.7 11.4 6.7 17.5 11.1 6.1 4.3 13.6 10 16.7 12.7 3.2 2.6 6.1 4.8 6.5 4.8 0.5-0.1 4-2.4 7.8-5.2 3.8-2.8 8.6-5.8 10.5-6.6 1.9-0.8 12.9-3.7 24.5-6.4 17.8-4.2 22-4.9 27.5-4.4 3.6 0.3 15.3 2.6 26 5.1 10.7 2.6 21.5 5.4 24 6.2 2.5 0.9 7.2 2.9 10.5 4.5 3.3 1.7 10.6 6.4 16.2 10.4 5.7 4.1 10.6 7.4 11 7.4 0.5 0 4-2 7.8-4.5 3.8-2.6 11.9-7.1 18-10 6.1-2.9 15.5-7 21-9 5.5-2 15.2-5 21.5-6.6 10-2.6 12-3.5 15.5-6.8 2.2-2.1 9.8-8 17-13.1 7.2-5.1 15.5-10.4 18.5-11.7 3-1.4 15.6-4.9 28-7.9 14.1-3.4 24.7-5.4 28.5-5.4 3.7 0 13.5 1.7 25.5 4.6 10.7 2.5 19.9 4.9 20.5 5.2 0.6 0.3 5.9 4.1 12 8.4 8.8 6.2 12.1 9.3 22 22.8l9 2.1c4.9 1.2 13.3 3.7 18.5 5.6 5.2 1.9 13.3 5.5 18 7.9 4.7 2.4 14.3 8.6 34.5 23.1l11.5-7.4c6.3-4 16.7-10 23-13.2 6.3-3.2 16.7-7.9 23-10.4 6.3-2.5 15.6-5.7 20.5-7.2 4.9-1.5 20.9-5.5 35.5-9 14.6-3.4 31.9-7.1 38.5-8.1 9.2-1.4 17.4-1.8 35.5-1.8 16.4 0.1 26.5 0.5 33.5 1.7 5.5 0.8 20.8 4.1 34 7.2 13.2 3.2 28.1 7.1 33 8.7 4.9 1.7 13.1 5.1 18 7.6 4.9 2.4 11.7 6.3 15 8.5 3.3 2.2 11.2 7.9 17.5 12.5 6.3 4.7 14 11.1 17.1 14.1 3 3.1 9.6 10.9 14.5 17.4 4.9 6.5 9.2 11.5 9.5 11 0.3-0.4 3.5-4.4 7.1-8.8 3.7-4.4 9.7-10.7 13.5-14 3.7-3.3 11.3-9.4 16.8-13.5 5.5-4.2 14.3-10.5 19.5-14 5.2-3.5 14-8.5 19.5-11.1 5.5-2.6 12.9-5.7 16.5-6.9 3.6-1.2 15.7-4.4 27-7 11.3-2.7 23.4-5.4 27-5.9 3.6-0.6 12.4-1.1 19.5-1.1 7.1 0 15.7 0.5 19 1.1 3.3 0.6 15.4 3.3 27 6 11.6 2.8 23.9 6.2 27.5 7.7 3.6 1.5 12.3 6.8 19.4 11.7 7.1 5 15.5 11.5 18.5 14.5 3.1 3 9.5 10.9 14.3 17.5 4.8 6.6 10 14.9 11.6 18.5 1.6 3.6 5.3 16.4 8.2 28.5 2.8 12.1 5.6 25.8 6.1 30.5 0.7 5.7 0.6 12-0.1 19-0.6 5.8-3.3 20.2-6.1 32-2.8 11.8-5.8 23.5-6.6 26-0.8 2.5-3 7.6-4.9 11.5-1.9 3.9-7.5 12.5-12.4 19.2-5 6.8-9 12.5-9 12.8 0 0.3 1.8 0.9 4 1.5 2.2 0.6 4.4 0.8 5 0.5 0.6-0.3 4.9-0.5 9.7-0.6 7.2 0 12.7 0.9 29.8 4.9 11.6 2.7 22.6 5.8 24.5 6.7 1.9 1 6.2 3.8 9.5 6.2 3.3 2.4 6.2 4.3 6.5 4.3 0.3 0.1 6-10.4 12.7-23.2 6.7-12.8 17.2-33.7 34.5-69.3l-1.8-11c-1.4-7.9-1.9-15.9-1.9-28.5 0.1-17.4 0.1-17.6 4.8-37 2.6-10.7 5.9-23.1 7.4-27.5 1.4-4.4 4.5-11.8 6.9-16.5 2.4-4.7 8.9-14.8 14.4-22.5 5.5-7.7 13.5-17.8 17.7-22.4 4.5-4.8 13.4-12.6 20.8-18.1 7.1-5.4 16.1-11.8 20-14.3 3.9-2.5 10.4-6 14.5-7.7 4.1-1.8 17.4-5.6 29.5-8.5 12.1-2.9 23.1-5.5 24.5-5.8 1.4-0.3 7.7-0.4 14-0.2zm-2772.5 15.6c3.3 0 10 0.4 15 1 5 0.5 19.6 3.5 32.5 6.6 12.9 3 27.1 6.8 31.5 8.4 4.4 1.7 11.2 4.7 15 6.8 3.8 2 13.5 8.4 21.5 14.1 8 5.8 17.9 13.8 22 18 4.2 4.1 12.2 14 17.9 22 5.7 8 12.3 18.5 14.7 23.5 3.2 6.7 5.8 14.8 10.1 32 5.7 23 5.7 23 5.7 38.5 0 15.3-0.1 15.8-5.1 36.5-2.8 11.5-6.1 23.9-7.4 27.5-1.2 3.6-3.6 9.6-5.4 13.5-1.7 3.9-6.6 12.1-10.8 18.2-7.2 10.6-7.6 11.3-5.5 11.8 1.3 0.3 11.5 2.7 22.8 5.5 16.4 3.9 21.3 5.5 24.7 8 3.8 2.6 5.1 3 11 3 3.8 0 10.4-0.3 22.8-1.2l12.1-17.2c6.6-9.4 32-45.9 56.4-81.1 43.4-62.6 44.4-64.2 47.7-74 1.9-5.5 5.6-14.5 8.3-20 2.7-5.5 9.1-15.8 14.2-23 5.1-7.1 12.7-16.6 16.9-21 4.6-4.7 13.5-12.2 22-18.3 7.9-5.7 17.6-11.9 21.4-13.8 3.8-1.8 11.3-4.4 16.5-5.8 5.2-1.3 16.5-4 25-6 12.6-2.9 17.5-3.6 26-3.6 9.1 0 13.4 0.7 32 5.1 11.8 2.7 24.2 6.3 27.5 7.8 3.3 1.5 11.6 6.8 18.5 11.8 6.9 5 13.9 10.6 15.6 12.5 1.8 1.8 6.9 8.5 11.5 14.8 4.5 6.3 9.3 13.7 10.6 16.5 1.2 2.7 4.5 14.7 12.3 48l-4.4 19c-2.4 10.4-5 20.6-5.8 22.5-0.8 1.9-5.5 9.1-10.5 16-4.9 6.9-11.5 14.7-14.6 17.5-3 2.7-9.6 7.9-14.5 11.5-8.6 6.2-9 6.7-9.6 11-0.3 2.5-1.5 14.4-2.6 26.5-1.1 12.1-2 22.6-2 23.2 0 0.7 1.1 1.3 2.5 1.3 1.4 0 11.2 2 21.7 4.5 10.6 2.5 20.6 5 22.3 5.7 1.7 0.6 7.9 4.6 14 8.9 6.1 4.3 12.6 9.5 14.6 11.6 1.9 2.1 6.5 7.8 10 12.8 3.6 4.9 7.1 10 7.7 11.2 0.7 1.3 3.2 10.6 5.7 20.8 2.5 10.2 4.5 20.5 4.5 23 0 2.5-2.2 13.8-4.9 25.2-2.7 11.5-6 23.3-7.3 26.3-1.4 3-4.4 8.6-6.8 12.5-2.4 3.9-8.4 12.6-13.3 19.5-5 6.9-12.9 17.2-17.6 23-4.7 5.7-13.5 15.4-19.6 21.5-6.1 6-15.1 14.4-20 18.6-4.9 4.2-15.1 12.1-22.5 17.6-7.4 5.5-18.2 13.2-24 17-5.8 3.9-13.4 8.6-17 10.6-3.6 1.9-10.6 5.1-15.5 7-4.9 2-18.9 5.9-31 8.8-19.7 4.8-23.1 5.3-32.5 5.2-9.1-0.1-13.6-0.8-33.5-5.6-12.7-3-25-6.5-27.5-7.7-2.5-1.3-9.7-6-16-10.6-6.3-4.6-12.9-9.8-14.7-11.6-1.7-1.8-6.8-8.5-11.3-14.8-4.5-6.3-8.6-12.2-9-13-0.7-1.2-2.1-0.1-6.6 5-3.1 3.6-9.6 10.3-14.3 15-4.7 4.7-12 11.2-16.1 14.6-4.1 3.3-12.9 9.9-19.5 14.7-6.6 4.7-15.6 10.7-20 13.2-4.4 2.5-11.6 5.9-16 7.6-4.4 1.7-18.6 5.6-31.5 8.6-14.2 3.3-27.5 5.8-33.5 6.3-5.5 0.4-14.3 0.4-19.5-0.1-5.2-0.4-14.8-2-33-6.4l-4.8 5.5c-2.7 3-10.7 9.7-17.8 14.9-7.1 5.2-14.9 10.4-17.4 11.7-2.5 1.3-13 4.4-42.5 11.4l-37-8.7-10-7.3c-5.5-4-12-8.9-14.5-11-2.5-2-7.7-5.8-11.5-8.3-3.8-2.4-11.7-7-17.5-10.2-5.8-3.1-15.9-8.2-22.5-11.2-6.6-3-19.7-8.3-29-11.8-9.3-3.4-22-7.7-39-12.7l-7 4.8c-3.8 2.7-9.5 5.8-12.5 7.1-3 1.2-14.3 4.3-25 6.8-10.7 2.6-21.7 4.9-24.5 5.2-3.8 0.4-9.8-0.6-25.5-4.2-11.3-2.6-22.7-5.8-25.5-7-2.7-1.2-10.2-5.9-16.5-10.4-6.3-4.6-14.3-11-17.8-14.4-3.5-3.4-11.1-12.7-16.9-20.7-5.7-8-12.7-19-15.4-24.5-3.8-7.7-6-14.2-9.4-28-2.5-9.9-5.4-22.4-6.5-27.8-1.1-5.3-2-12.6-2-16.2 0-4.3 1.7-13.8 5.1-28.3 2.8-11.9 6-23.4 7-25.5 1.1-2 5.4-8.5 9.7-14.4 4.2-5.9 9-12 10.7-13.6 1.7-1.7 8-6.6 14-11 6-4.4 13.3-9 16-10.2 2.8-1.2 6.5-2.5 8.3-2.9 2.7-0.5 3.1-1 2.7-2.9-0.3-1.2-2.1-9-4.2-17.2-2.6-11-3.6-17-3.5-22.5 0.1-5.5 1.6-13.3 5.6-29.5 4.7-18.6 6.1-22.8 9.2-27.5 2-3 7.6-10.6 12.3-16.9 7.6-10.1 10-12.5 20.6-20.4 6.6-4.9 13.8-10 16-11.2 2.3-1.4 11.5-4.1 21.3-6.4 11.2-2.7 18.3-3.9 23.7-2.9l6.9-16.9c3.8-9.2 10.6-25.1 15.2-35.3 4.6-10.2 10.7-22.6 13.5-27.5 2.9-5 9.7-15.3 15.3-23 5.6-7.7 13.3-17.1 17.1-21 3.8-3.9 13.5-11.7 21.5-17.4 8-5.7 17-11.6 20-13.1 3-1.5 7.8-3.5 10.5-4.3 2.8-0.9 13.7-3.7 24.4-6.3 10.7-2.5 21.9-4.9 25-5.4 3.1-0.4 8.3-0.8 11.6-0.9z"/>
		<path id="Path 2" class="s2" d="m3254.5 61.5c8.6 0.3 14.4 1.2 26.5 4.2 9.5 2.4 17.4 5 20.5 6.8 2.8 1.6 8.6 5.5 13 8.7 6 4.4 9.6 8.1 14.3 14.6 3.5 4.8 6.9 9.8 7.6 11.2 0.8 1.4 2.8 8.5 4.5 15.8 1.7 7.2 3.1 15.1 3.1 17.5 0 2.3-1.7 11.2-3.8 19.7-2.9 11.6-5.1 18-8.8 25.5-2.7 5.5-8.8 16.1-22.2 37l2.7 13.7c1.4 7.5 2.8 13.9 3.1 14.2 0.3 0.3 3.9-3.6 8-8.7 7-8.6 7.6-9.9 10.7-20.2 1.7-6.1 5.2-15.9 7.8-22 2.5-6.1 6.4-14.2 8.7-18 2.2-3.8 6.8-10.8 10.1-15.5 3.3-4.7 8.2-11.2 10.8-14.5 2.6-3.3 7.6-8.3 11.1-11.2 3.5-2.8 11.2-8.4 17.3-12.5 6.1-4 14.1-8.5 18-10 3.9-1.4 14.4-4.2 23.5-6.3 12.2-2.7 18.8-3.7 25.5-3.7 7-0.1 12.4 0.8 24.3 3.6 8.3 2 17.1 4.6 19.4 5.7 2.4 1.2 8.6 5.2 13.8 8.9 7.9 5.5 10.6 8.2 15.9 15.6 3.5 4.9 7.3 10.7 8.5 12.9 1.1 2.2 3.5 10.3 5.3 18 1.8 7.7 3.3 15.2 3.3 16.8 0 1.5-1.4 8.7-3.1 15.9-1.7 7.3-4.1 15.1-5.2 17.3-1.1 2.2-5.1 8.5-9 14-5.2 7.4-12.7 15.7-51.5 54l-2.5 13c-1.4 7.1-3.7 20.2-5.1 29-1.4 8.8-2.9 18.6-3.3 21.7-0.7 5-0.6 5.7 0.7 5.1 0.8-0.3 6.2-1.9 12-3.4 5.8-1.6 12-2.8 13.8-2.9 1.7 0 7.1 0.9 11.9 2.1 7.9 1.8 9.6 1.9 16.8 0.8 4.4-0.6 11.1-0.9 15-0.6 3.9 0.3 13.1 2 20.5 3.8 12.2 2.9 14.2 3.7 28.5 13.6l23.5-0.9c12.9-0.5 24.9-1.1 26.5-1.3 2.6-0.4 5.2-3.5 21.1-25.7 10-13.9 38.1-54.1 62.4-89.3 44.3-64 44.3-64 47.8-74.5 1.9-5.8 5.4-14.3 7.7-19 2.4-4.7 7.9-13.7 12.3-20 4.4-6.3 10.7-14.2 13.9-17.5 3.3-3.3 9.7-8.7 14.4-12 4.6-3.3 10.6-7.5 13.4-9.2 2.7-1.8 7.8-4.4 11.2-5.8 3.5-1.4 12.9-4.1 21.1-6.1 11-2.7 17.6-3.8 26.2-4.1 10.6-0.5 12.7-0.2 27.5 3.2 8.8 2 18.5 4.9 21.5 6.4 3 1.4 9.3 5.4 14 8.8 4.7 3.4 10.1 7.9 12.1 10 2 2.1 5.8 6.9 8.6 10.8 2.7 3.8 6 8.9 7.1 11.2 1.2 2.4 3.8 10.8 5.7 18.8 1.9 8 3.5 15.6 3.5 17 0 1.4-1.4 8.5-3.2 15.7-2.9 12.4-3.6 13.9-9.2 22.2-3.4 4.9-9.1 11.7-12.9 15.2-3.7 3.5-11.8 10-17.9 14.3-6.2 4.3-11.8 8.5-12.4 9.2-0.6 0.8-2.1 10.6-3.3 21.9-1.2 11.3-2.5 25.2-3.1 31-0.5 5.8-1.2 15-1.5 20.5-0.3 5.5-0.8 11.4-1.1 13-0.4 2.5 0.6 4.5 5.7 11.5 3.3 4.7 6.6 8.5 7.2 8.4 0.7-0.1 5.7-1.1 11.2-2.4 6.5-1.4 11.2-2 13.5-1.5 1.9 0.3 8.9 2 15.5 3.6 11.2 2.7 12.7 3.4 21.9 9.7 8.2 5.6 10.8 8 15.5 14.7 3.2 4.4 6.2 8.9 6.8 10 0.6 1.1 2.6 8.1 4.3 15.5 2.2 9.1 3.1 14.8 2.7 17.5-0.3 2.2-2 9.6-3.7 16.5-1.7 7.3-4.7 16.1-7.1 21-2.3 4.7-7.8 13.9-12.2 20.5-4.5 6.6-11.7 16.4-15.9 21.7-4.3 5.4-12.7 14.9-18.7 21-6 6.2-15.9 15.6-22 20.8-6.2 5.2-18.1 14.4-26.4 20.4-8.4 5.9-19.5 13.3-24.7 16.4-5.2 3.1-13.3 7.3-18 9.3-4.7 2-15 5.3-23 7.2-8 2-17.5 4.1-21.3 4.6-4.4 0.7-9.5 0.8-15 0.2-4.5-0.5-14.8-2.6-23-4.5-8.1-2-16.6-4.6-19-5.8-2.3-1.1-7.3-4.4-11.2-7.1-3.9-2.8-8.3-6.2-9.9-7.6-1.5-1.4-5.6-6.6-9.1-11.6-3.5-5-7.1-10.8-8-13-0.9-2.2-3.2-10.3-5.1-18-1.8-7.7-3.7-16.9-4.9-26.7l-4.5 0.7c-2.5 0.4-4.8 1-5.1 1.3-0.4 0.4-5.4 7-11.2 14.7-5.8 7.7-14.8 19-20 25-5.2 6-14.1 15.5-19.8 21-5.7 5.4-14.5 12.9-19.4 16.5-4.9 3.7-12.6 9.1-17 12-4.4 3-12.5 7.5-18 10.1-7.2 3.4-14.6 5.9-26.5 8.8-9.1 2.2-19.2 4.4-22.5 5-3.3 0.6-11.9 1.1-19 1.1-7.1 0-15.7-0.5-19-1.1-3.3-0.6-13.2-2.8-22-5-9.2-2.3-19-5.4-23-7.4-3.9-1.8-11.7-6.7-17.5-10.8-5.8-4.1-13.5-10.7-17.3-14.6-3.7-3.9-6.7-7.6-6.7-8.1 0-0.5-1.7 0.1-3.8 1.4-2 1.3-8 4.5-13.2 7.1-5.2 2.6-12 5.6-15 6.7-3 1-11.1 3.2-18 4.9-6.9 1.6-15.4 3.4-19 3.8-3.6 0.4-10.2 0.4-14.8 0-4.5-0.5-14.4-2.4-22-4.2-7.5-1.9-16-4.6-18.7-6.1-2.8-1.5-8.4-5.3-12.5-8.4-5-3.8-9.7-8.7-14.2-14.7-3.7-5-7.5-10.8-10.1-17l-6.6 6.3c-3.6 3.5-11.8 9.9-18.1 14.3-6.3 4.5-14.6 9.6-18.5 11.4-3.9 1.8-13.8 5-22 7.1-12.6 3.2-16.7 3.8-25.5 3.8-8.9 0-12.9-0.6-25.5-3.8-8.3-2.1-16.8-4.7-19-5.9-2.2-1.1-8.5-5.2-13.9-9.1-7.2-5.1-11.3-8.9-14.5-13.4-2.6-3.4-4.8-6.2-5.1-6.2-0.3 0-3.9 3.8-8 8.6-4.1 4.8-10.9 11.9-15.1 15.8-4.1 3.9-11.1 9.8-15.5 13.1-4.3 3.3-12 8.7-16.9 12-5 3.3-12.4 7.6-16.5 9.7-4.1 2-10.3 4.6-13.8 5.7-3.4 1.2-12.8 3.7-21 5.6-8.1 1.9-17.8 3.9-21.7 4.4-3.9 0.6-10.5 1.1-14.8 1.1-4.2 0-11.2-0.5-15.5-1.1-4.2-0.6-15.1-2.8-24.2-5-9.8-2.4-19.3-5.4-23.5-7.4-3.9-1.8-11.3-6.3-16.5-10-5.2-3.7-11.7-8.8-14.3-11.3-2.7-2.6-6.2-6.6-10.7-13.2l-8.3 4.4c-4.5 2.5-12.3 6.2-17.2 8.4-4.9 2.2-13.3 5.4-18.5 7.2-5.2 1.7-18.5 5.3-29.5 8-11 2.6-24.5 5.3-30 6-6.5 0.8-16.2 1.1-28 0.7-16-0.5-19.8-0.9-33.5-4.1-8.5-2-18.9-4.6-23-5.7-4.1-1.1-12-4.2-17.5-6.8-5.5-2.7-13.4-7.1-25-15l-5 4.3c-2.8 2.4-9.3 7.3-14.5 11-5.2 3.7-13.8 8.8-19 11.4-6.9 3.3-14.2 5.7-27 8.9-9.6 2.3-21.6 4.8-26.5 5.4-4.9 0.6-11.5 0.8-14.5 0.5-3-0.4-11.3-2-18.5-3.7-7.2-1.7-14.8-3.9-17-4.9-2.2-1-8.3-4.9-13.5-8.7-8.3-6-10.6-8.4-17.8-18.3-4.5-6.3-10.8-16.6-14-22.7-3.1-6.2-5.9-11.3-6.2-11.2-0.3 0-3 3.4-6 7.7-3.6 5-7.9 9.4-12.5 12.8-3.8 2.8-8.8 6.1-11 7.2-2.2 1.2-9.6 3.5-16.5 5.2-6.9 1.7-15.7 3.5-19.5 4-3.8 0.4-9.5 0.5-12.5 0-3-0.5-11.2-2.2-18.3-3.9-7-1.7-15.1-4.3-18-5.7-2.8-1.5-9.5-5.7-14.7-9.4-5.2-3.8-11.3-8.8-13.6-11.2-2.3-2.3-7.1-8.6-10.8-13.8-3.7-5.2-8.1-12.2-9.7-15.5-1.6-3.3-4.6-12.5-6.6-20.5-3.2-12.3-3.7-16.1-3.7-25 0-6 0.8-14.1 1.8-19 1-4.7 3.6-15.9 5.7-25 2.2-9.1 5.6-21.9 7.5-28.5 1.9-6.6 6-19.6 9-29 3-9.4 5.3-17.1 5-17.3-0.3-0.1-3.1 4.4-6.2 10-3.1 5.7-8.3 14.1-11.4 18.8-3.2 4.7-8.6 12.4-12.1 17.1-3.5 4.8-10 12.8-14.4 17.8-4.4 5.1-12.1 12.9-17 17.3-4.9 4.4-13.3 11.2-18.5 15.2-5.2 3.9-15.1 10.8-22 15.4-6.9 4.6-18.3 11.2-25.5 14.7-7.2 3.5-17.5 7.9-23 9.8-5.5 1.9-15.1 4.7-32.7 9.2l-6.4 12.5c-3.5 6.9-9.1 16.8-12.5 22-3.4 5.2-9.9 14.6-14.5 20.7-4.6 6.2-12.1 15-16.7 19.4-4.5 4.5-13.4 11.9-19.7 16.4-6.3 4.5-15.1 10.3-19.5 12.8-4.4 2.6-11.6 6-16 7.6-4.4 1.6-16.1 4.8-26 7.2-17.4 4.2-18.6 4.3-34.5 4.4-15.7 0-17.2-0.2-31.5-3.7-8.3-2-17.5-4.6-20.5-5.8-3-1.2-9.8-5-15-8.5-5.2-3.5-11.5-8.1-14-10.3-2.5-2.1-7.4-7.9-10.9-12.8-3.6-4.9-7.9-11.6-9.6-14.9-2.1-3.9-4.5-11.5-6.9-22-2-8.8-3.9-16.9-4.1-18-0.4-1.7-1.8-0.7-9.2 6.3-4.8 4.6-12 10.7-15.8 13.7-3.8 2.9-12.1 8.7-18.3 12.9-6.1 4.2-15.1 9.6-20 12-4.8 2.4-12.1 5.5-16.2 6.9-4.1 1.4-15.2 4.4-24.5 6.6-9.3 2.2-21.1 4.5-26 5.2-5.5 0.7-14.3 0.9-22.5 0.6-7.4-0.3-17.3-1.3-22-2.2-4.7-0.9-14.1-3-21-4.7-6.9-1.6-15.2-3.9-18.5-5-3.3-1.2-9.4-3.8-13.5-5.8-4.1-2.1-12.7-7.5-19-12-6.3-4.5-13.2-9.8-15.3-11.8-2.1-2.1-7.2-8.2-11.2-13.7-4-5.5-8.4-11.9-12.5-18.5l-7.1 10.2c-4 5.7-9.8 13.4-12.9 17.3-3.2 3.9-8.6 9.7-12.1 13.1-3.5 3.3-10.7 9.2-15.9 13.1-5.2 3.9-13.6 9.7-18.5 12.9-4.9 3.2-13.1 7.7-18 10-4.9 2.3-12.4 5.3-16.5 6.7-4.1 1.3-15.4 4.3-25 6.6-9.6 2.2-20.7 4.5-24.5 5.1-3.8 0.5-14.2 1-23 1-9.3 0-20.2-0.6-26-1.5-5.5-0.9-16.8-3.1-25-5.1-8.3-1.9-18.9-4.8-23.8-6.5-4.8-1.6-12-4.5-16-6.5-3.9-2-12.6-7.3-19.2-11.8-6.6-4.4-15.3-11.3-19.5-15.2-4.1-3.9-11.5-12.7-16.4-19.5-4.8-6.8-10.7-16.2-13.1-20.9-2.3-4.7-5-10.8-5.8-13.5-0.9-2.8-3-10.4-4.6-17-1.6-6.6-3.7-15.8-4.5-20.5-0.9-4.8-1.6-13.8-1.6-20.5 0-6.6 0.6-15.8 1.5-20.5 0.8-4.7 2.8-14.4 4.5-21.5 1.8-7.1 4.1-15.7 5.2-19 1.2-3.3 3.6-9.1 5.6-13 1.9-3.9 6.4-11.3 10-16.5 3.6-5.2 9.1-12.1 12.1-15.4 3.1-3.2 9.7-8.7 14.6-12.1 4.9-3.5 11.2-7.5 14-8.8 2.7-1.4 11.7-4.2 20-6.1 8.2-2 16.5-3.6 18.2-3.6 2.9 0 3.2-0.3 2.8-2.3-0.3-1.2-2.6-10.5-5-20.7-2.5-10.2-5-23-5.6-28.5-0.7-5.5-0.9-15.8-0.6-23 0.3-8.9 1.3-16.8 3.2-25 1.5-6.6 3.7-16.1 5-21 1.2-4.9 4-13.5 6.2-19 2.3-5.5 5.8-13 7.9-16.7 2.2-3.8 7.7-12.3 12.4-19 4.9-7.2 12.5-16.3 18-21.9 5.6-5.7 14.6-13.1 22-18.3 6.9-4.8 16.6-10.7 21.5-13.1 4.9-2.4 11.9-5.3 15.5-6.4 3.6-1.2 13.5-3.7 22-5.6 9.9-2.3 19.5-3.8 26.5-4.1 6.1-0.4 14.8-0.2 19.5 0.4 4.7 0.6 14.6 2.5 22 4.2 7.4 1.7 16.4 4 20 5.2 3.6 1.1 9.2 3.4 12.5 5.1 3.3 1.6 8.8 4.9 12.2 7.3 3.5 2.4 6.4 4.4 6.5 4.4 0.2 0 4.1-2.5 8.8-5.6 4.7-3.1 11-6.9 14-8.4 3-1.5 9.6-4.2 14.5-6 4.9-1.7 17.3-5.1 27.5-7.5 10.2-2.4 22.1-4.8 26.5-5.4 4.4-0.5 12.3-1.3 17.5-1.6 5.2-0.4 14-0.2 19.5 0.4 5.5 0.6 17.4 2.8 26.5 5 9.1 2.1 19.7 5.3 23.5 7.1 3.8 1.7 9.7 5 13 7.2 3.3 2.3 9.3 6.6 13.4 9.7 5.4 4.1 9.4 8.3 14.6 15.6 4 5.5 8.4 12 12.2 19l5.6-8c3-4.4 6.6-8.9 7.9-10.1 1.2-1.1 5.5-4.3 9.3-7.1 3.8-2.7 9-6 11.5-7.3 2.5-1.2 11.2-3.8 19.5-5.7 12-2.8 16.2-3.4 21-2.9 3.3 0.3 13.2 2.4 22 4.6 9.6 2.4 18.8 5.3 23 7.4 3.8 1.9 11.9 7 18 11.3 6 4.3 13.6 10.4 22.5 19.3l9.7-7.2c5.4-3.9 12.7-8.9 16.3-11.1 3.6-2.2 11.9-6.6 18.5-9.8 6.6-3.1 16.1-7.1 21-8.8 4.9-1.6 14.2-4.3 20.6-5.8 11.3-2.7 11.6-2.9 16.1-7.8 2.5-2.8 9.4-8.5 15.4-12.7 6-4.2 13.8-9 17.4-10.6 3.6-1.6 13.5-4.6 22-6.6 8.5-1.9 17.9-3.6 20.7-3.6 2.9 0 11.3 1.4 18.5 3.1 12.4 2.9 13.9 3.5 21.3 8.8 5.3 3.8 9.4 7.7 12.5 11.9 2.5 3.5 5.3 7.7 6.3 9.5 1.7 3 2.5 3.4 16.5 6.9 8.1 2 19.2 5.5 24.7 7.7 5.5 2.3 12.9 5.9 16.5 8 3.6 2.1 11.7 7.6 18 12.1 6.3 4.5 14.2 10.9 23.5 20.2l7.5-5.5c4.1-3 12.7-8.8 19-13 6.3-4.1 16.7-10.2 23-13.4 6.3-3.3 16.4-7.9 22.5-10.3 6.1-2.4 15.3-5.6 20.5-7.2 5.2-1.6 17.8-4.9 28-7.3 10.2-2.4 22.6-5.1 27.5-5.9 4.9-0.9 16-2.1 24.5-2.8 11.8-0.9 19.5-0.9 32 0 9.1 0.7 20.3 1.9 25 2.8 4.7 0.8 15.7 3.3 24.5 5.4 8.8 2.1 20.1 5.3 25 7 4.9 1.8 12 4.8 15.7 6.6 3.8 1.9 12.3 7.1 19 11.6q12.3 8.2 22.4 18.2c6.8 6.8 12.6 14 18 22.1 4.4 6.6 9.5 15.6 11.3 20 1.9 4.4 4.5 12.8 6 18.6 1.4 5.9 2.9 10.9 3.3 11.3 0.5 0.3 1.6-1.3 2.6-3.7 1-2.3 3.8-7.6 6.2-11.7 2.3-4.1 8.6-13.6 13.8-21 5.3-7.4 13.9-17.9 19.2-23.4 5.2-5.4 13.6-12.9 18.5-16.6 4.9-3.7 13.3-9.5 18.5-13 5.2-3.4 12.4-7.7 16-9.5 3.6-1.8 9.9-4.5 14-6 4.1-1.4 13.6-4.2 21-6 7.4-1.9 17.6-4.1 22.5-5 4.9-0.8 14.2-1.5 20.5-1.5 6.3 0 15.6 0.7 20.5 1.5 4.9 0.9 15.2 3.2 22.7 5 7.6 1.9 16.6 4.9 20 6.6 3.5 1.7 10.4 5.9 15.3 9.4 4.9 3.5 10.4 7.6 12.2 9.2 1.7 1.5 6.3 7.3 10.3 12.8 3.9 5.5 8.2 12.2 9.6 15 1.3 2.7 4.3 12.4 10.9 38l-0.2 38-4.6 18c-2.8 10.6-6.1 21.1-8.3 25.5-1.9 4.1-6.5 11.8-10.2 17-3.6 5.2-8.7 11.7-11.2 14.4-2.5 2.7-9 8-14.5 11.9-5.5 3.9-10.1 7.1-10.2 7.1-0.1 0.1 1.2 5.7 2.8 12.6q3 12.5 2.9 19.5c-0.1 3.9-0.1 7.3-0.1 7.7 0.1 0.5 2.9-1.2 6.3-3.6 5.2-3.6 8.3-4.9 17-7 6-1.4 12.3-2.6 14-2.6 1.8 0 5.5 0.6 8.3 1.4 3.3 0.9 8.3 1.1 15 0.8 8.8-0.4 11.7-0.1 24.5 2.8 8 1.8 16.5 4.3 19 5.5 2.5 1.2 8.3 4.9 13 8.3 6.8 4.9 9.7 7.7 14.5 14.7 3.3 4.7 6.5 9.4 7.2 10.3q1.2 1.7 2.1 0.7c0.5-0.6 5.6-9.3 11.3-19.5 5.6-10.2 16.4-30.6 24-45.5 7.6-14.9 18.9-37.6 36.5-74l-2.4-11.5c-2-9.6-2.4-14.6-2.6-30-0.1-17.8 0-19 3.2-32 1.9-7.4 4.7-17.6 6.3-22.5 1.6-4.9 4.8-12.4 7.2-16.5 2.3-4.1 7.8-12.7 12.2-19 4.4-6.3 11.8-15.3 16.5-20 4.7-4.7 13.9-12.3 20.5-16.9 6.6-4.6 16.1-10.3 21-12.7 6.3-3 13.9-5.5 25.5-8.3 9.1-2.1 17.6-4.2 19-4.4 1.4-0.3 7.4-0.4 13.5-0.2zm-2773.5 15.7c1.9-0.1 8 0.3 13.5 0.8 5.5 0.6 18.3 3 28.5 5.4 10.2 2.4 22.1 5.8 26.5 7.6 4.4 1.7 11.2 5 15 7.3 3.8 2.2 11.7 7.5 17.5 11.6 5.8 4.2 13.2 10.3 16.5 13.6 3.3 3.4 9.8 11.5 14.3 18.1 4.6 6.5 10.1 15.5 12.2 19.9 2.5 5.1 5.4 14.1 8.2 25 4 16 4.2 17.8 4.2 31.5 0 13.1-0.3 15.8-3.3 28-1.8 7.4-4.4 17.1-5.8 21.5-1.4 4.4-4.3 11.5-6.4 15.7-2.2 4.3-7.5 13.1-11.8 19.5-4.4 6.5-11.5 16.1-15.8 21.3-4.3 5.2-12.6 13.7-18.3 18.8-5.8 5.1-17.6 14.4-26.2 20.5-8.7 6.2-20.8 14.3-27 18-6.2 3.8-18.5 10.4-27.3 14.7-8.8 4.3-22.3 10.3-30 13.3-7.7 3-14.8 5.7-15.8 6.1-0.9 0.3-1.7 0.9-1.7 1.3 0 0.5 3.9 1.9 8.7 3.2 4.9 1.3 14.4 4.3 21.3 6.7 6.9 2.3 16.8 6.1 22 8.3 5.2 2.3 9.9 4.3 10.3 4.4 0.5 0.1 1.8-2.5 3.1-5.8 1.2-3.3 3.5-8.5 5.1-11.5 1.7-3 6.6-10.6 11-16.9 4.4-6.2 10.7-13.9 14-17 3.3-3.1 11.2-9.1 17.5-13.3 6.3-4.2 14.4-8.8 18-10.2 3.6-1.3 12.6-3.9 20-5.7 7.9-1.9 17.2-3.4 22.5-3.6 7.8-0.4 10.9 0 23.7 3.1 8.2 2 16.3 4.3 18 5.2 1.8 0.9 5.5 3.3 13.3 9.2l23.5-0.9c12.9-0.6 25-1.2 26.7-1.4 2.9-0.4 4.5-2.1 12.2-12.8 4.8-6.7 16.2-22.8 25.3-35.7 9-12.9 33.1-47.6 53.5-77 35.8-51.8 37-53.8 40-63 1.7-5.2 4.8-13.1 6.8-17.5 2.1-4.4 7.5-13.4 11.9-19.9 4.5-6.6 11-15.1 14.6-18.9 3.6-3.8 11.4-10.5 17.5-14.7 6.1-4.3 14.8-9.7 19.5-11.9 5.5-2.6 13.9-5.3 23.5-7.7 11.3-2.7 17.9-3.7 27-4.1 11.5-0.5 12.7-0.3 29 3.6 11 2.7 18.8 5.2 22.2 7.1 2.9 1.7 9 5.7 13.5 8.9 4.6 3.3 9.2 7 10.4 8.3 1.1 1.3 4.3 5.4 7 9.3 2.8 3.8 6.2 9 7.7 11.5 1.5 2.6 4.2 10.6 6.3 19 1.9 8 3.5 16.3 3.5 18.5 0 2.2-1.2 8.9-2.7 15-1.4 6-3.1 12.1-3.6 13.5-0.6 1.4-4.2 7-8.1 12.4-4 5.5-9.7 12-12.7 14.5-3.1 2.5-10.8 8.3-17.3 12.8-10.9 7.7-11.7 8.6-12.2 12-0.3 2.1-1.2 9.7-2 16.8-0.8 7.1-2.4 23.9-3.5 37.2-1.1 13.4-2 26.2-2 28.5 0 3.5 0.9 5.5 4.7 11 2.7 3.7 5.2 7.4 5.8 8.3 0.9 1.4 2 1.3 23-3.8l14.5 3.3c8 1.8 15.8 3.9 17.5 4.8 1.7 0.8 6.6 4 10.9 7.1 5.6 3.9 9.5 7.7 13.1 12.6 2.8 3.9 5.8 8.2 6.8 9.7 0.9 1.6 3 8.4 4.7 15.3 1.7 6.9 3 14.2 3 16.2 0 2.1-1.4 9.9-3.1 17.3-1.8 7.6-4.7 17-6.8 21.5-2 4.4-6.6 12.3-10 17.5-3.5 5.2-10.3 14.7-15 21-4.7 6.3-14.9 18-22.6 25.9-7.7 7.9-18.1 17.8-23 21.9-4.9 4.2-13.1 10.6-18 14.2-4.9 3.7-14.2 10.2-20.5 14.4-6.3 4.3-16.9 10.4-23.5 13.7-9.8 4.9-15.3 6.8-30 10.5-15.6 3.9-19.4 4.6-28.5 4.6-8.7 0-13.3-0.6-26.5-3.7-8.8-2-18.7-5-22-6.6-3.3-1.6-9.9-5.8-14.8-9.4-7.2-5.4-9.9-8.2-15.4-16.3-3.7-5.3-7.7-12.2-8.9-15.2-1.2-3-3.6-11.8-5.3-19.5-1.6-7.7-3.3-16.1-4.1-23.5l-4.8 0.6c-2.6 0.4-4.7 0.7-4.8 0.8 0 0-5 6.6-11 14.6-6 8-13.5 17.6-16.8 21.5-3.3 3.9-8.7 9.9-12 13.5-3.4 3.6-10.4 10.5-15.6 15.3-5.2 4.8-14.4 12.3-20.5 16.7-6.1 4.3-14.2 9.8-18 12.1-3.8 2.3-10.4 5.7-14.5 7.5-4.1 1.8-13.8 4.9-21.5 6.8-7.7 1.9-18 4.2-23 5.1-6.9 1.3-12.5 1.6-24.5 1.2-13.9-0.4-17.3-0.9-32.5-4.7-9.3-2.3-17.6-4.2-18.3-4.3-0.7-0.1-4.5 4.3-8.5 9.8-6.1 8.4-8.9 11.2-17.7 17.8-5.8 4.3-12.6 9-15.3 10.3-2.6 1.3-10.2 3.7-29.2 8.3l-10.5-2.5c-5.8-1.3-11.6-2.9-13-3.5-1.4-0.6-5.9-3.7-10-6.8-4.1-3.2-11.3-8.7-16-12.2-4.7-3.6-13-9.2-18.5-12.4-5.5-3.2-16.3-8.9-24-12.6-7.7-3.6-19.2-8.7-25.5-11.2-6.3-2.5-17.6-6.5-25-9.1-7.4-2.5-20.3-6.5-43.5-13.4l-8.5 5.9c-4.7 3.3-12.1 7.7-16.5 9.9-5.3 2.6-12.6 5-21.5 7.1-7.4 1.7-15.5 3.3-18 3.6-3 0.3-8.4-0.4-16-2.2-6.3-1.4-13.8-3.3-16.5-4.2-2.8-0.8-9.5-4.5-15-8.1-5.5-3.6-12.4-8.9-15.4-11.7-2.9-2.7-8.6-9.5-12.5-15-4-5.5-8.8-12.7-10.8-16-2-3.3-5.1-9.4-6.8-13.5-1.7-4.1-4.6-13.8-6.5-21.5-1.8-7.7-3.8-16.7-4.4-20-0.6-3.3-1.1-8.5-1.1-11.5 0-3 1.6-12.3 3.6-20.5 1.9-8.3 4.3-16.8 5.3-19 1-2.2 4.7-7.8 8.2-12.5 4.1-5.4 8.9-10.4 13.4-13.7 3.8-2.9 9.7-6.7 13-8.4 3.7-2 11.9-4.7 21.5-7.1 8.5-2.1 17.8-4.2 20.7-4.6 5.2-0.7 5.2-0.7 3.4-2.7-1-1.1-4.3-5.6-7.3-10-3.1-4.4-6.5-9.8-7.6-12-1.1-2.2-3.4-9.9-5.1-17-1.8-7.7-3.1-15.7-3.1-19.8 0-4.3 1.3-11.9 3.5-21.2 1.9-8 4.2-16 5.1-17.8 0.9-1.7 4.5-7.3 7.9-12.2 3.4-5 8.7-11.3 11.6-14 3-2.8 9.2-7.6 13.9-10.7 7.4-5 9.9-6 30.5-10.9l12 3c6.6 1.6 12.3 2.6 12.6 2.3 0.4-0.4 5-11.5 10.2-24.7 5.3-13.2 12.5-30.5 16-38.5 3.5-8 9.2-20.1 12.7-27 3.4-6.9 9.8-17.7 14.1-24 4.3-6.3 10.2-14.3 13.1-17.7 2.9-3.4 8-8.3 11.3-11 3.3-2.6 10.5-7.8 16-11.5 5.5-3.7 12.8-7.9 16.3-9.3 3.4-1.4 13.1-4.1 21.4-6.1 8.4-2 18-3.9 21.3-4.4 3.3-0.4 7.6-0.8 9.5-0.8z"/>
		<path id="Path 3" class="s3" d="m3252 111.2c4.1-0.1 10.4 0.4 14 1.2 3.6 0.7 8.5 2.4 11 3.6 2.5 1.3 6.1 3.5 8 5 1.9 1.5 4.7 5.1 6.3 8.1 1.9 3.9 2.7 6.9 2.7 10.6 0 2.9-0.9 8.1-2.1 11.5-1.1 3.5-4.2 10.4-6.7 15.3-2.6 4.9-9.9 16.9-28.1 44l7 37.5c3.8 20.6 8.7 47.9 10.9 60.5 2.2 12.6 4.9 29.5 6 37.5 1.1 8 2.2 16 2.5 17.7 0.5 3.2 2.2 1.2 45.9-51.5 43-51.8 45.5-55 46.7-60.2 0.6-3 2.9-10.7 5.1-17 2.2-6.3 5.9-15.6 8.2-20.5 2.3-4.9 5.9-11.7 8-15 2.1-3.3 6.2-8.9 9-12.4 2.8-3.5 8.5-9 12.6-12.4 4.1-3.3 11.1-7.7 15.5-9.8 4.4-2 11.4-4.5 15.5-5.4 4.2-0.9 11.7-1.7 17-1.7 6.9 0 11.3 0.6 16 2.1 3.6 1.1 8.7 3.8 11.5 5.8 2.7 2.1 6.2 5.8 7.7 8.3 1.5 2.5 3.4 7.1 4 10.2 1.1 4.7 1.1 6.7 0 10.5-0.7 2.7-2.9 7.3-4.9 10.3-2 3-15.7 17.4-57.3 58.5l-3.5 16c-1.9 8.8-4.5 22.1-5.9 29.5-1.4 7.4-3.6 20.7-5 29.5-1.4 8.8-3.7 24.8-5 35.5-1.4 10.7-3.4 28.7-4.5 40-1.2 11.3-2.5 28.7-3.1 38.8-0.8 14.2-0.7 18.8 0.3 21 0.8 1.8 2.4 3 4.7 3.6 2.9 0.7 4.4 0.4 9.5-2.2 3.3-1.6 8.5-4.9 11.5-7.2 3-2.4 8.8-7.3 12.9-10.9 4.1-3.6 11.9-11.5 17.4-17.6 5.5-6.1 14.3-16.7 19.6-23.8 8.9-11.8 9.8-12.7 12.8-12.7 1.8 0 5.9 1.4 14.8 6.2l6-1.9c4.3-1.3 9.2-1.8 17.1-1.8 10.3 0 11.4 0.2 17 3 4.9 2.5 6.5 4 12.9 14.8l23-0.7c12.6-0.3 35.4-1.3 78-3.6l2.8-3.2c1.5-1.8 14.2-19.3 28.1-38.8 13.9-19.5 45.2-64.2 69.5-99.3 43.4-62.6 44.2-63.9 47.2-73.5 1.8-5.3 4.5-12.6 6.1-16.2 1.7-3.6 5-9.7 7.5-13.5 2.5-3.8 6.4-9.2 8.7-11.8 2.3-2.7 7.2-7.3 11.1-10.2 3.9-3 10.4-7 14.5-8.9 4.1-2 10.6-4.3 14.5-5.1 3.9-0.8 11.3-1.5 16.5-1.5 5.5 0 12 0.7 15.5 1.6 3.3 0.8 8.2 2.7 10.9 4.2 2.7 1.5 6.9 4.7 9.4 7.2 2.5 2.5 5.8 7.2 7.5 10.5 1.6 3.3 3.2 8.3 3.4 11 0.4 3.8 0.1 6-1.5 9-1.1 2.2-4.4 6.4-7.3 9.2-3 2.9-7.9 7.1-10.9 9.4-3 2.3-11.5 8.2-32 21.9l-1.1 6.8c-0.6 3.7-1.9 12.8-2.9 20.2-1.1 7.4-2.8 22.7-4 34-1.1 11.3-2.9 32.9-4 48-1.1 15.1-2 29.5-2 32 0 4.5 0 4.5 4.7 6.2 2.7 0.9 6.3 2.9 8.2 4.5 1.8 1.5 4.3 4.6 5.5 6.8 1.6 3.2 2 5.8 2 13 0 6.8-0.6 10.5-2.2 15-1.2 3.3-3.7 8.4-5.5 11.3-1.7 2.9-6 8.3-15.6 18.7l0.8 14c0.6 9.8 1.3 15 2.4 17.3 1.5 2.8 2.2 3.2 5.4 3.2 2.2 0 6.4-1.4 9.8-3 3.3-1.7 9.8-5.9 14.5-9.4 4.7-3.5 14.6-12.6 22-20.2 7.4-7.7 17.6-19.2 31.5-37.6l4.2 0.6c2.4 0.3 5.8 1.3 7.5 2.2 1.8 0.9 4.1 2.4 5.2 3.3 1 0.9 2.7 3.3 3.7 5.4 1 2 1.9 5.2 1.9 7 0 1.7-0.9 6.1-2 9.7-1 3.6-4 10.1-6.5 14.5-2.5 4.4-8.5 13.2-13.3 19.5-4.8 6.4-15.7 18.6-24.7 27.6-8.8 8.8-20.7 19.8-26.5 24.4-5.8 4.6-15.2 11.5-21 15.3-5.8 3.8-14.3 8.8-19 11.2-4.7 2.3-11.6 5.4-15.5 6.8-3.9 1.3-10.3 3-14.3 3.6-5 0.8-9.9 0.8-16 0.1-4.8-0.5-10.5-1.6-12.7-2.3-2.2-0.8-5.8-2.3-8-3.5-2.2-1.1-5.6-3.8-7.6-5.9-2-2.1-4.7-5.8-5.9-8.3-1.2-2.5-2.9-7.4-3.6-11-0.9-4.1-1.3-12.7-1.3-23.5 0.1-9.4 0.4-22.7 1.4-42.5h-3.5c-1.9 0-8.4 0.5-14.5 1-6.1 0.6-23.4 1.7-38.5 2.5-15.1 0.8-28.2 1.5-29 1.5-0.8 0-6.1 6.4-11.7 14.2-5.7 7.9-15.1 20.4-21 27.8-5.9 7.4-17.3 20.1-25.3 28.1-8 8-17.9 17.1-22 20.1-4.1 3-11.1 7.6-15.5 10.1-4.4 2.6-11.6 6-16 7.6-4.4 1.6-12.1 3.7-17 4.6-7.1 1.4-12.5 1.6-25 1.2-13.5-0.4-17.4-0.9-25-3.2-4.9-1.4-11.9-4.2-15.5-6.1-3.6-1.8-8.8-5.3-11.7-7.6-2.8-2.4-7.5-7.2-10.3-10.8-2.9-3.6-6.7-9.6-8.6-13.5-1.8-3.9-4.5-11.5-5.9-17-1.4-5.5-2.5-11.6-2.5-13.5 0-1.9-0.2-3.8-0.5-4.2-0.3-0.5-4.7 2.9-9.8 7.3-5 4.5-12.6 10.8-16.7 13.9-4.1 3.1-11.8 8.5-17 12-5.2 3.4-14 8.4-19.5 11-5.5 2.7-13.6 5.9-18 7.1q-8 2.1-16.5 2.1c-4.7 0-11.2-0.5-14.5-1.2-3.3-0.7-8-2.2-10.5-3.5-2.5-1.2-6-3.8-7.9-5.6-1.8-1.9-4.3-5.2-5.4-7.4-1.1-2.2-2.6-6.2-3.3-9-0.8-2.7-1.7-9.3-2-14.5-0.3-5.2-0.1-18.1 0.5-28.5 0.6-10.4 2.3-26.9 3.7-36.5 1.4-9.6 4.3-26.3 6.4-37 2.2-10.7 6-28.1 8.4-38.5 2.4-10.4 4.2-19.2 4-19.5-0.2-0.3-1.1 0.2-1.8 1-0.7 0.8-15.2 18.6-63 77.5l-0.8 9c-0.5 4.9-2 13.3-3.4 18.5-1.4 5.2-4.1 13.3-6 18-1.9 4.7-5.5 12.1-8.1 16.5-2.5 4.4-7 11.3-10 15.3-2.9 3.9-7.9 9.8-11.1 13-3.1 3.2-8.6 8-12.2 10.6-3.6 2.7-8.8 6-11.5 7.3-2.8 1.4-7.5 3.4-10.5 4.5-3 1-8.9 2.1-13 2.5-4.1 0.3-10.2 0-13.5-0.6-3.3-0.6-8.7-2.4-12-3.9-3.3-1.6-8-4.6-10.3-6.8-2.7-2.4-5.8-6.8-8-11.4-3.3-6.5-3.7-8.5-4.1-16.5-0.3-6.4 0.1-10.4 1.2-14 0.9-2.7 4-8.4 6.9-12.5 2.9-4.1 11.4-13.8 32.8-35.5l-1-12.5c-0.6-6.9-2-22.2-3.1-34-1.1-11.8-3.1-30.7-4.5-42-1.3-11.3-2.4-20.9-2.4-21.5q0-1-0.9 0c-0.5 0.6-4.6 9.8-9.1 20.5-4.5 10.7-11.4 26.5-15.2 35-3.9 8.5-11.2 24.1-16.4 34.5-5.1 10.4-13.1 25.8-17.7 34-4.6 8.3-11.4 19.9-15.2 26-3.8 6.1-9.6 14.9-13 19.7-3.3 4.7-8.9 12.4-12.5 17-3.6 4.5-12.1 13.9-19 20.8-6.9 6.9-16.6 15.4-21.5 18.8-4.9 3.5-13.1 8.3-18 10.7-4.9 2.4-12.8 5.5-17.5 6.9-4.7 1.3-12 2.9-16.3 3.5-4.2 0.6-11.2 1.1-15.5 1.1-4.2 0-12-0.7-17.2-1.5-5.2-0.8-12.2-2.3-15.5-3.5-3.3-1.2-8.7-3.5-12-5.3-3.3-1.8-9.1-6.1-12.9-9.7-3.7-3.6-8.6-9.4-10.7-13-2.1-3.6-4.9-9.9-6.3-14-1.4-4.1-3-11.1-3.6-15.5-0.6-4.4-1.5-9.2-2.5-13.4l-10 8c-5.5 4.5-16.1 12.1-23.5 17.1-7.4 5-20.3 12.3-28.5 16.4-8.3 4-21.1 9.4-28.5 11.8-7.4 2.4-18.2 5.5-24 6.7-9.2 2-13.3 2.3-33.5 2.4-18.8 0-24.5-0.3-31.5-1.9-4.7-1-12.6-3.3-17.5-5-4.9-1.8-11.9-4.8-15.5-6.8-3.6-2-9.9-6.2-14-9.5-4.1-3.3-9.1-7.9-11.1-10.4-2-2.4-5.5-7.3-7.8-10.9-2.3-3.6-5.6-10.1-7.2-14.5-1.7-4.4-3.8-11.4-4.5-15.5-0.8-4.1-1.5-12.4-1.5-18.5 0-6.5 0.7-14.3 1.6-19 0.9-4.4 2.8-10.9 4.2-14.5 1.3-3.6 4.2-9.9 6.4-14 2.1-4.1 6.8-11.3 10.3-16 3.5-4.7 10.9-12.9 16.5-18.3 5.5-5.3 13.4-12 17.3-14.8 4-2.8 11.8-7.6 17.3-10.7 5.5-3 10.1-5.7 10.2-5.9 0.2-0.2-2-3.3-4.9-7-2.8-3.8-7.3-11.3-9.9-16.8-2.7-5.5-6-14.3-7.3-19.5-1.3-5.2-3-14.2-3.6-20-0.7-6-0.9-14.3-0.5-19.5 0.3-4.9 1.6-13.3 2.7-18.5 1.1-5.2 3.4-13.3 5-18 1.7-4.7 5-12.3 7.3-17 2.3-4.7 7.1-12.8 10.6-18 3.5-5.2 11.1-14.4 16.9-20.4 5.8-5.9 14.3-13.7 19-17.2 4.7-3.5 13.2-8.8 19-11.8 5.8-3 14.6-6.8 19.5-8.5 4.9-1.6 13.3-3.8 18.5-4.7 7.2-1.2 13.1-1.5 24.5-1.1 10.6 0.4 17.3 1.1 23 2.6 4.4 1.1 11.3 3.8 15.4 5.8 4.4 2.2 9.8 6.1 13.1 9.3 3.6 3.6 6.9 8.2 9.3 13 2.1 4.1 4.4 10.9 5.3 15 1.2 5.8 1.5 11.2 1.1 23.5-0.4 10.5-1.1 18.1-2.2 22-0.9 3.3-2.8 8.7-4.2 12-1.4 3.3-4.3 8.7-6.3 12-2.1 3.3-6.8 8.8-10.4 12.3-3.8 3.6-9.5 7.7-13.6 9.7-3.9 1.9-9.8 4.2-13.3 5-3.4 0.8-9.1 1.5-12.7 1.5-3.6 0-8.1-0.4-10-1-1.9-0.5-5-2.4-10.2-7.5l3-7.5c1.7-4.1 4-11.1 5.1-15.5 1.2-4.4 2.4-12.1 2.7-17 0.4-5.3 0.2-11.5-0.5-15-0.6-3.3-2-7.6-3-9.5-1-1.9-3.3-4.5-5.2-5.8-2-1.3-4.9-2.2-6.9-2.2-1.9 0-5.5 1-8 2.1-2.5 1.2-6.8 4.5-9.5 7.3-2.8 2.9-6.7 8.1-8.8 11.7-2 3.5-5.1 10-6.8 14.4-1.7 4.4-4 11.4-5 15.5-1.1 4.1-2.5 12.4-3.1 18.5-0.9 8.4-0.9 14.1 0 24 0.6 7.2 2.5 18.1 4.1 24.5 1.6 6.3 3.4 12.7 4 14.3 0.9 2.3 1.5 2.6 3.8 2.1 1.6-0.3 8-1.2 14.3-2 6.3-0.7 16.1-1.4 21.7-1.4 5.7 0 12.7 0.5 15.5 1.1 3.8 0.9 6.3 2.2 12.3 8.2l-0.6 8.6c-0.4 5.5-1.5 11.3-3.2 16.1-1.5 4.1-4.2 10-6 13-1.7 3-6.3 8.6-10.2 12.5-5 5.1-9.2 8.2-14.5 10.8-5.7 2.9-9.2 3.9-14.5 4.3-5 0.5-8.9 0.1-13.5-1.1-3.6-0.9-9.2-3.1-12.5-4.7-3.3-1.7-7.7-4.1-9.8-5.4-2-1.3-4.1-2.3-4.6-2.2-0.6 0.2-3.1 3-5.6 6.3-2.6 3.3-6.9 10.5-9.6 16-2.7 5.5-5.8 13.6-6.9 18-1.1 4.4-2 10.7-2 14 0 3.3 0.7 8.9 1.6 12.5 0.8 3.6 2.7 8.7 4.2 11.4 1.5 2.7 4.5 6.5 6.7 8.4 2.2 2 6.7 4.9 10 6.4 3.8 1.8 9.3 3.2 15 4 7 0.9 11.2 0.9 19 0 5.5-0.7 14.1-2.4 19-3.8 4.9-1.4 13.3-4.4 18.5-6.6 5.2-2.2 12.4-5.6 16-7.6 3.6-2 9.4-5.4 13-7.6 3.6-2.2 10.8-7.1 16-11 5.2-3.8 13.6-10.4 18.5-14.6 4.9-4.2 13-11.9 17.9-17.1 4.8-5.2 12-13.6 23.1-28.2l4 0.5c2.2 0.2 5.4 1.1 7 1.9 1.9 0.9 4.1 1.2 6 0.8 1.6-0.4 6.8-0.7 11.5-0.8 4.9-0.1 10.6 0.5 13.5 1.3 2.7 0.8 6.8 2.8 9 4.3 2.2 1.6 5 4.6 6.2 6.6 2.1 3.4 2.2 4 0.9 6.4-0.8 1.6-3.2 8-5.4 14.3-2.1 6.3-5 15.8-6.3 21-1.7 7.3-2.3 12.4-2.3 22 0 8.4 0.4 13.8 1.4 16.5 0.7 2.2 2.8 5.5 4.4 7.3 2.1 2.3 4.9 3.9 8.6 4.9 3.1 0.9 7.7 1.4 10.5 1.1 2.8-0.2 7.7-1.7 11-3.3 3.8-1.9 9.3-6.1 15-11.6 4.9-4.7 12.6-13.3 17.1-19 4.5-5.7 11.1-14.7 14.7-19.9 3.5-5.2 10.1-15.4 14.4-22.5 4.4-7.1 12.1-20.2 17-29 5-8.8 15-27.5 22.4-41.5 7.3-14 20.3-40.1 28.9-58 8.6-17.9 16.4-34.3 17.4-36.5 1.8-3.9 1.8-4.2-0.7-16-1.5-6.6-3.2-16.5-3.8-22-0.7-5.6-0.9-15.3-0.6-22 0.3-7.9 1.3-14.6 2.7-19.5 1.2-4.1 3.8-11.1 5.9-15.5 2-4.4 5.9-11.4 8.6-15.5 2.8-4.1 8.8-11.3 13.5-16.1 4.7-4.7 12.3-11.1 17-14.1 4.7-3.1 11.2-6.7 14.5-8.1 3.3-1.4 8.5-3.2 11.5-4.1 3-0.8 6.9-1.7 8.5-1.9 1.6-0.2 6.4-0.5 10.5-0.5zm-1121.8 4.1c6.7 0.2 8.1 0.5 10.3 2.7 1.5 1.5 3 4.4 3.5 7 0.5 2.5 0.9 7.8 1 19l3.2 0.5c1.8 0.2 6 0.7 9.3 1 3.3 0.4 11.4 1.7 18 3 6.6 1.3 16.7 4 22.5 6 5.8 2 14.6 5.8 19.5 8.3 4.9 2.6 12.4 7.2 16.5 10.3 4.1 3 10.2 8.4 13.4 12 3.3 3.5 8.5 10.2 11.5 14.9 3 4.7 7 12.1 8.8 16.5 1.8 4.4 4 11.2 5 15.1 1 4 2.1 7.5 2.5 7.8 0.5 0.3 2.2-1.8 3.9-4.7 1.8-2.8 5.2-7.9 7.7-11.2 2.5-3.3 8.2-9.8 12.6-14.4 4.5-4.5 11.5-11.1 15.6-14.5 4.1-3.5 10.7-8.5 14.5-11.2 3.8-2.8 10.8-7.3 15.5-10.1 4.7-2.8 11.7-6.7 15.5-8.6 3.8-1.9 11.1-5.2 16-7.2 4.9-2.1 12.8-5.1 17.5-6.7 4.7-1.6 13.7-4.2 20-5.8 6.3-1.6 15.6-3.6 20.5-4.4 4.9-0.9 16-2.1 24.5-2.8 11.8-0.9 19.5-0.9 32.2 0 9.3 0.7 21.6 2.1 27.5 3.3 6 1.1 15.3 3.6 20.8 5.4 5.5 1.8 14.1 5.3 19 7.8 4.9 2.5 11.7 6.3 15 8.6 3.3 2.3 9.1 7.1 12.9 10.8 3.8 3.8 8.8 9.5 11.2 12.8 2.3 3.3 6.1 9.8 8.3 14.5 2.2 4.7 4.9 12.1 6 16.5 1.2 4.4 2.6 12.3 3.2 17.5 0.6 5.3 0.8 13.9 0.4 19.5-0.3 5.5-1.3 13.6-2.2 18-0.8 4.4-2.8 12.1-4.4 17-1.6 4.9-5.6 14.4-8.8 21-3.3 6.6-9.1 16.7-12.9 22.5-3.9 5.8-10.8 15.2-15.5 21-4.7 5.8-13.6 15.9-19.8 22.6-6.3 6.7-15.6 16-29.9 29.4l5.9 6.7c3.2 3.8 8.9 10.9 12.6 15.8 3.7 4.9 10 14.2 14 20.5 4 6.3 10.7 18 15 26 4.3 8 9 16.1 10.5 18 1.5 1.9 4.3 4.3 6.3 5.2 2.2 1.1 6 1.8 9.2 1.8 3 0 9-0.7 13.2-1.5 4.3-0.8 8.1-1.2 8.5-1 0.5 0.3 1.8 2.4 3 4.7 1.5 3 2.3 6.7 2.6 12.3 0.3 6.4 0 9.3-1.8 14.5-1.2 3.6-4.1 9.4-6.5 13-2.4 3.6-6.3 8.4-8.7 10.6-2.4 2.3-6.6 5.8-9.3 7.9-2.8 2.1-8.4 5.4-12.5 7.5-4.1 2.1-11.2 4.9-15.8 6.4-4.5 1.4-12.8 3.1-18.5 3.7-7.6 0.9-11.9 0.9-17 0-3.7-0.6-8.4-1.9-10.5-3-2-1-5.2-3.1-7.1-4.7-1.8-1.6-5.7-6.5-8.7-10.9-2.9-4.4-10-18.4-15.9-31-5.8-12.6-14.3-30.2-18.9-39-4.5-8.8-10.8-20.1-13.9-25-3-4.9-7.9-11.7-10.7-15-2.8-3.3-7.7-7.9-10.8-10.2-3.1-2.3-7.4-4.9-9.5-5.8-2-0.8-3.9-1.2-4.1-0.8-0.2 0.5-2.2 9.1-4.5 19.3-2.2 10.2-5.6 27.3-7.5 38-1.9 10.7-4.2 25.6-5.1 33-0.9 7.4-2.1 14.3-2.6 15.2-0.5 1-3.3 2.9-6.2 4.3-2.9 1.4-8.5 2.9-12.7 3.4-4.2 0.5-9.9 0.6-13 0.1-3-0.5-7.5-1.6-10-2.5-2.5-0.9-6.7-3-9.4-4.8-2.7-1.8-7.5-5.9-10.5-9.3-3.1-3.3-7.2-9.2-9.3-13-2-3.8-4.4-9.8-5.3-13.4-1.3-4.8-1.6-8.7-1.1-15 0.3-4.7 1.5-13 2.6-18.5 1.1-5.5 3.9-16.5 6.1-24.5 2.2-8 15.7-49.4 29.9-92 14.2-42.6 29.5-89.1 33.9-103.3 4.5-14.1 8.1-25.9 8.1-26.2 0-0.3-2.1-0.2-4.8 0.1-2.6 0.3-8.5 1.9-13.2 3.4-4.7 1.5-11.7 4.3-15.5 6.3-3.8 1.9-11.3 6.3-16.5 9.8-5.2 3.5-14.6 11.3-20.9 17.4-6.2 6-14.6 15.3-18.5 20.5-4 5.2-9 12.6-11.1 16.4-3 5.2-4.8 7.3-7.3 8.3-1.7 0.7-5.8 1.3-9 1.3-3.7 0-7.1-0.7-9.7-2-2.2-1.1-4.2-2-4.5-2-0.3 0-1.1 2.8-1.8 6.2-0.7 3.5-3.1 11.7-5.3 18.3-2.2 6.6-6.6 17.4-9.8 24-3.2 6.6-9.5 17.4-13.9 24-4.4 6.6-12.2 16.9-17.5 23-5.2 6-13 14.2-17.3 18-4.4 3.9-10.6 9.3-13.9 11.9-3.3 2.7-10.9 8.1-17 12.1-6.1 4-15.5 9.5-21 12.2-5.5 2.8-14.3 6.7-19.5 8.8-5.2 2-14.4 5-20.5 6.5-6.1 1.6-15.7 3.4-32 5.2l-2.2 6.1c-1.2 3.4-4.6 11.6-7.5 18.2-3 6.6-7.9 16.3-11 21.5-3.1 5.2-8.5 13.5-11.9 18.4-3.5 4.9-10 12.6-14.4 17.1-4.4 4.5-11.8 11-16.5 14.4-4.7 3.5-13 8.5-18.5 11.2-5.5 2.7-14.5 6.1-20 7.5-7.3 1.9-13.6 2.7-23.5 3.1-10.5 0.4-15.4 0.2-22-1.1-4.7-1-11.8-3.3-15.8-5.2-4.4-2.1-9.6-5.7-13.3-9.2-4.5-4.2-7.2-7.8-10-13.7-2.7-5.5-4.3-10.5-5.1-16-0.9-5.9-0.9-9.7-0.1-14.5 0.5-3.6 2.3-9.2 3.9-12.5 1.6-3.2 5.2-8.4 8-11.5 2.8-3 7.8-6.9 11-8.7 3.2-1.7 7.7-3.5 9.9-3.9 3.9-0.7 4.2-0.6 11.5 6 4.1 3.7 10.2 8 13.5 9.6 3.3 1.7 8 3.3 10.5 3.7 3.7 0.5 5.6 0.1 10.2-2 4.1-1.9 7-4.2 10-8 2.2-2.8 6.7-10.6 9.9-17.2 3.1-6.6 7.5-17.4 9.7-24 2.2-6.6 5.2-16.1 6.6-21 1.3-5 4.7-17.6 7.5-28 2.7-10.5 8.1-32.1 12-48 3.8-16 12.6-53.5 19.6-83.5 6.9-30 12.3-54.7 12-55-0.3-0.3-5.6 0.8-11.8 2.4-6.2 1.5-15.9 4.6-21.7 6.8-5.8 2.1-14.8 6.1-20 8.9-5.2 2.7-12.4 7.2-16 9.9q-6.5 4.9-9.5 5c-1.7 0-5.4-1.2-8.4-2.7-3.2-1.7-6.6-4.4-8.3-6.8-1.6-2.2-3.5-6.3-4.3-9-0.9-2.8-1.5-7.5-1.5-10.5 0-3 1.1-8.4 2.3-12 1.2-3.6 3.8-9.2 5.7-12.5 1.9-3.2 7.1-9.5 11.5-14 4.4-4.4 12.3-10.9 17.5-14.4 5.2-3.4 14.4-8.7 20.5-11.6 6.1-2.9 15.7-7 21.5-9 5.8-2 15.7-4.9 22-6.5 6.3-1.5 14-3.1 22.5-4.2l2.5-5.6c1.6-3.5 4.5-7.3 8-10.6 3.1-2.8 8.7-6.8 12.5-8.8 3.9-2 9.5-4.4 12.5-5.2 3.3-0.9 8.6-1.5 13.2-1.3zm-1641.7 12.4c6 0.3 14.8 1.4 19.5 2.3 4.7 1 12.3 3.2 17 4.9 4.7 1.7 12.1 5.1 16.5 7.7 4.4 2.5 11.1 7.1 14.9 10.2 3.8 3.1 9.4 8.8 12.5 12.7 3.1 3.8 7.5 10.6 9.8 15 2.2 4.4 5.1 11.1 6.3 15 1.5 4.7 2.4 10.7 2.7 18.5 0.4 8.6 0.1 13.6-1.1 20-1 4.7-3.3 12.5-5.3 17.5-2 4.9-5.4 12.1-7.6 16-2.2 3.9-6.5 10.4-9.6 14.5-3 4.1-10.5 12.4-16.6 18.5-6.1 6-15.3 14.2-20.5 18.2-5.2 3.9-14.9 10.6-21.5 14.8-6.6 4.3-21 12.1-32 17.5-11 5.4-27.9 12.8-37.5 16.3-9.6 3.6-18.8 6.7-20.5 7.1-1.7 0.3-3.5 1.1-4.1 1.8-0.6 0.7-1.5 2.4-1.9 3.8-0.4 1.4-3.8 8.7-7.6 16.2-3.8 7.6-9.9 18.9-13.6 25-3.6 6.2-9.3 15.2-12.5 20-3.2 4.9-5.7 8.9-5.6 9.1 0.2 0.2 10.9 2.4 23.8 5 12.9 2.5 32.2 7.1 42.7 10.1 10.6 3.1 25 7.8 32 10.6 7.1 2.7 17.1 7.1 22.3 9.7 5.2 2.7 12.7 6.9 16.5 9.5 3.8 2.6 9.8 7.1 13.2 10 3.5 2.9 8.3 7.8 10.8 10.8 2.5 3 6.4 9.1 8.6 13.5 2.3 4.7 4.6 11.3 5.5 16 1.1 5.6 1.4 10.6 0.9 16.5-0.3 4.8-1.6 11.6-3 15.7-1.4 4-4.3 10.1-6.4 13.5-2.1 3.5-5.7 8-8 10-2.3 2.1-5.8 4.8-7.9 6.1-2 1.3-5.2 2.9-7 3.5-3.1 1.2-3.4 1-12-5.9-4.8-3.9-14.3-10.8-21.2-15.4-6.9-4.6-16.8-10.7-22-13.5-5.2-2.9-13.8-7.3-19-9.7-5.2-2.5-14.9-6.7-21.5-9.3-6.6-2.7-18.1-6.9-25.5-9.5-7.4-2.5-21.8-7-32-9.9-10.2-3-25.6-7.1-50-13.1l-4.7 4.6c-2.7 2.6-8.2 7.2-12.3 10.4-4.1 3.1-10.2 7.2-13.5 9.1-3.3 1.8-9.2 4-13 4.9-4.4 1.1-8.9 1.5-12 1.1-2.8-0.3-7.5-1.8-10.5-3.3-3-1.5-8.1-5.2-11.4-8.3-3.2-3-7.8-8.2-10.2-11.5-2.3-3.3-6.1-9.8-8.3-14.5-2.2-4.7-5-12.1-6.3-16.5-1.7-6.1-2.2-10.6-2.3-19 0-9.6 0.4-11.7 2.5-16.4 1.4-3 4.5-7.2 7-9.4 2.5-2.3 6.3-4.9 8.5-5.8 2.2-1 7.2-2.6 11-3.5 5.1-1.2 11.7-1.7 24.5-1.8 9.6-0.1 21.1 0.1 33.5 0.9l6.7-13c3.7-7.2 10.5-21.3 15.1-31.5 4.6-10.2 8.7-19.4 9.1-20.5 0.6-1.8-0.3-2.2-8.6-4.3-5.1-1.3-13.1-4.2-17.8-6.5-6.1-3-10.3-6-15.1-10.7-4.9-4.9-7.1-8-8.8-12.5-1.9-5.1-2.2-7.4-1.9-15 0.4-7.3 1-10 3.1-14.3 1.5-2.8 4.6-7.3 6.9-9.8 2.4-2.6 6-5.9 11.8-10.4l7.7 5.1c4.3 2.8 11.8 7 16.8 9.4 5 2.4 12.6 5.6 17 7 4.4 1.4 8.7 2.5 9.5 2.6 0.8 0 2-1.3 2.7-2.8 0.7-1.5 4.7-12 8.8-23.3 4.2-11.3 11.4-29.9 16-41.5 4.6-11.6 11.1-27.5 14.5-35.5 3.5-8 9.5-21.3 13.5-29.5 4-8.3 9.2-17.9 11.6-21.5 2.4-3.6 6.4-8.9 8.9-11.8 2.5-2.9 7.2-7.4 10.5-10.1 3.3-2.7 8.9-6.5 12.5-8.4 3.6-2 9.7-4.5 13.5-5.6 3.8-1.2 9.9-2.6 13.5-3 3.6-0.5 11.5-0.7 17.5-0.4zm1186 5.5c2.7-0.1 9.1 0.3 14 0.8 4.9 0.5 11.7 1.6 15 2.5 3.3 0.8 10.1 3.5 15 5.9 6.5 3.1 10.8 6.1 15.5 10.7 4.7 4.5 7.8 8.7 10.6 14.4 2.3 4.4 4.9 11.6 5.9 16 1.5 6.7 1.7 10.9 1.2 25-0.3 10.9-1.3 21.1-2.7 28.5-1.1 6.3-3.5 16.9-5.1 23.5-1.7 6.6-6.1 21.2-9.9 32.5-3.7 11.3-12.6 36-19.8 55-7.1 19-14.6 39.7-16.7 46-2 6.3-4.9 16.4-6.5 22.5-1.5 6.1-3.3 15.3-4 20.5-0.6 5.2-0.8 12.4-0.4 16 0.3 3.6 1.5 9.2 2.5 12.5 1.1 3.7 3.3 7.7 5.7 10.5 2.3 2.7 6 5.5 9.3 7 4.6 2.1 6.9 2.4 15.4 2.5 9.6 0 10.3-0.2 18-3.9 6.5-3.2 9.9-5.8 18.1-14 6.6-6.6 12.6-13.8 17.1-20.6 3.8-5.8 9.2-14.8 12-20 2.8-5.2 7.6-15.1 10.6-22 3-6.9 7.7-18.6 10.5-26 2.8-7.4 7.1-20.3 9.7-28.5 2.6-8.3 6.8-23.6 9.5-34 4.8-18.8 4.9-19.1 3.5-25-0.8-3.3-2.4-12.3-3.5-20-1.4-9-2.4-21.3-2.7-34.5-0.4-13.8-0.2-23.8 0.7-30.5 0.7-5.5 2.1-13 3.1-16.8 1.1-3.7 3.2-9.4 4.9-12.7 1.7-3.3 4.9-8.1 7.2-10.6 2.4-2.5 6.5-5.6 9.3-6.9 2.7-1.3 7.7-2.7 11-3 3.9-0.4 8.6-0.1 13.5 0.9 4.1 0.9 11.1 3.3 15.5 5.4 4.4 2.2 11.4 6.6 15.5 9.9 4.1 3.3 9.4 8.4 11.7 11.4 2.3 3 5.4 8.1 7 11.4 2.4 5.2 2.8 7.1 2.7 14.5-0.1 4.7-0.7 11.9-1.4 16-0.7 4.1-2.6 12-4.2 17.5-1.6 5.5-5.8 17.6-9.4 27-4.3 11.7-8.7 26.3-13.8 46.5-4.1 16.2-10.2 38.1-13.6 48.5-3.4 10.4-9.1 26.4-12.7 35.5-3.6 9.1-10.2 24.1-14.7 33.5-4.5 9.4-11.5 22.4-15.5 29-4 6.6-10.6 16.5-14.6 22-4 5.5-11.1 14.3-15.7 19.5-4.7 5.2-12.7 13.1-17.9 17.4-5.2 4.4-13.5 10.6-18.4 13.9-4.9 3.2-12.6 7.6-17 9.7-4.4 2.1-11.6 4.9-16 6.3-4.4 1.4-11.8 3.4-16.5 4.4-6.6 1.4-12.6 1.8-27 1.7-15 0-20.4-0.5-28.8-2.2-5.6-1.2-13.9-3.5-18.5-5.2-4.5-1.6-11.8-5.2-16.2-7.9-4.4-2.7-10.7-7.3-13.9-10.2-3.2-3-7.8-8.1-10.1-11.4-2.4-3.3-5.7-8.8-7.4-12.3-1.7-3.4-4.2-10.1-5.6-15-1.4-4.8-3-13.4-3.6-19.2-0.7-7.3-0.7-13.9 0.1-21.5 0.5-6.1 1.7-15.1 2.6-20 0.8-4.9 2.9-14.4 4.5-21 1.7-6.6 5.4-19 8.3-27.5 2.9-8.5 9-24.9 13.5-36.5 4.5-11.6 11.4-29.8 15.3-40.5 3.8-10.7 8.6-24.2 10.5-30 1.8-5.8 5-16.4 6.9-23.5 2.7-10 3.7-15.6 4.1-24.5 0.5-10.9 0.4-11.7-1.9-15-1.5-2.2-3.8-4-6.3-4.8-2.4-0.8-5.8-1.1-8.5-0.8-2.5 0.4-7.4 2-11 3.7-3.6 1.7-10.3 5.7-15 9-4.7 3.2-11.7 8.6-15.5 11.9-3.8 3.3-7.6 6-8.3 6-0.6 0-3.3-1-6-2.2-2.6-1.2-6.8-4.4-9.5-7-2.6-2.6-6.2-7.8-8-11.6-3-6.3-3.2-7.3-3.2-17.7 0-10.6 0.1-11.3 3.6-18.5 2-4.1 5.6-10 8.1-13 2.4-3 7.6-7.9 11.4-10.8 3.8-2.8 10.7-7.2 15.4-9.6 4.7-2.5 13.2-6 19-7.9 5.8-1.9 14.3-4.2 19-5.1 4.7-0.9 13-2 18.5-2.5 5.5-0.4 12.2-0.9 15-0.9zm-693.5 3.8c6.9 0 12.4 0.5 16 1.6 3 0.9 7.7 2.8 10.5 4.2 2.7 1.4 7.1 4.6 9.6 7.1 2.5 2.5 5.8 7.1 7.4 10.1 1.9 3.8 2.9 7.5 3.3 12 0.4 6.1 0.2 6.8-2.9 11.5-1.9 2.7-7.2 8.1-11.9 11.8-4.7 3.8-14.6 10.9-22 15.9-7.4 5-13.8 9.6-14.1 10.2-0.4 0.6-1.6 6.9-2.8 14.1-1.1 7.1-2.9 20.9-4 30.5-1.1 9.6-2.7 25.6-3.6 35.5-0.8 9.9-2.2 27.9-3 40-0.8 12.1-1.5 22.7-1.5 23.5 0 0.9 1.8 2 4.7 2.8 3.3 1 6.2 2.8 9.4 6 2.9 2.9 5.1 6.2 5.8 8.7 0.6 2.2 1.1 6.7 1.1 10 0 3.3-0.6 8.2-1.3 11-0.8 2.7-3.1 8.3-5.3 12.4-2.1 4.1-6.7 10.5-16.4 21.1v11.2c0 6.2 0.5 13.3 1.1 15.8 0.6 2.5 1.8 5.3 2.7 6.3 0.9 1 3 1.8 4.7 1.7 1.7 0 5.7-1.3 9-2.8 3.3-1.6 9.2-5.3 13-8.2 3.8-2.9 9.9-7.8 13.4-10.9 3.5-3.1 10.9-10.5 16.4-16.6 5.4-6.1 13.3-15.6 17.5-21.2 4.6-6.1 8.4-10.3 9.4-10.3 1 0 3.7 0.5 6 1 2.4 0.6 6.1 2.5 8.3 4.3 2.2 1.9 4.6 4.7 5.3 6.3 0.9 1.8 1.2 5.2 1 8.9-0.3 3.7-1.5 8.5-3.3 12.5-1.6 3.6-4.7 9.4-6.8 13-2.2 3.6-7.1 10.8-11 16-3.9 5.2-15 17.4-24.7 27.1-9.6 9.7-22 21.2-27.5 25.5-5.5 4.4-14.5 10.9-20 14.6-5.5 3.7-14.5 8.9-20 11.6-5.5 2.8-13.8 6.2-18.5 7.7-7 2.3-10.3 2.7-19 2.8-6.5 0-12.9-0.7-16.8-1.7-3.4-0.9-8-2.5-10.2-3.6-2.2-1.1-5.6-3.5-7.6-5.3-2-1.7-4.6-5-5.9-7.2-1.3-2.2-3.2-6.9-4.2-10.5-1.5-5.4-1.8-10.1-1.7-28 0-11.8 0.4-26 1.6-41.5l-8.4 0.7c-4.5 0.4-19.1 1.4-32.3 2.3-13.2 0.8-29.2 1.7-47 2.7l-9.7 13.7c-5.3 7.5-14.4 19.5-20.1 26.6-5.7 7.1-14.3 17.3-19 22.5-4.8 5.2-12.7 13-17.5 17.3-4.8 4.2-12.5 10.4-17.2 13.6-4.7 3.2-11.4 7.3-15 9.1-3.6 1.8-9.7 4.4-13.5 5.7-3.8 1.3-10.6 3-15 3.8-4.6 0.9-13.6 1.5-21 1.5-8.7 0-16-0.6-22-1.9-5-1-11.9-3.1-15.5-4.5-3.6-1.5-9.4-4.6-12.9-6.9-3.5-2.3-9.2-7.2-12.5-10.8-3.4-3.7-8-10.2-10.3-14.5-2.3-4.4-5.3-11.7-6.6-16.4-1.4-4.7-3-13.9-3.7-20.5-0.9-8.9-0.9-14.4-0.1-21 0.6-4.9 2-12.4 3.2-16.5 1.1-4.1 3.8-11.1 6.1-15.5 2.2-4.4 5.9-10.5 8.2-13.5 2.4-3 7-8 10.4-11 3.3-3 9.1-7.2 12.9-9.2 3.7-2 10.4-4.6 14.8-5.8 4.6-1.1 11.2-2 15.5-2 4.5 0 9.7 0.7 12.9 1.7 3 1 7 3.2 9 4.9 2 1.7 4.5 5 7.6 11.7l23-0.7c12.7-0.3 35.6-1.3 51-2.1 15.4-0.9 28.1-1.7 28.1-1.8 0.1-0.1 4.6-6.3 10.1-13.7 5.4-7.4 16-22.1 23.4-32.5 7.5-10.4 35.4-50.5 62-89 47.4-68.3 48.6-70.2 51.3-79 1.5-4.9 4.5-12.6 6.5-17 2-4.4 5.7-10.9 8.1-14.5 2.4-3.6 6.9-9.1 9.9-12.4 3.1-3.2 8.3-7.8 11.6-10.1 3.3-2.4 8.5-5.5 11.5-6.9 3-1.4 8.9-3.4 13-4.5 5-1.3 10.9-2 18-2.1zm495 4.5c7.4 0.2 16.9 1.1 21 2 4.1 0.9 10.9 3 15 4.6 4.1 1.7 10.4 5 14 7.4 3.6 2.3 8.7 6.7 11.5 9.7 2.7 2.9 6.6 8.5 8.7 12.3 2 3.9 4.4 9.9 5.4 13.5 1 3.9 1.7 10.3 1.7 16 0.1 6.4-0.5 11.5-1.7 15.5-1 3.3-3.4 9.1-5.4 12.9-2.2 4.1-5.8 8.9-9 11.8-2.8 2.6-5.6 4.8-6.2 4.8-0.6 0-4.3-2.6-8.3-5.9-3.9-3.2-10.1-7.8-13.7-10.3-3.6-2.4-9.4-6-13-8-3.6-2.1-9.7-4.9-13.5-6.3-3.8-1.5-10.4-3.1-14.5-3.7-5.3-0.7-8.8-0.6-11.8 0.1-2.6 0.7-6 2.7-8.8 5.3-2.6 2.5-5.2 6.2-6.2 8.8-1.1 2.9-1.7 7.3-1.7 12.5 0.1 5.4 0.8 10.4 2.4 15.5 1.3 4.1 4.8 12.4 7.9 18.5 3.1 6.1 8.8 15.9 12.7 22 3.9 6.1 13.1 19.6 20.4 30 7.3 10.4 16.9 24.9 21.4 32 4.4 7.1 10.6 17.9 13.8 24 3.1 6.1 7.1 14.8 8.7 19.5 1.7 4.7 3.8 12.1 4.7 16.5 1.1 5.1 1.7 12.9 1.7 21.5 0.1 8.7-0.5 16.5-1.5 22-0.9 4.7-3 12.3-4.5 17-1.6 4.7-5.3 13.2-8.3 19-2.9 5.8-8.6 14.8-12.5 20-3.9 5.2-11.2 13.3-16.1 18-4.9 4.7-12.9 11.3-17.8 14.6-5 3.4-13.1 8.2-18 10.7-4.9 2.4-12.8 5.8-17.5 7.5-4.7 1.6-13.2 4-19 5.3-9.4 2.2-12.9 2.4-34 2.4-20.6-0.1-24.8-0.4-34-2.4-5.8-1.2-13.9-3.4-18-4.7-4.1-1.4-11.3-4.4-16-6.7-4.7-2.3-11.9-6.7-16-9.8-4.1-3.1-10.2-8.5-13.6-12-3.4-3.5-8.3-9.8-11-13.9-2.7-4.1-6.4-10.9-8.1-15-1.8-4.1-4.2-11.6-5.5-16.5-2-7.8-2.3-11.4-2.3-27.5 0.1-15.9 0.4-19.8 2.3-27.5 1.3-4.9 3.7-12.4 5.3-16.5 1.7-4.1 5-10.6 7.4-14.5 2.4-3.9 6.7-9.4 9.7-12.4 2.9-3 7.3-6.8 9.8-8.3 2.5-1.6 7.4-3.8 11-4.9 3.7-1.1 9.3-1.9 13-1.9 3.6 0 8.7 0.6 11.5 1.5 2.7 0.8 6.5 2.8 11.5 7.5v14.2c0 7.9 0.7 18.8 1.5 24.3 0.8 5.5 2.1 12.5 2.9 15.5 0.8 3 2.8 9.3 4.5 14 1.7 4.7 4.7 11.2 6.7 14.5 1.9 3.3 5.4 8.4 7.7 11.4 2.3 2.9 6.4 7.2 9.2 9.3 2.7 2.2 7.5 5.3 10.5 6.8 3 1.5 8.2 3.6 11.5 4.5 3.6 1.1 9.5 1.8 14.5 1.9 7.2 0 9.4-0.4 14.2-2.7 3.2-1.5 7.9-4.8 10.5-7.5 2.6-2.7 6-7.7 7.9-11.7 1.8-3.9 3.8-10.1 4.5-14 0.7-4.1 0.9-10.5 0.6-15.5-0.3-4.7-1.4-11-2.5-14-1.1-3-3.5-8.6-5.5-12.5-1.9-3.9-6.6-11.7-10.4-17.5-3.8-5.8-10.2-15-14.3-20.5-4-5.5-11.7-15.6-17-22.5-5.4-6.9-12.5-16.8-16-22-3.4-5.2-8.1-13.3-10.5-18-2.4-4.7-5.9-13.2-7.9-19-2-5.8-4.4-14.3-5.4-19-1.2-6.2-1.6-13.7-1.6-27.5 0-17.2 0.2-20 2.6-29.5 1.4-5.8 4.2-14.6 6.2-19.5 2-4.9 5.7-12.6 8.3-17 2.5-4.4 6.4-10.5 8.6-13.5 2.3-3 7-8.6 10.6-12.4 3.6-3.8 10.2-9.6 14.6-12.9 4.4-3.2 11.4-7.6 15.5-9.7 4.1-2.1 10.7-4.9 14.5-6.2 3.8-1.4 10.4-3.1 14.5-3.8 4.1-0.6 8.2-1.3 9-1.5 0.8-0.2 7.6-0.2 15 0z"/>
		<path id="Path 4" class="s1" d="m1573 285.7c1.9 0.3 6.4 1.4 10 2.3 5.4 1.4 6.4 2 6.1 3.6-0.2 1-4.8 13.6-10.3 27.9-5.5 14.3-11.4 29.7-13.1 34.3-1.8 4.5-3.4 8.2-3.7 8.2-0.3 0-2.5-3.8-5-8.3-2.5-4.5-11.1-18.2-19.3-30.4-8.1-12.3-14.7-22.5-14.7-22.8 0-0.3 1.7 0 3.8 0.6 3.1 0.9 5.6 0.6 15.2-1.7 8.6-2.1 12.7-3.7 16.5-6.3 2.8-1.9 6.3-4.5 8-5.7 2.4-1.9 3.7-2.2 6.5-1.7zm378.9 17.7c0.9 0.3 7.4 2 14.6 3.7 10.2 2.5 14.2 3 18.8 2.5 3.1-0.3 5.7-0.4 5.7-0.1 0 0.3-2.3 10.1-5.1 21.8-2.7 11.6-7.5 31.1-10.5 43.2-3.1 12.1-7.3 28.5-9.5 36.5-2.2 8-5.6 19.5-7.6 25.5-1.9 6.1-3.8 11.3-4.2 11.8-0.3 0.4-5.8-0.5-12.1-2-11.5-2.6-11.5-2.6-19.5-0.9-4.4 0.9-10.6 2.3-13.7 3.1-4.5 1.2-5.7 1.2-5.4 0.3 0.3-0.7 3.3-7.8 6.6-15.8 3.4-8 8.6-21.5 11.7-30 3-8.5 7.9-24 11-34.5 3-10.4 7.5-27.3 9.9-37.5 2.5-10.2 5.2-20.7 6.1-23.3 1.2-3.6 2-4.6 3.2-4.3zm698.2 20.4c0.3 0.4 1.8 5.4 5.8 21.7l-3.7 2.9c-2 1.6-8.6 7.9-14.7 14-7.1 7.2-14.2 15.8-20 24.1-4.9 7.2-10.8 16.6-13.1 21-2.2 4.4-4.7 9.8-7 16l-8.4-12.5 9.6-11.2c5.3-6.2 12.1-14.7 15.3-18.8 3.1-4.1 10.1-14.2 15.6-22.5 5.6-8.2 12.3-19.6 15-25.2 2.8-5.6 5.3-9.8 5.6-9.5z"/>
		<path id="Path 5" class="s2" d="m483.5 200.7c2.8 0.3 6.8 0.9 9 1.5 2.2 0.6 6.5 2.3 9.5 3.8 3 1.5 7.6 5 10.1 7.6 2.5 2.7 5.4 7.2 6.4 9.9 1.4 3.8 1.7 6.6 1.3 11.5-0.3 3.6-1.8 9.4-3.2 13-1.4 3.6-4.1 8.9-5.9 11.9-1.7 3-7 9.5-11.7 14.4-4.7 4.9-13.1 12.4-18.6 16.6-5.6 4.2-14.6 10.1-20 13.2-5.5 3.1-15 8-21.1 10.8-6.2 2.8-11.5 5.1-11.8 5.1-0.3 0 7.3-23.3 16.8-51.7 9.6-28.5 18.5-53.8 20-56.3 1.4-2.5 3.8-5.7 5.4-7.2 1.5-1.6 4.1-3.2 5.8-3.7 1.7-0.5 5.3-0.7 8-0.4zm1984.3 20.3c2 0 8 0.9 13.2 2 5.6 1.1 12.8 3.6 17.5 5.8 5.1 2.4 10.3 6 14.3 9.8 4.2 3.9 7.4 8 9.3 11.9 1.6 3.3 3.6 9.4 4.5 13.5 1.2 5.4 1.5 10.4 1.1 18-0.4 5.8-1.3 14.1-2.2 18.5-0.9 4.4-2.8 11.4-4.2 15.5-1.4 4.1-5.3 12.9-8.6 19.5-3.4 6.6-10.9 19.2-16.8 28-5.9 8.8-11.3 16.6-12 17.2-1.1 1-3.3 1-10.9-0.3-6.6-1.1-13.7-1.5-36.7-0.9l0.9-3c0.4-1.6 3.5-14.9 6.7-29.5 3.3-14.6 7.1-32.4 8.5-39.5 1.4-7.1 3.9-21.3 5.6-31.5 1.6-10.2 3.6-25.1 4.5-33.2 0.8-8.2 1.5-16.4 1.5-18.3 0-3.4 0.1-3.5 3.8-3.5zm-331.1 7.7c3.7 0.8 10.2 2.8 14.3 4.4 4.1 1.5 10.4 4.7 14 7 3.6 2.3 8.8 6.5 11.5 9.4 2.8 2.9 6.5 8.1 8.2 11.6 1.8 3.5 4.1 9.3 5 12.9 1.4 5 1.8 10.1 1.7 22.5-0.1 12.2-0.6 18.4-2.2 26-1.2 5.5-3.3 13.6-4.8 18-1.5 4.4-4.5 11.6-6.7 16-2.2 4.4-5.5 10.5-7.5 13.5-1.9 3-6.9 9-11.1 13.3-4.2 4.3-11 10-15.1 12.5-4.1 2.6-10.9 5.7-15 7-4.1 1.3-11.3 2.6-16 2.9-6 0.5-8.7 0.3-9.2-0.5-0.5-0.7 0.1-6 1.2-11.9 1.1-6 3.7-21.6 5.9-34.8 2.2-13.2 5.6-34.6 7.5-47.5 1.9-12.9 4.9-33.6 6.5-46 1.6-12.4 3.3-25.2 3.6-28.5 0.4-3.3 0.8-6.7 1-7.6 0.3-1.6 0.9-1.6 7.2-0.2zm-1247 64.6c0.2 0.2-0.8 7.5-2.2 16.3-1.4 8.7-3.6 25.4-5 36.9-1.3 11.6-3.4 30.5-4.6 42-1.2 11.6-2.2 21.1-2.3 21.3 0 0.1-4.2 0.7-9.1 1.3-4.9 0.5-17.3 1.6-27.5 2.3-10.2 0.7-18.6 1.1-18.7 0.9-0.2-0.1 3.9-7.4 9-16 5.2-8.7 17.7-30.4 27.9-48.3 10.2-17.9 21.6-38 25.3-44.8 3.8-6.8 7-12.1 7.2-11.9zm2919.3 0.7c0.4 0 0.6 0.8 0.3 1.8-0.2 0.9-1.7 10.7-3.3 21.7-1.6 11-4.3 32.4-5.9 47.5-1.7 15.1-3.4 31.4-3.8 36.2-0.8 8.3-0.9 8.8-3.3 9.3-1.4 0.2-11.7 1.1-23 2-11.3 0.8-22.6 1.6-25.2 1.7-2.9 0.2-4.7-0.1-4.4-0.7 0.1-0.6 5-9.1 10.8-19 5.8-9.9 17.7-30.6 26.5-46 8.8-15.4 19.2-34 23.2-41.2 4-7.3 7.6-13.3 8.1-13.3zm-3093 171l-3.9 4.8c-2.1 2.6-7.6 8.3-12.3 12.7-4.6 4.4-11.1 9.8-14.3 11.9-3.3 2.2-7.8 4.8-10 5.7-2.2 1-6.9 2.2-10.5 2.8-3.6 0.5-8.3 0.6-10.5 0.2-2.2-0.4-5.7-1.7-7.8-2.9-2.5-1.5-4.5-3.9-6.3-7.4-2-4.3-2.5-6.8-2.6-13.8 0-4.7 0.2-9.5 0.6-10.7 0.6-2.3 0.6-2.3 26.3-2.6 14.2-0.1 31.5-0.3 51.3-0.7zm2920 0l-7.3 8.1c-3.9 4.4-10.1 10.6-13.7 13.6-3.6 3.1-8.8 7.1-11.5 8.8-2.8 1.8-7.7 4.2-11 5.4-3.8 1.4-8.5 2.3-13 2.4-5.3 0.1-8-0.4-11-1.9-2.2-1.2-5.3-3.8-6.8-6-1.7-2.5-3.2-6.3-3.9-10.4-0.8-4.4-0.9-8.4 0.7-18.5l26-0.5c14.3-0.3 31.7-0.7 51.5-1z"/>
	</g>
</svg>