<svg version="1.2" xmlns="http://www.w3.org/2000/svg" viewBox="0 0 553 371" width="553" height="371">
	<title>Logotipo-svg</title>
	<style>
		.s0 { fill: #c99620 } 
		.s1 { fill: #5e4134 } 
		.s2 { fill: #ffffff } 
		.s3 { fill: #c35f3e } 
	</style>
	<g id="Background">
		<path id="Path 0" class="s0" d="m368 0.6c0.7 0 1.5 0.1 1.9 0.2 0.3 0.1 0.7 0.2 1 0.2 0.3 0 0.9 0.1 1.4 0.2 0.4 0.1 1.5 0.4 2.5 0.7 0.9 0.3 2.4 0.9 3.2 1.4 0.9 0.4 2.1 1.2 2.9 1.6 0.7 0.5 1.5 1.2 1.9 1.6 0.3 0.3 1.1 1.2 1.8 1.9 0.7 0.8 1.5 1.7 1.8 2.1 0.2 0.4 0.9 1.6 1.5 2.6 0.6 1 1.3 2.6 1.6 3.6 0.4 0.9 0.7 2 0.7 2.4 0.1 0.4 0.2 1.3 0.4 2.2 0.1 0.8 0.2 2.3 0.2 3.4 0 1.1-0.1 2-0.2 2-0.2 0.1-0.2 0.4-0.2 0.7 0 0.4-0.1 1.1-0.2 1.6-0.1 0.6-0.4 1.5-0.6 2.1-0.2 0.6-0.5 1.3-0.7 1.5-0.2 0.2-0.3 0.7-0.3 0.9 0 0.3-0.1 0.5-0.2 0.6-0.1 0-0.4 0.6-0.8 1.2-0.3 0.7-0.8 1.4-0.9 1.6-0.1 0.3-0.8 1.2-1.5 2-0.7 0.9-1.9 2-2.6 2.6-0.7 0.6-1.6 1.3-2 1.5-0.3 0.3-1.2 0.9-1.8 1.2-0.7 0.4-1.8 1-2.6 1.3-0.8 0.2-2.2 0.7-3.2 0.9-0.9 0.3-2.2 0.5-2.7 0.5-0.6 0.1-1.1 0.1-1.2 0.2-0.1 0.1 0 0.7 0.1 1.3 0.1 0.7 0.2 1.6 0.3 2 0 0.4 0 0.8 0.2 1 0 0.1 0.1 0.4 0.1 0.7 0 0.3 0.1 0.8 0.1 1 0 0.3 0.1 1.1 0.3 2 0.2 0.8 0.3 1.8 0.4 2.2 0.1 0.3 0.3 1.4 0.5 2.4 0.2 0.9 0.3 2 0.4 2.4 0 0.3 0.2 1.6 0.5 2.9 0.3 1.3 0.8 3.4 1.1 4.8 0.4 1.4 1 3.7 1.4 5.2 0.4 1.5 1 3.5 1.2 4.4 0.3 0.9 0.8 2.6 1.2 3.8 0.3 1.2 0.7 2.5 0.8 2.9 0.1 0.4 0.3 1 0.4 1.4 0.1 0.4 0.5 1.6 0.9 2.6 0.3 1 1.2 3.2 1.9 4.9 0.6 1.7 1.7 4.1 2.3 5.3 0.6 1.3 1.1 2.5 1.2 2.7 0.1 0.1 0.6 1 1 1.8 0.5 0.9 1.4 2.5 2.1 3.6 0.6 1.1 1.3 2.3 1.4 2.5 0.1 0.3 0.7 1.2 1.3 2.1 0.6 0.9 1.2 1.7 1.4 1.9 0.1 0.1 0.3 0.4 0.5 0.7 0.2 0.3 0.8 1.1 1.4 1.8 0.6 0.7 1.3 1.6 1.6 2 0.2 0.4 0.9 1.1 1.4 1.6 0.5 0.4 1.4 1.2 1.9 1.7 0.5 0.6 0.9 1 1 1 0.1 0 0.9 0.6 1.8 1.4 0.9 0.7 2.5 1.8 3.4 2.3 1 0.6 2.5 1.4 3.4 1.7 0.9 0.4 1.9 0.9 2.3 1 0.4 0.2 1.4 0.5 2.2 0.7 0.8 0.1 1.8 0.4 2.2 0.4 0.4 0.1 1.2 0.2 1.8 0.2 0.8 0.1 2.1-0.1 3.4-0.3 1.2-0.3 3.3-0.8 4.6-1.2 1.3-0.5 3.8-1.5 5.5-2.2 1.6-0.8 3.2-1.6 3.5-1.9 0.4-0.2 1-0.5 1.6-0.8 0.5-0.2 1.9-1.1 3.1-1.8 1.1-0.8 3.2-2.2 4.5-3.2 1.4-0.9 3.1-2.3 3.8-2.9 0.7-0.6 2.3-1.9 3.4-3 1.1-1 3.3-3 4.7-4.5 1.4-1.4 3.3-3.4 4.2-4.4 0.9-0.9 1.7-1.8 1.9-2 0.1-0.2 0.8-0.9 1.3-1.6 0.6-0.7 1.4-1.7 1.8-2.2 0.4-0.5 1.2-1.5 1.7-2.1 0.5-0.7 2.1-2.8 3.5-4.7 1.5-2 2.7-3.7 2.7-3.9 0-0.1-0.6-0.9-1.3-1.6-0.7-0.8-1.5-1.9-1.8-2.5-0.3-0.6-0.7-1.6-0.9-2.3-0.2-0.5-0.4-1.8-0.5-2.8-0.1-1 0-1.9 0.1-2.2 0.1-0.2 0.4-1 0.6-1.8 0.2-0.7 0.7-1.9 1.1-2.5 0.4-0.6 1.2-1.6 1.8-2.1 0.6-0.6 1.6-1.4 2.3-1.8 0.8-0.4 1.8-0.9 2.3-1 0.6-0.2 1.3-0.4 1.7-0.4 0.3-0.1 1.3-0.1 2-0.1 0.9 0 2.1 0.2 3.2 0.5 1.1 0.4 2.2 0.9 3.1 1.5 0.7 0.6 1.6 1.4 2.1 1.9 0.4 0.5 1 1.3 1.3 1.7 0.3 0.5 0.7 1.6 1 2.5 0.3 0.9 0.6 2.3 0.6 3.2 0.1 1 0 1.9-0.2 2.8-0.2 0.7-0.7 1.9-1.1 2.7-0.4 0.8-1.3 2-2.1 2.8-0.8 0.8-1.9 1.8-2.4 2.1-0.5 0.3-1.4 0.7-2 0.9-0.5 0.2-1.2 0.3-1.6 0.4-0.4 0-0.9 0.1-1.3 0.2-0.5 0.2-1 0.2-1.9 0-0.6-0.2-1.4-0.3-1.8-0.3-0.5-0.1-0.7 0-1 1-0.2 0.6-0.6 1.9-0.9 2.8-0.3 1-0.7 2.1-0.7 2.5-0.1 0.4-0.2 0.7-0.4 0.8-0.1 0.1-0.2 0.3-0.2 0.6 0 0.2-0.4 1.7-0.9 3.4-0.4 1.6-1.1 4.2-1.5 5.7-0.4 1.5-0.7 3-0.8 3.3 0 0.3-0.3 1.4-0.6 2.5-0.3 1.1-0.6 2.2-0.6 2.5-0.1 0.3-0.1 0.7-0.2 0.8-0.1 0.2-0.1 0.5-0.1 0.6 0.1 0.2 0 0.4-0.1 0.5-0.1 0-0.2 0.2-0.2 0.5 0 0.2 0 0.5-0.1 0.7 0 0.1-0.3 1.2-0.4 2.3-0.2 1-0.4 2.1-0.4 2.2 0 0.2-0.2 1.6-0.5 3-0.2 1.4-0.4 2.8-0.5 3.2 0 0.3-0.1 1.3-0.3 2.4-0.1 1-0.2 2.3-0.2 2.9 0 0.6-0.1 1.2-0.2 1.3-0.1 0.1-0.1 0.9-0.2 1.8 0 1 0 3.7 0 6.2 0 2.4 0 4.6 0 4.9 0 0.2 0.2 1.4 0.3 2.6 0.2 1.2 0.4 2.3 0.4 2.5 0 0.2 0.2 1.3 0.5 2.4 0.3 1.2 1.1 3.1 1.8 4.6 1 2.1 1.4 2.7 2.7 3.8 0.8 0.7 1.9 1.6 2.6 2 0.6 0.4 1.6 0.9 2.1 1.1 0.6 0.2 2 0.4 3.1 0.4 1.3 0.1 2.8 0 3.9-0.2 1-0.2 2.8-0.6 3.8-0.9 1.1-0.3 3-1 4.2-1.4 1.2-0.5 3.2-1.5 4.6-2.1 1.3-0.6 2.8-1.4 3.4-1.8 0.6-0.3 1.8-1 2.7-1.5 0.8-0.4 2.6-1.5 3.9-2.4 1.3-0.9 3.5-2.4 4.8-3.3 1.3-0.9 3.4-2.5 4.7-3.4 1.2-1 3.3-2.5 4.5-3.5 1.2-0.9 2.2-1.8 2.4-2 0.1-0.1 0.8-0.7 1.6-1.3 0.7-0.6 1.3-1.2 1.3-1.3 0-0.1-0.1-0.4-0.3-0.5-0.2-0.2-0.6-1-0.9-1.9-0.4-0.8-0.9-2.1-1.1-2.8-0.2-0.7-0.3-1.9-0.3-2.5 0-0.7 0.2-2 0.4-2.9 0.3-0.9 0.6-1.9 0.8-2.2 0.2-0.3 0.6-0.9 0.9-1.3 0.3-0.4 1-1.2 1.6-1.7 0.5-0.5 1.6-1.3 2.3-1.8 0.7-0.5 1.7-0.9 2.3-1.1 0.5-0.1 1.4-0.3 2-0.4 0.8-0.2 1.6-0.2 2.6 0 0.7 0.2 2 0.4 2.7 0.7 0.7 0.2 1.8 0.7 2.4 1.2 0.6 0.4 1.6 1.3 2.2 2.1 0.7 0.8 1.5 1.9 1.8 2.6 0.3 0.6 0.8 1.8 1 2.7 0.3 1 0.3 2 0.3 3-0.1 0.9-0.3 1.9-0.5 2.2-0.2 0.4-0.7 1.5-1.1 2.4-0.6 1.2-1.3 2.1-2.1 2.9-0.6 0.7-1.6 1.5-2.2 1.8-0.5 0.4-1.6 0.9-2.5 1.1-0.8 0.3-2.1 0.5-2.8 0.5-0.7 0-1.7 0-2.2-0.1-0.5-0.1-1.4-0.3-2.1-0.6-0.6-0.2-1.4-0.5-1.7-0.7-0.3-0.1-0.7-0.4-0.8-0.6-0.2-0.1-0.5-0.2-0.7-0.2-0.1 0-0.6 0.7-1 1.4-0.4 0.7-1 1.8-1.3 2.4-0.4 0.6-0.8 1.2-0.9 1.4-0.2 0.2-0.6 0.9-1 1.6-0.5 0.8-1.3 2.2-1.9 3.3-0.7 1.1-1.8 3.1-2.5 4.5-0.7 1.4-1.8 3.4-2.4 4.6-0.6 1.1-1.4 2.5-1.8 3-0.3 0.6-1.2 2-1.9 3.3-0.8 1.3-1.6 2.9-1.9 3.4-0.3 0.6-0.8 1.5-1.2 2-0.3 0.6-0.8 1.4-1 1.8-0.1 0.4-1 2-1.8 3.5-0.9 1.5-2 3.4-2.5 4.2-0.4 0.9-1.1 2.1-1.5 2.8-0.5 0.6-1.1 1.7-1.5 2.4-0.3 0.6-0.8 1.5-1.1 2-0.2 0.5-0.7 1.2-0.9 1.6-0.3 0.3-0.8 1.2-1.1 1.9-0.4 0.7-1.7 3.1-2.9 5.3-1.2 2.1-2.4 4.3-2.8 4.8-0.4 0.4-0.8 1.1-0.9 1.4-0.1 0.3-0.6 1.3-1.2 2.2-0.5 0.8-1 1.7-1 1.8 0 0.1-0.1 0.3-0.3 0.5-0.1 0.1-0.7 1.1-1.2 2.1-0.6 1.1-1.1 2.1-1.3 2.2-0.1 0.2-0.2 0.5-0.2 0.6 0 0.1-0.3 0.5-1.2 1.4l-5-1.7c-2.8-1-6.8-2.2-8.9-2.8-2.1-0.6-5.6-1.6-7.9-2.2-2.2-0.6-5.6-1.5-7.5-2-1.9-0.5-4-1-4.6-1.1-0.6-0.1-1.3-0.2-1.7-0.4-0.4-0.1-1.8-0.4-3.2-0.7-1.3-0.3-2.7-0.7-3-0.7-0.3-0.1-0.8-0.2-1.1-0.2-0.3-0.1-1-0.2-1.5-0.3-0.6-0.2-2.8-0.6-5-1-2.1-0.4-4.4-0.9-5-1-0.6-0.1-1.9-0.4-2.9-0.5-1-0.2-2.1-0.4-2.4-0.5-0.3 0-0.8-0.1-1.2-0.2-0.4-0.1-1-0.2-1.4-0.2-0.4-0.1-2-0.3-3.4-0.6-1.5-0.2-3-0.4-3.4-0.5-0.4-0.1-2.2-0.3-4-0.6-1.8-0.2-3.5-0.5-3.8-0.5-0.4-0.1-0.9-0.2-1.4-0.2-0.4-0.1-1.1-0.2-1.5-0.2-0.4-0.1-1.8-0.2-3-0.4-1.3-0.1-2.7-0.3-3.2-0.4-0.5-0.1-1.1-0.2-1.3-0.2-0.2 0-1.1 0-2-0.1-0.8-0.1-2.9-0.3-4.7-0.5-1.7-0.2-3.7-0.3-4.4-0.4-0.8 0-1.6-0.2-2-0.3-0.4-0.1-1.3-0.1-2.2-0.1-0.8 0.1-1.7 0.1-1.9 0-0.3-0.1-1.5-0.2-2.7-0.3-1.2 0-3.8-0.2-5.7-0.3-2-0.2-4.7-0.3-5.9-0.4-1.3 0-4.7-0.1-7.7 0-2.9 0-7.3 0-9.8 0.1-2.4 0.1-5.6 0.2-7 0.2-1.3 0.1-3.6 0.2-5.1 0.2-1.4 0.1-3.3 0.2-4.2 0.2-0.9 0.1-3 0.3-4.6 0.4-1.6 0.1-3.8 0.3-4.8 0.3-1 0.1-2.5 0.2-3.3 0.3-0.8 0-1.8 0.1-2.4 0.2-0.5 0-1.4 0.1-2 0.2-0.5 0-1.4 0.1-1.9 0.1-0.6 0.1-2.8 0.4-4.9 0.6-2.2 0.3-4.4 0.5-4.9 0.6-0.6 0-1.3 0.1-1.7 0.2-0.3 0-1.3 0.1-2 0.2-0.8 0.1-1.6 0.2-1.8 0.2-0.2 0-0.5 0-0.6 0.1-0.2 0-0.7 0.1-1 0.2-0.4 0-0.9 0-1.1 0-0.3 0.1-1.2 0.2-2.1 0.4-0.9 0.1-2.1 0.3-2.7 0.4-0.6 0.1-1.4 0.2-1.8 0.2-0.3 0.1-0.9 0.2-1.2 0.2-0.3 0.1-2.3 0.4-4.4 0.8-2.2 0.3-4.9 0.8-6.1 1-1.2 0.2-2.5 0.4-2.9 0.5-0.3 0.1-0.9 0.3-1.3 0.3-0.4 0.1-1 0.2-1.5 0.3-0.5 0-1.1 0.2-1.3 0.2-0.3 0.1-0.5 0.2-0.6 0.2 0 0-0.5 0.1-1 0.2-0.4 0.1-1.2 0.3-1.6 0.4-0.4 0.1-2.2 0.5-3.9 0.9-1.8 0.3-4 0.8-5 1.1-1.1 0.2-2.5 0.5-3.2 0.7-0.7 0.2-2 0.5-2.9 0.7-0.9 0.2-2.5 0.7-3.6 1-1.1 0.3-2.9 0.8-4 1.1-1.1 0.3-2.1 0.6-2.3 0.6-0.1 0-0.4-0.2-0.6-0.4-0.2-0.2-1.3-2.1-2.3-4.1-1.1-2.1-2.9-5.7-4.1-8.1-1.2-2.4-2.3-4.7-2.6-5.2-0.2-0.5-0.8-1.6-1.3-2.5-0.4-0.9-0.9-1.8-1-2-0.1-0.2-0.8-1.5-1.5-2.9-0.7-1.4-1.4-2.8-1.5-3-0.1-0.3-0.8-1.7-1.6-3.2-0.8-1.5-4.2-8.3-7.6-15.1-3.4-6.8-8-15.9-10.2-20.2-2.2-4.3-4.1-8-4.2-8.2-0.3-0.4-0.4-0.3-1.4 0.2-0.7 0.4-1.7 0.8-2.4 1-0.6 0.2-1.6 0.4-2.2 0.5-0.6 0-1.7 0-2.7-0.2-1-0.2-2.4-0.7-3.3-1.1q-1.5-0.7-2.8-2.1c-0.7-0.7-1.5-1.7-1.8-2.1-0.3-0.5-0.7-1.4-0.9-2-0.3-0.7-0.5-1.4-0.6-1.6-0.1-0.1-0.2-0.5-0.2-0.7-0.1-0.3-0.2-1-0.2-1.6-0.1-0.7 0-1.6 0.3-2.8 0.3-1 0.7-2.1 0.9-2.5 0.1-0.4 0.6-1.2 0.9-1.6 0.4-0.5 1.2-1.4 1.9-2.1 0.7-0.6 1.7-1.4 2.3-1.7 0.6-0.3 1.9-0.7 3-1 1.2-0.3 2.1-0.4 2.7-0.3 0.5 0.1 1.2 0.2 1.5 0.2 0.4 0.1 1.3 0.3 2.1 0.6 0.8 0.2 1.9 0.8 2.5 1.2 0.6 0.5 1.1 0.9 1.2 1 0.1 0.1 0.6 0.6 1.1 1.2 0.5 0.6 1.2 1.8 1.6 2.7 0.4 0.9 0.8 2 0.9 2.5 0.1 0.5 0.2 1.1 0.4 1.4 0.1 0.4 0.1 0.9-0.1 1.7-0.1 0.6-0.2 1.3-0.3 1.5 0 0.3-0.1 0.6-0.2 0.7-0.1 0.1-0.1 0.3-0.1 0.5 0 0.3-0.2 0.9-0.5 1.5-0.2 0.6-0.7 1.4-1.1 1.8-0.3 0.5-0.6 1-0.6 1.1 0 0.2 0.5 0.7 1 1.3 0.6 0.6 2.4 2.2 4 3.6 1.6 1.4 3.4 2.9 3.8 3.4 0.5 0.4 1 0.8 1.2 0.8 0.1 0 0.3 0.1 0.3 0.2 0 0.1 0.8 0.8 1.8 1.6 1 0.8 1.9 1.5 2 1.5 0.1 0.1 0.7 0.6 1.4 1.1 0.6 0.6 1.8 1.4 2.5 1.9 0.7 0.5 2.5 1.7 4 2.7 1.5 1 3.6 2.4 4.7 3 1.1 0.7 2.2 1.3 2.5 1.6 0.3 0.2 0.8 0.4 1.1 0.5 0.3 0.1 1.5 0.6 2.7 1.2 1.2 0.6 2.9 1.2 3.6 1.5 0.8 0.2 2.1 0.6 2.8 0.8 0.7 0.2 2.5 0.4 4 0.5 1.9 0.1 3.1 0.1 3.8-0.1 0.6-0.1 1.7-0.5 2.3-0.9 0.7-0.4 1.8-1.1 2.4-1.6 0.7-0.6 1.6-1.5 2.1-2.2 0.5-0.6 1.2-1.7 1.6-2.3 0.4-0.6 0.8-1.6 1-2.1 0.2-0.5 0.7-2 1-3.3 0.4-1.3 0.7-2.7 0.8-3 0-0.3 0.1-1 0.2-1.6 0-0.6 0.2-1.6 0.3-2.2 0.1-0.6 0.3-3.2 0.3-5.9 0.1-2.6 0.2-5.2 0.2-5.6 0-0.5-0.1-1.5-0.2-2.3 0-0.8-0.1-2.2-0.2-3.1-0.1-0.9-0.2-2.2-0.2-2.8-0.1-0.7-0.2-1.6-0.2-2.1-0.1-0.5-0.2-1.2-0.2-1.6-0.1-0.4-0.2-1.3-0.2-1.9-0.1-0.6-0.3-1.6-0.4-2.3-0.1-0.6-0.3-1.8-0.3-2.5-0.1-0.7-0.4-2.6-0.7-4.2-0.3-1.6-0.6-3.3-0.7-3.7 0-0.5-0.2-1.4-0.4-2.1-0.1-0.7-0.9-3.9-1.6-7.1-0.8-3.2-1.7-7-2.1-8.4-0.7-2.5-0.7-2.6-1.2-2.6-0.3 0.1-1.4 0.1-2.4 0.2-1.4 0-2.2-0.1-3.4-0.5-0.8-0.3-1.9-0.8-2.5-1.1-0.5-0.3-1.5-1.1-2.1-1.8-0.7-0.6-1.4-1.6-1.7-2.1-0.4-0.4-0.9-1.6-1.2-2.5-0.6-1.4-0.7-1.8-0.7-3.7 0-1.6 0.1-2.4 0.5-3.6 0.3-0.8 0.9-1.9 1.2-2.5 0.4-0.5 1.1-1.4 1.5-1.8 0.5-0.5 1.4-1.3 2-1.7 0.7-0.6 1.7-1.1 2.9-1.4 1-0.3 1.8-0.5 1.9-0.5 0.1 0 0.5 0 0.9-0.1 0.4-0.1 1.2-0.1 2.3 0.2 0.9 0.1 2.2 0.5 2.8 0.7 0.7 0.3 1.5 0.7 2 1 0.4 0.3 1.3 1.2 1.9 1.9 0.7 0.8 1.5 1.8 1.8 2.3 0.3 0.4 0.7 1.4 0.9 2 0.2 0.7 0.5 1.6 0.5 2.1 0.1 0.5 0.1 1.2 0.1 1.5 0.1 0.4 0 1.1-0.1 1.6-0.1 0.4-0.2 1-0.3 1.3-0.1 0.2-0.6 1.1-0.9 1.9-0.4 0.9-1 1.9-1.2 2.2-0.2 0.4-0.8 1-1.3 1.3-0.5 0.4-1 0.8-1.1 1-0.2 0.3 0 0.7 1 2.3 0.6 1 1.9 2.9 2.8 4.2 0.8 1.3 2 2.9 2.6 3.7 0.5 0.7 1.4 1.9 2 2.7 0.5 0.8 1 1.5 1.2 1.6 0.1 0.2 0.3 0.5 0.5 0.7 0.2 0.2 0.8 1 1.3 1.6 0.5 0.7 1.2 1.6 1.6 2 0.4 0.5 1.3 1.5 2 2.3 0.8 0.9 2.5 2.8 4 4.3 1.4 1.4 3.7 3.6 5 4.8 1.3 1.2 3.5 3.1 4.9 4.2 1.4 1 2.5 2 2.6 2.1 0.1 0 0.6 0.4 1.1 0.7 0.6 0.4 2 1.3 3.2 2 1.2 0.8 3.3 1.9 4.8 2.6 1.4 0.8 3.8 1.8 5.2 2.4 1.7 0.6 3.7 1.1 5.2 1.4q2.5 0.4 3 0.2c0.3-0.1 1.3-0.3 2.4-0.4 1-0.2 2.5-0.5 3.2-0.7 0.8-0.3 2.3-0.8 3.3-1.3 1-0.5 2-0.9 2.1-0.9 0.1 0 0.6-0.2 1-0.5 0.4-0.2 1.5-1 2.5-1.6 0.9-0.7 2.2-1.6 2.9-2.2 0.6-0.6 1.5-1.3 2-1.8 0.4-0.4 1.4-1.4 2.2-2.3 0.8-0.8 1.7-1.8 2-2.2 0.4-0.5 1.2-1.5 1.9-2.3 0.6-0.9 1.4-1.8 1.7-2.1 0.2-0.3 0.7-1.1 1.1-1.7 0.3-0.6 0.9-1.5 1.2-2 0.4-0.6 1.3-2.2 2.1-3.6 0.8-1.5 2.4-4.5 3.6-6.8 1.1-2.2 2.3-4.7 2.6-5.4 0.4-0.7 0.7-1.6 0.8-1.9 0.1-0.3 0.4-1.2 0.7-2.1 0.4-0.8 1.3-3.3 2-5.4 0.8-2.2 1.6-4.5 1.8-5.1 0.3-0.7 0.8-2.4 1.3-3.9 0.4-1.4 0.9-3 1-3.6 0.1-0.5 0.4-1.5 0.6-2.2 0.2-0.8 0.8-3.2 1.4-5.5 0.6-2.3 1-4.3 1.1-4.6 0.1-0.2 0.2-1 0.4-1.7 0.2-0.7 0.5-2.3 0.7-3.5 0.2-1.2 0.5-2.4 0.6-2.7 0.2-0.3 0.2-0.5 0.1-0.6-0.1-0.1 0-0.4 0.1-0.6 0.2-0.3 0.1-0.5 0-0.7-0.2-0.1-0.5-0.2-0.9-0.3-0.3 0-0.9 0-1.3-0.1-0.4-0.1-1.4-0.4-2.2-0.6-0.8-0.3-1.5-0.5-1.6-0.6-0.1-0.1-0.6-0.3-1-0.4-0.4-0.2-1.6-0.8-2.6-1.5-1.1-0.7-2.4-1.7-3-2.2-0.6-0.5-1.7-1.6-2.4-2.5-0.7-0.8-1.8-2.5-2.4-3.6-0.7-1.2-1.5-3.1-1.8-4.2-0.4-1.2-0.8-2.6-0.9-3.3-0.2-0.7-0.3-2.4-0.3-3.8 0-1.5 0.1-2.9 0.1-3.3 0.1-0.4 0.3-1.2 0.4-1.8 0.1-0.7 0.4-1.7 0.6-2.3 0.2-0.6 0.5-1.4 0.7-1.7 0.1-0.3 0.2-0.6 0.2-0.7 0-0.1 0.5-0.9 1-1.7 0.5-0.9 1.3-2.1 1.8-2.7 0.5-0.6 1.1-1.3 1.4-1.5 0.2-0.3 1-1 1.6-1.6 0.6-0.6 1.7-1.5 2.5-2 0.8-0.5 1.9-1.2 2.5-1.5 0.6-0.3 1.8-0.8 2.7-1.1 0.8-0.3 2.2-0.7 3.1-0.8 0.9-0.2 2.3-0.4 3-0.4 0.8-0.1 1.5-0.2 1.5-0.2 0.1-0.1 0.6-0.1 1.3 0zm-51.7 336.3c2.3 0 3.5 0.2 6.6 1v2.5c0 1.5 0 2.5-0.2 2.5-0.1 0-0.7-0.3-1.3-0.7-0.7-0.5-1.8-1-2.5-1.2-0.9-0.3-1.8-0.5-3-0.5-1.2 0-1.9 0.1-2.5 0.4-0.4 0.3-0.9 0.6-1 0.8-0.1 0.2-0.1 0.6-0.1 0.8-0.1 0.3 0.1 0.7 0.3 0.9 0.3 0.2 1.8 0.7 3.8 1.2 1.9 0.5 3.8 1.1 4.3 1.4 0.5 0.2 1.3 0.8 1.7 1.2 0.5 0.5 0.9 1.2 1.1 1.9 0.2 0.6 0.3 1.4 0.3 1.8 0 0.4-0.1 1.2-0.3 1.8-0.2 0.7-0.7 1.5-1.3 2.2-0.5 0.5-1.4 1.2-2.2 1.6-0.7 0.3-1.8 0.7-2.5 0.8-0.7 0.2-2.4 0.3-4.1 0.2-2.6-0.1-3.3-0.2-6.7-1.4l-0.1-2.4c0-2.4 0-2.5 0.4-2.5 0.3 0 0.9 0.3 1.5 0.7 0.6 0.4 1.6 1 2.3 1.3 1 0.3 1.9 0.5 3.5 0.6 2 0 2.3 0 2.9-0.4 0.4-0.2 0.9-0.7 1-1 0.2-0.4 0.2-0.6 0-1.1-0.1-0.3-0.5-0.7-0.9-0.8-0.3-0.2-1.7-0.6-3.2-0.9-1.4-0.3-3.2-0.9-3.9-1.2-0.7-0.4-1.7-1-2.1-1.5-0.4-0.5-0.9-1.3-1-1.7-0.2-0.5-0.3-1.4-0.3-2.1 0-0.7 0.1-1.6 0.3-2 0.1-0.4 0.7-1.1 1.1-1.6 0.5-0.6 1.4-1.2 2-1.6 0.6-0.3 1.5-0.6 2.1-0.8q0.9-0.3 4-0.2z"/>
		<path id="Path 1" class="s1" d="m73.3 112.6c2.2 0.1 3.2 0.3 7.4 1.2 2.6 0.7 5.4 1.4 6.1 1.6 0.7 0.3 1.9 0.8 2.5 1.1 0.7 0.3 2.4 1.5 3.9 2.5 1.5 1.1 3.4 2.5 4.1 3.3 0.8 0.7 2.4 2.6 3.6 4.2 1.1 1.6 2.2 3.3 2.5 3.6 0.2 0.4 0.6 1.3 0.9 2 0.2 0.7 1 3.5 1.6 6.1 1.1 4.5 1.1 4.9 1 7-0.1 1.5-0.4 3.4-1.2 6.6-0.6 2.5-1.3 5-1.5 5.7-0.3 0.7-0.4 1.2-0.4 1.2 0 0 0.6 0.3 1.3 0.5 0.8 0.3 1.5 0.6 1.7 0.6 0.2 0.1 1.1-1 3-3.7 1.5-2.2 5.3-7.5 8.3-11.9 5-7.2 5.6-8.2 6.3-10 0.4-1.2 1-2.7 1.4-3.4 0.4-0.7 1.6-2.6 2.8-4.2 1.1-1.5 2.5-3.3 3.1-3.9 0.6-0.6 2.3-2 3.8-3 1.5-1.1 3.3-2.2 4-2.6 0.8-0.4 3.1-1.1 5.9-1.7 3-0.7 5.3-1.2 6.5-1.3 1.7-0.1 2.3 0 6.7 1.1 2.6 0.6 5.2 1.3 5.6 1.6 0.5 0.2 2.1 1.3 3.6 2.4 1.6 1.1 3.1 2.4 3.6 3.1 0.5 0.6 1.5 1.9 2.2 3 0.8 1.1 1.5 2.2 1.6 2.5 0.1 0.3 0.7 2.5 1.2 4.8 0.6 2.4 1 4.5 1 4.9 0 0.3-0.3 2.3-0.8 4.4-0.5 2-1 4-1.2 4.4-0.2 0.3-1 1.6-1.9 2.9-0.9 1.3-2.2 2.8-2.9 3.4-0.6 0.6-1.5 1.4-1.9 1.7-0.8 0.6-0.8 0.8-1 3.3l2.1 0.5c1.1 0.2 2.3 0.6 2.6 0.7 0.3 0.2 1.7 1.1 3.1 2.1 2.3 1.6 2.6 2 4.3 4.3 0.9 1.3 1.9 2.7 2 3 0.1 0.3 0.7 2.3 1.2 4.6 0.8 3.3 0.9 4.2 0.8 5-0.1 0.5-0.6 2.7-1.1 4.7-0.5 2.1-1.2 4.4-1.5 5.1-0.3 0.6-1 1.9-1.6 2.8-0.6 0.9-2.1 3-3.2 4.5-1.2 1.6-3.1 3.8-4.2 5-1.2 1.2-3.1 3-4.4 4.1-1.2 1-3.7 2.9-5.5 4.2-1.8 1.3-3.9 2.7-4.7 3.2-0.8 0.4-2.2 1.1-3.1 1.5-0.9 0.3-3.7 1.1-6.3 1.7-3.1 0.8-5.2 1.1-6.1 1.1-0.9 0-3-0.3-6.1-1-2.6-0.7-5-1.2-5.3-1.4-0.4-0.1-1.9-1.1-3.3-2.1-1.5-1-2.9-2.1-3.9-3.1l-1.6 1.3c-0.8 0.7-2.8 2.2-4.4 3.4-1.7 1.1-3.7 2.4-4.6 2.9-1.2 0.5-3.1 1.1-6.6 2-3.5 0.8-4.7 1.2-4.4 1.3 0.2 0.1 1.9 0.6 3.8 1 1.8 0.4 4 1.1 4.8 1.4 0.8 0.4 2.2 1.2 4.8 3.1l0.7-0.4c0.5-0.1 2.7-0.7 5-1.3 2.3-0.5 4.6-1 5.2-1 0.5 0 3 0.5 5.4 1.1 2.5 0.6 5 1.3 5.6 1.5 0.6 0.2 1.7 0.8 3.6 2l1.5-0.7c0.8-0.4 2.2-1.1 3.1-1.4 0.9-0.4 2.4-0.9 3.5-1.2 1.6-0.4 2.1-0.7 4.7-2.5 1.5-1.2 3.3-2.3 3.9-2.6 0.6-0.3 3.1-1 5.7-1.6 2.5-0.6 5-1.1 5.5-1.1 0.5 0 2.8 0.4 5.1 1 2.3 0.5 4.4 1.1 4.7 1.3 0.3 0.2 1.5 1 2.5 1.8 1.1 0.8 2.1 1.6 2.2 1.8 0.2 0.2 0.5 0.5 0.7 0.8 0.3 0.3 1.1 0.7 2.4 1.1 1.1 0.3 2.7 0.9 3.7 1.3 0.9 0.5 2.4 1.3 4.6 2.8l0.6-0.4c0.4-0.2 1.9-1 3.3-1.7 1.4-0.7 3.6-1.6 4.8-2 1.2-0.4 4.7-1.4 7.8-2.1 3.2-0.8 6.7-1.5 8-1.7 1.3-0.1 3.6-0.3 5.1-0.3 1.6 0 3.7 0.1 4.7 0.2 1.1 0.2 4 0.8 6.6 1.4 2.5 0.6 5.4 1.3 6.4 1.6 1 0.3 2.5 0.9 3.5 1.4 1 0.4 3.2 1.8 4.9 3.1 1.8 1.3 3.6 2.7 4.9 4.1l1.1-1c0.6-0.5 2.4-1.8 3.9-2.9 1.6-1.2 3.9-2.5 5.2-3.2 1.7-0.8 3.2-1.3 6.5-2.1 2.3-0.6 5.1-1.2 6.1-1.4 1.4-0.3 2.5-0.3 4.5-0.2 2.1 0 3.5 0.3 7.5 1.3 2.9 0.7 5.4 1.4 6.1 1.7 0.7 0.4 2.4 1.5 3.8 2.6 1.5 1 3 2.2 3.3 2.6 0.4 0.4 1.6 1.9 2.6 3.4 1 1.4 2 3 2.2 3.4 0.2 0.5 0.9 3 1.5 5.5 1 4.3 1.1 4.8 1.1 7.4 0 2.7 0 3.1-1.1 7.5-0.6 2.6-1.3 5.2-1.5 5.7-0.2 0.6-0.3 1-0.3 1.1 0 0 0.8 0.2 1.9 0.4 1 0.3 2 0.5 2.2 0.5 0.1 0 1.3-2.1 4.8-9.3l-0.2-1.3c-0.2-0.7-0.3-2.6-0.3-4.1 0-2.8 0.1-3.1 1.3-7.9 0.8-3.5 1.5-5.6 2-6.8 0.5-0.9 1.9-3.2 3.2-5 1.4-1.8 3-3.8 3.7-4.5 0.8-0.8 2.7-2.3 4.4-3.5 1.7-1.2 3.7-2.5 4.6-2.9 1-0.5 3.2-1.2 6.5-2 4.8-1.1 5.1-1.2 7.1-1.1 1.4 0.1 3.4 0.5 6.2 1.1 2.2 0.6 4.4 1.2 4.9 1.4 0.4 0.2 1.8 1 3 1.9 1.2 0.8 2.5 1.8 2.9 2.2 0.4 0.4 1.3 1.4 1.9 2.3 0.7 0.9 1.2 1.7 1.3 1.7 0 0 0.5-0.2 1.2-0.4 0.6-0.3 3.2-1 5.7-1.6 3.8-0.9 4.8-1.1 6.6-1.1 1.9 0 2.8 0.1 6.4 1 2.3 0.6 4.6 1.2 5 1.5 0.5 0.2 1.9 1.1 3.2 2.1 1.3 0.9 2.6 2 3 2.3 0.3 0.3 1.3 1.7 4.2 5.7l1 3.8c0.5 2.1 1 4.4 1.1 5.1 0.2 1.1 0.2 1.5-0.8 5.5-0.5 2.4-1.1 4.7-1.3 5-0.2 0.4-1.3 1.9-2.4 3.4-1 1.5-2.3 3.2-2.8 3.7-0.5 0.5-0.8 0.9-0.8 1 0.1 0 1.5 0.4 3.2 0.8 1.7 0.3 3.5 0.9 4 1.1 0.6 0.2 1.1 0.4 1.2 0.4 0.1 0 1.4-1.7 2.8-3.9 1.5-2.1 5.2-7.4 8.2-11.8 5-7.2 5.6-8.2 6.3-10 0.4-1.2 1.1-2.7 1.4-3.4 0.4-0.7 1.7-2.6 2.8-4.2 1.1-1.5 2.6-3.3 3.2-3.9 0.6-0.6 2.3-2 3.8-3 1.4-1 3.2-2.2 3.9-2.6 0.8-0.4 3.1-1 6-1.7 2.9-0.7 5.3-1.2 6.5-1.2 1.6-0.1 2.3 0 6.6 1 2.6 0.6 5.2 1.3 5.7 1.6 0.5 0.2 2.1 1.3 3.6 2.4 1.5 1.1 3.1 2.4 3.5 3.1 0.5 0.6 1.5 1.9 2.3 3 0.7 1.1 1.4 2.2 1.6 2.5 0.1 0.3 0.6 2.5 1.2 4.8 0.5 2.4 1 4.6 1 4.9 0 0.3-0.4 2.3-0.9 4.4-0.5 2-1 4-1.2 4.4-0.1 0.3-1 1.7-1.9 2.9-0.9 1.3-2.2 2.8-2.8 3.4-0.7 0.6-1.6 1.4-2 1.7-0.7 0.7-0.8 0.8-0.9 3.3l2 0.5c1.2 0.3 2.4 0.6 2.7 0.7 0.3 0.2 1.6 1.1 3 2.1 2.3 1.6 2.7 2 4.3 4.3 1 1.3 1.9 2.7 2 3 0.2 0.3 0.7 2.4 1.2 4.6 0.8 3.3 0.9 4.2 0.8 5-0.1 0.5-0.6 2.7-1.1 4.7-0.5 2.1-1.1 4.4-1.4 5.1-0.3 0.6-1.1 2-1.7 2.8-0.6 0.9-2.1 2.9-3.2 4.5-1.2 1.6-3.1 3.8-4.2 5-1.1 1.2-3.1 3-4.3 4.1-1.2 1-3.7 2.9-5.6 4.2-1.8 1.3-3.9 2.7-4.7 3.2-0.8 0.4-2.1 1.1-3 1.5-0.9 0.3-3.8 1.1-6.4 1.7-3.1 0.8-5.1 1.2-6.1 1.2-0.9 0-3-0.4-6.1-1.1-2.5-0.7-4.9-1.2-5.3-1.4-0.4-0.1-1.8-1.1-3.3-2.1-1.4-1-2.9-2.1-3.9-3.1l-1.5 1.3c-0.9 0.7-2.9 2.2-4.5 3.4-1.6 1.1-3.7 2.4-4.6 2.9-1.1 0.5-3 1.1-6.3 1.9-2.6 0.7-5.4 1.3-6.2 1.4-0.9 0.2-2.5 0.3-3.9 0.2-1.7-0.1-3.4-0.4-7-1.3-2.9-0.6-5.5-1.4-6.4-1.8-0.8-0.4-2.1-1.1-4.2-2.6l-4.4 1c-3.4 0.8-4.9 1.1-6.2 1.1-1.3 0-2.8-0.3-6.3-1.1-2.5-0.6-5-1.3-5.4-1.5-0.4-0.2-1.3-0.8-3.1-2.1l-1.5 0.7c-0.8 0.4-3.3 1.1-6.1 1.8-2.5 0.5-5.1 1-5.7 1-0.6 0-2.9-0.4-5.2-0.9-2.3-0.6-4.8-1.2-6.8-2l-3 2.2c-1.6 1.1-3.7 2.5-4.7 2.9-1.2 0.7-2.9 1.2-5.6 1.9-2.2 0.5-4.9 1.2-6.1 1.4-1.2 0.2-3 0.4-4.1 0.4-1.1 0-2.7-0.1-3.6-0.3-1-0.2-3.5-0.8-5.6-1.3-2-0.5-4.3-1.2-5-1.5-0.6-0.2-1.9-1-4.2-2.7l-1.4 0.4c-0.8 0.2-3.5 0.9-6 1.5-2.6 0.6-5.5 1.2-6.5 1.4-1 0.2-2.9 0.4-4.2 0.4-1.3 0-3.1-0.2-3.8-0.3-0.8-0.1-3.3-0.6-5.6-1.2-2.3-0.5-4.8-1.2-5.5-1.4-1.4-0.4-1.4-0.4-2 0-0.3 0.2-1.3 0.7-2.1 1.1-0.9 0.4-3.7 1.2-6.4 1.9-4.4 1.1-5.2 1.2-7.4 1.2-2.1 0.1-2.7 0-6.7-1-3.6-0.9-4.6-1.2-5.5-1.8-0.6-0.4-2-1.5-5.3-4l-3.7 0.9c-2.3 0.6-4.2 0.9-5.2 0.9-1.1 0-2.6-0.2-5.8-1-2.4-0.6-4.9-1.3-5.4-1.6-0.6-0.3-2.2-1.3-3.5-2.3-1.4-1-2.8-2-3.1-2.3-0.3-0.3-1.6-1.9-2.8-3.5-1.1-1.7-2.4-3.5-2.7-4.2-0.3-0.6-0.6-1.7-0.8-2.3-0.1-0.6-0.3-1.1-0.3-1.1 0-0.1-0.7 0.2-1.3 0.7-0.7 0.4-2 1-2.8 1.4-0.9 0.4-2.5 1-3.7 1.4-2.2 0.7-2.2 0.8-2.9 1.8-0.3 0.6-1.5 2.4-2.6 3.9-1.1 1.6-2.7 3.6-3.4 4.5-0.8 0.9-2.1 2.1-2.8 2.7-0.8 0.6-2.6 2-4.2 3.1-1.5 1-3.4 2.2-4.3 2.6-1 0.5-3.5 1.3-6.3 1.9-2.6 0.7-5.4 1.3-6.3 1.5-0.8 0.1-2.4 0.2-3.6 0.1-1.4-0.1-3.4-0.5-6.6-1.2-2.5-0.7-5-1.3-5.5-1.6-0.4-0.2-2-1.2-3.3-2.1-1.4-1-3-2.3-3.6-2.9-0.6-0.5-1.2-1.3-1.5-1.7-0.2-0.4-0.5-0.7-0.6-0.7-0.1 0-0.7 0.3-1.3 0.6-0.7 0.4-1.9 0.9-2.6 1.2-0.8 0.3-3.8 1.1-6.7 1.8-4.3 1-5.7 1.3-7.7 1.4-1.4 0-3.4 0-4.4-0.2-1-0.1-4.2-0.8-7-1.5-3.1-0.7-5.7-1.5-6.5-1.9-0.8-0.4-2.3-1.3-3.3-2-1.6-1.2-1.9-1.3-2.2-1.1-0.2 0.2-1.8 1.3-3.5 2.6-1.7 1.2-4 2.6-5 3.1-1 0.6-2.7 1.2-3.7 1.5-1 0.4-4 1.1-6.5 1.7-4 1-5.2 1.1-7.7 1.2-1.7 0.1-3.7 0.1-4.8-0.1-1-0.1-3.9-0.7-6.5-1.3-2.6-0.6-5.5-1.4-6.3-1.7-0.9-0.3-2.2-0.8-2.9-1.2-0.6-0.3-2.5-1.5-4-2.6-1.6-1.1-3.5-2.7-4.4-3.6-0.8-0.8-2.4-2.7-3.5-4.2-1-1.5-2.3-3.5-2.8-4.4-0.6-1.1-1.1-2.8-1.8-5.5-0.5-2.2-1.1-4.9-1.4-6.1-0.2-1.2-0.4-3-0.4-4.1 0-1.3 0.2-3 0.5-4.7 0.3-1.4 1-4.1 1.4-6 0.5-2 1.2-4 1.6-5 0.5-0.9 1.7-2.8 2.7-4.2 1-1.5 2.3-3.1 2.9-3.7 0.6-0.6 2.2-1.9 3.6-2.9 1.4-1 2.7-1.9 2.8-2 0.2 0 0.3-0.5 0.1-1.7-0.1-0.8-0.1-2.5 0-3.7 0.1-1.5 0.4-3.7 1.3-7.2 0.6-2.8 1.4-5.8 1.7-6.7 0.4-0.9 1-2.2 1.4-2.9 0.3-0.7 1.7-2.7 2.9-4.5 1.3-1.7 3.1-3.9 4-4.9 1-1 3.2-2.7 4.8-3.9 1.7-1.2 3.9-2.5 4.8-3 1.2-0.6 3.3-1.2 6.8-2 2.8-0.7 5.8-1.3 6.9-1.4 1.8-0.2 1.8-0.2 1.3-0.5-0.3-0.2-1.5-0.9-2.5-1.4-1.1-0.6-2.9-1.6-4.1-2.1-1.1-0.5-3.3-1.4-7.7-3l-1.2 0.6c-0.8 0.4-3 1.1-5.8 1.7-2.5 0.7-4.9 1.2-5.4 1.2-0.4 0-2.7-0.5-5-1-2.3-0.6-4.5-1.2-4.9-1.3-0.3-0.2-1.8-1.1-3.1-2.1-1.4-1-2.9-2.1-3.4-2.6-0.4-0.4-1.7-2-2.8-3.4-1.1-1.4-2.3-3.2-2.7-3.8-0.4-0.7-0.9-1.9-1.2-2.6-0.3-0.8-1.1-3.6-1.7-6.1-0.7-3.2-1.1-5.2-1.1-6.2 0-1 0.3-2.8 1-5.7 0.5-2.3 1.2-4.6 1.4-5.1 0.2-0.4 1.2-1.9 2.1-3.2 1.6-2.2 2-2.6 4.1-4.1 1.3-1 2.4-1.8 2.5-1.8 0 0-0.1-0.7-0.3-1.5-0.2-1-0.3-2.1-0.3-3 0.1-0.8 0.6-3.3 2.2-9.9l1.8-2.5c1-1.4 2.1-2.9 2.6-3.5 0.5-0.5 2.2-1.9 6.6-5l2.7-0.7c1.5-0.3 2.8-0.7 2.9-0.8 0-0.1 0.6-1.4 1.2-2.8 0.6-1.5 1.7-3.9 2.4-5.4 0.8-1.7 2.2-3.8 3.6-5.8 1.2-1.8 2.9-3.8 3.6-4.6 0.8-0.8 2.6-2.3 4.1-3.3 1.4-1 3.2-2.2 4-2.6 0.9-0.4 3.3-1.1 6-1.7 2.5-0.6 4.8-1.1 5-1.2 0.3-0.1 1.6-0.1 3.1-0.1z"/>
		<path id="Path 2" fill-rule="evenodd" class="s0" d="m45.3 337.2l5.9 0.1c5.7 0.1 6 0.1 7 0.6 0.6 0.2 1.4 0.8 1.8 1.2 0.5 0.4 1 1 1.2 1.5 0.3 0.5 0.5 1.5 0.6 2.3 0 1 0 1.9-0.3 2.6-0.2 0.7-0.6 1.6-0.9 2.1-0.4 0.5-1.1 1.2-1.7 1.6-0.6 0.4-1.6 0.9-2.2 1-0.6 0.2-2.2 0.4-6 0.7v6.2h-5.5zm5.5 9.6c2.8-0.2 3.8-0.4 4.2-0.5 0.3-0.2 0.7-0.6 0.9-0.8 0.2-0.3 0.4-0.9 0.5-1.4 0.1-0.6 0-1.1-0.3-1.6-0.2-0.4-0.7-0.9-1.1-1-0.5-0.2-1.4-0.4-2.5-0.4h-1.7zm19.5-9.6h6.1l3.6 9.7c1.9 5.3 3.6 9.8 3.6 9.9 0.1 0.3-0.5 0.3-5.4 0.2l-1.4-3.8-7.1 0.1-1.4 3.8h-2.6c-1.5 0-2.7-0.1-2.7-0.2 0.1-0.1 1.7-4.6 3.7-9.9zm1.8 9c-0.6 1.6-1 2.9-1 3 0 0.1 1 0.2 2.3 0.2h2.3c-1.8-5-2.3-6.5-2.3-6.5 0-0.1-0.1 0-0.2 0.2-0.1 0.2-0.6 1.6-1.1 3.1zm14.2-9h6.5l6.7 10.7 0.1-10.7h5.1v19.8l-5.3-0.1-7.9-12.8-0.1 12.9h-5.1zm28.3 0h6.1l3.6 9.7c1.9 5.3 3.6 9.8 3.6 9.9 0.1 0.2-0.5 0.3-5.4 0.2l-1.4-3.8-7.1 0.1-1.4 3.8h-2.6c-1.5 0-2.7-0.1-2.7-0.2 0.1-0.1 1.7-4.6 3.7-9.9zm1.8 9c-0.6 1.5-1 2.9-1 3 0 0.1 1 0.2 2.3 0.2h2.3c-1.8-5-2.3-6.5-2.3-6.5 0-0.1-0.1 0-0.2 0.2-0.1 0.1-0.6 1.5-1.1 3.1zm14.2-9h5.1c3.7 0 5.5 0 6.5 0.3 0.7 0.2 1.8 0.6 2.4 0.9 0.6 0.3 1.5 0.8 1.9 1.2 0.4 0.4 1.2 1.3 1.6 2q0.9 1.3 1.2 3c0.3 1.1 0.3 2.2 0.3 3.2-0.1 0.9-0.3 2.2-0.6 2.9-0.2 0.6-0.8 1.7-1.3 2.4-0.5 0.7-1.4 1.6-2.2 2.1-0.8 0.5-1.9 1.1-2.5 1.3-0.9 0.3-2.3 0.4-12.4 0.5zm5.5 16.2c2.6-0.2 3.8-0.4 4.3-0.5 0.6-0.2 1.4-0.7 1.9-1.1 0.5-0.4 1-1.2 1.3-1.6 0.2-0.5 0.4-1.5 0.5-2.2 0.1-0.9 0-1.7-0.2-2.7-0.2-0.8-0.7-1.8-1-2.2-0.3-0.4-1.2-1-1.8-1.4-1-0.5-1.4-0.6-3.1-0.6h-1.9zm17.2-16.1h14.6l-0.1 4-9.2 0.1v3.1h8.7l-0.1 4-8.6 0.1v4.6h9.3v3.9h-14.6zm18.6 0l6.1 0.1c5.9 0.1 6.2 0.1 7.3 0.6 0.6 0.2 1.4 0.7 1.7 1 0.4 0.4 0.8 1 1 1.5 0.3 0.6 0.5 1.4 0.5 2.3 0 0.8-0.2 1.8-0.4 2.4-0.1 0.5-0.5 1.2-0.8 1.5-0.3 0.4-0.9 1-1.5 1.4-0.5 0.4-1 0.7-1 0.7 0 0.1 1.4 1.9 3.1 4.1 1.8 2.3 3.2 4.1 3.2 4.2 0 0.1-1.5 0.1-6.5 0.1l-5.1-7h-2.4v7h-5.2zm5.2 9.2c2.6-0.2 3.6-0.3 3.9-0.3 0.3-0.1 0.9-0.5 1.3-0.9 0.5-0.6 0.7-1 0.7-1.7 0-0.4-0.2-1.1-0.3-1.4-0.2-0.3-0.6-0.7-0.9-0.9-0.3-0.1-1.4-0.3-2.6-0.3h-2.1zm15.2-9.1h11.8v3.7h-3.2v12.6h3.2v3.5h-11.7v-3.5h3.2v-12.6l-3.1-0.1zm20.8 0h6.1l3.6 9.6c2 5.3 3.6 9.8 3.7 10 0 0.2-0.6 0.2-5.5 0.1l-1.3-3.8-7.2 0.1-1.3 3.8h-2.7c-1.5 0-2.7-0.1-2.6-0.2 0-0.1 1.6-4.5 3.6-9.9zm1.8 9c-0.6 1.6-1 2.9-1 3 0 0.1 1 0.2 2.3 0.2h2.3c-1.8-5-2.3-6.4-2.3-6.5 0-0.1-0.1 0.1-0.2 0.2-0.1 0.2-0.6 1.6-1.1 3.1zm51.6-9h5.9c5.7 0.1 6 0.1 7 0.6 0.7 0.3 1.5 0.8 1.9 1.2 0.4 0.4 0.9 1.1 1.2 1.6 0.2 0.5 0.4 1.5 0.5 2.3 0.1 0.9 0 1.8-0.2 2.6-0.2 0.7-0.7 1.6-1 2.1-0.4 0.4-1.1 1.2-1.7 1.5-0.6 0.4-1.6 0.9-2.2 1.1-0.6 0.2-2.2 0.4-6 0.6l-0.1 6.4h-5.2zm5.4 9.6c2.8-0.2 3.9-0.4 4.2-0.6 0.3-0.1 0.8-0.5 0.9-0.8 0.2-0.2 0.4-0.8 0.5-1.3 0.1-0.7 0-1.1-0.3-1.6-0.2-0.4-0.7-0.9-1.1-1-0.4-0.3-1.4-0.4-2.5-0.4h-1.7zm19.7-9.6h6.2l3.6 9.9c2 5.4 3.7 9.9 3.7 10 0 0.1-1.3 0.2-5.5 0.2l-1.4-4.2-7.1 0.2-1.5 3.9h-2.6c-1.5 0.1-2.7 0-2.7-0.1 0-0.1 1.7-4.6 3.7-10zm1.7 9c-0.5 1.6-0.9 2.9-0.9 3 0 0.1 1 0.2 2.3 0.2h2.2c-1.7-5-2.2-6.5-2.2-6.5 0-0.1-0.1 0-0.2 0.2-0.1 0.2-0.6 1.6-1.2 3.1zm31.8-9h17.7v4.1h-6.2v15.7h-5.4v-15.7l-6-0.1zm20.5 0h14.6l-0.1 4.1-9.2 0.1v3h8.7l-0.1 4.1-8.6 0.1v4.5h9.3v4h-14.6zm18.6 0h5.4v15.9h9.2v3.9h-14.6zm17.4 0h14.6l-0.1 4.1-9.2 0.1v3h8.7l-0.1 4.1-8.6 0.1v4.6h9.3v3.9h-14.6zm18.6 0h6.1c5.9 0.1 6.2 0.1 7.3 0.6 0.6 0.3 1.3 0.8 1.7 1.1 0.3 0.3 0.8 1 1 1.4 0.3 0.6 0.4 1.4 0.4 2.3 0 0.8-0.1 1.9-0.3 2.4-0.2 0.5-0.5 1.2-0.8 1.6-0.3 0.3-0.9 0.9-1.5 1.3-0.5 0.4-1 0.7-1 0.8 0 0 1.3 1.8 3.1 4.1 1.7 2.2 3.2 4.1 3.2 4.1 0 0.1-1.5 0.1-6.5 0.1l-5.1-7h-2.4v7h-5.2zm5.2 9.2c2.6-0.2 3.6-0.3 3.9-0.3 0.3-0.1 0.9-0.5 1.3-0.9 0.5-0.6 0.7-0.9 0.7-1.6 0-0.5-0.2-1.2-0.3-1.5-0.2-0.3-0.6-0.7-0.9-0.9-0.3-0.1-1.5-0.2-2.7-0.2h-2zm15.2-9.2h11.8v3.7h-3.2v12.7h3.2v3.4h-11.8v-3.4h3.3v-12.7l-3.1-0.1zm20.8 0h6.1l3.6 9.7c2 5.3 3.6 9.7 3.6 9.9 0.1 0.2-0.5 0.2-5.4 0.1l-1.3-3.8-7.2 0.1-1.4 3.8h-2.6c-1.5 0-2.7 0-2.7-0.1 0.1-0.2 1.7-4.6 3.7-10zm1.8 9.1c-0.6 1.5-1 2.9-1 2.9 0 0.2 1 0.2 2.3 0.2h2.3c-1.8-4.9-2.3-6.4-2.3-6.5 0 0-0.1 0.1-0.2 0.2-0.1 0.2-0.6 1.6-1.1 3.2zm-197.6-4.7c0.9 0 1.8 0.1 2.3 0.4 0.5 0.2 1.2 0.7 1.6 1.1 0.5 0.5 1 1.2 1.2 1.7 0.2 0.5 0.4 1.3 0.4 2.2 0 1-0.2 1.8-0.4 2.3-0.2 0.5-0.7 1.3-1.2 1.6-0.4 0.5-1.1 1-1.6 1.2-0.5 0.2-1.4 0.4-2.3 0.4-0.9 0-1.7-0.2-2.2-0.4-0.5-0.2-1.3-0.7-1.7-1.2-0.4-0.3-0.9-1.1-1.1-1.6-0.3-0.5-0.4-1.3-0.4-2.3 0-0.9 0.1-1.7 0.4-2.2 0.2-0.5 0.7-1.2 1.1-1.7 0.4-0.4 1.2-0.9 1.7-1.1 0.5-0.3 1.3-0.4 2.2-0.4z"/>
		<path id="Path 3" class="s2" d="m73.4 119.2c2 0.1 3.2 0.3 6.2 1 2.1 0.5 4.4 1.1 5.2 1.5 0.9 0.3 2.7 1.3 4.1 2.2 1.4 1 3 2.2 3.7 2.8 0.6 0.5 1.9 2.1 2.9 3.4 0.9 1.3 2.1 3.1 2.5 3.9 0.4 0.9 1.1 3.1 1.5 4.8 0.7 2.9 0.8 3.6 0.8 5.8 0 2.2-0.1 3-0.8 5.8-0.5 1.8-1.1 4-1.5 4.9-0.4 0.9-1.4 2.7-2.3 4-0.9 1.4-2 2.9-2.4 3.4-0.4 0.5-0.7 1-0.7 1.1q0 0.2 0.8 0c0.5-0.1 1.3-0.2 1.9-0.2 0.5 0 2.4 0.4 4.2 0.8 2.4 0.6 3.5 0.9 5.2 2.1l5.9-0.3 2.3-3.2c1.3-1.8 5.6-7.9 9.5-13.6 6.7-9.7 7.2-10.5 7.9-12.4 0.4-1.1 1-2.6 1.4-3.3 0.3-0.6 1.3-2.1 2.1-3.3 0.8-1.1 2-2.5 2.6-3.1 0.5-0.5 1.8-1.6 2.9-2.3 1-0.7 2.4-1.6 3.1-2 0.8-0.3 2.4-0.9 3.6-1.2 1.3-0.3 3-0.7 3.8-0.9 0.8-0.1 2-0.3 2.7-0.3 0.7 0 2.7 0.4 4.5 0.8 1.8 0.4 3.8 1 4.3 1.3 0.5 0.2 1.9 1.1 2.9 1.9 1.6 1.1 2.2 1.7 3.3 3.3 0.8 1.1 1.5 2.3 1.7 2.7 0.2 0.3 0.7 1.9 1 3.5 0.4 1.6 0.7 3.1 0.7 3.4 0 0.3-0.3 1.7-0.7 3.2-0.5 2.5-0.7 2.9-1.8 4.5-0.7 0.9-1.5 2-1.8 2.3-0.3 0.4-1.5 1.4-2.7 2.2-1.1 0.9-2.1 1.6-2.1 1.6 0 0-0.2 1.2-0.4 2.7-0.1 1.5-0.4 4.3-0.5 6.1-0.2 1.9-0.3 3.4-0.2 3.5 0 0 0.6-0.1 1.3-0.2 1.1-0.3 1.4-0.2 4.3 0.4 3.1 0.8 3.2 0.8 5 2.1 1.3 0.9 2.3 1.8 3 2.8 0.7 0.9 1.3 1.8 1.5 2.1 0.1 0.3 0.5 1.7 0.9 3 0.3 1.3 0.5 2.8 0.5 3.3 0 0.4-0.3 2.1-0.6 3.6-0.5 2-1 3.4-1.6 4.5-0.5 0.9-1.6 2.8-2.6 4.2-1 1.4-2.7 3.5-3.7 4.7-1 1.2-2.8 3-4 4-1.2 1.1-3.5 2.9-5 4-1.6 1.1-3.6 2.5-4.5 3.1-0.9 0.5-2.4 1.3-3.4 1.7-0.9 0.4-3.3 1.1-5.2 1.5-3 0.7-3.8 0.8-5.1 0.7-0.9 0-3-0.4-4.5-0.8-1.6-0.3-3.2-0.8-3.7-1-0.5-0.3-1.7-1-2.8-1.8-1.5-1.1-2.1-1.7-3.3-3.5-1.1-1.5-1.6-2.5-2.4-5.3l-1.7 2c-0.9 1.2-2.5 3-3.6 4-1.1 1.1-3.2 2.9-4.8 4-1.5 1.1-3.7 2.5-4.8 3-1.5 0.8-2.9 1.2-5.8 1.9-3.5 0.9-4 1-6.7 1-2.5 0-3.3-0.1-7.8-1.2l-0.3 0.5c-0.2 0.2-0.6 0.8-1 1.2-0.4 0.4-1.5 1.4-2.5 2.1-1 0.8-2.2 1.5-2.5 1.7-0.4 0.2-1.9 0.7-6.1 1.7l-5-1.2-3.2-2.4c-1.9-1.4-4.3-3-5.8-3.8-1.4-0.7-3.8-1.8-5.3-2.4-1.5-0.7-4.2-1.6-6.1-2.2-1.8-0.6-3.4-1.1-3.6-1.1-0.2 0-0.8 0.3-1.4 0.7-0.5 0.4-1.4 1-1.9 1.2-0.5 0.3-2.4 0.8-4.2 1.3-1.8 0.4-3.5 0.7-3.8 0.7-0.3 0-1.9-0.3-3.5-0.7-1.6-0.3-3.2-0.8-3.5-1-0.4-0.2-1.6-0.9-2.6-1.7-1.1-0.7-2.4-1.7-2.8-2.2-0.4-0.4-1.4-1.8-2.2-2.9-0.8-1.1-1.8-2.8-2.2-3.7-0.5-0.9-1.2-3.1-1.6-4.9-0.7-2.7-0.8-3.7-0.8-5.5 0-1.7 0.1-2.7 0.7-4.9 0.6-2.5 0.8-2.9 2.1-4.8 1.2-1.7 1.7-2.3 3.2-3.3 1-0.7 2.2-1.5 2.6-1.7 0.4-0.2 1.4-0.6 2.2-0.8 0.7-0.2 1.4-0.3 1.4-0.4 0.1 0-0.1-0.3-0.2-0.6-0.2-0.4-0.7-1.9-1-3.5-0.4-1.5-0.7-3.2-0.7-3.7 0-0.5 0.3-2.2 0.7-3.9 0.4-1.6 0.9-3.3 1.1-3.8 0.3-0.5 1-1.5 1.6-2.4 0.6-0.8 1.3-1.7 1.5-2 0.3-0.3 1.4-1.2 2.5-2 2-1.5 2.2-1.5 4.6-2.1 2.2-0.5 2.7-0.6 3.6-0.3 0.6 0.1 1.1 0.2 1.1 0.1 0 0 0.7-1.8 1.6-3.9 0.9-2.2 2.4-5.5 3.3-7.4 1-2 2.4-4.5 3.2-5.6 0.8-1.1 1.9-2.6 2.4-3.2 0.5-0.5 1.9-1.8 3.2-2.8 1.4-0.9 3-2 3.8-2.3 0.7-0.4 2.7-1 4.4-1.4 1.8-0.4 3.4-0.8 3.7-0.8 0.3-0.1 1.7-0.1 3.1-0.1zm275 102q1.5 0 4.7 0.8c1.8 0.4 3.6 0.9 4.1 1.2 0.6 0.2 1.8 1 2.7 1.7 1.3 0.9 2.1 1.7 3 2.9 0.7 1 1.5 2.1 1.6 2.4 0.2 0.4 0.6 1.8 1.4 5.6l0.8-0.7c0.5-0.4 1.8-1.4 2.9-2.2 1.2-0.8 2.7-1.7 3.3-2 0.7-0.3 2.7-0.9 4.5-1.3 2.4-0.6 3.8-0.8 5.2-0.9 1.6 0 2.6 0.2 4.9 0.7 1.6 0.5 3.4 1 3.8 1.3 0.5 0.2 1.7 1 2.6 1.7 1 0.7 2.1 1.8 2.7 2.6 0.5 0.7 1.2 1.7 1.5 2.2 0.3 0.5 0.8 1.9 1.1 3.2 0.3 1.3 0.7 2.7 0.8 3.3 0.1 0.9 0.1 1.5-0.5 3.9-0.4 1.6-0.8 3.3-1 3.7-0.3 0.4-1.1 1.6-1.8 2.7-0.9 1.3-2.6 3.2-7.9 8.3l-0.5 2.9c-0.5 2.9-0.5 2.9 0 2.8 0.2-0.1 1.2 0.1 2.2 0.3 1.3 0.3 1.9 0.4 2.6 0.2 0.5-0.1 1.3-0.2 1.9-0.2 0.6 0 2.5 0.4 4.2 0.8 2.4 0.6 3.5 0.9 5.2 2.1l5.9-0.3 2.3-3.2c1.3-1.8 5.6-7.9 9.5-13.6 6.8-9.7 7.3-10.5 7.9-12.4 0.4-1.1 1-2.6 1.4-3.3 0.4-0.6 1.3-2.1 2.2-3.2 0.8-1.2 1.9-2.6 2.5-3.1 0.6-0.6 1.9-1.7 2.9-2.4 1-0.7 2.4-1.6 3.2-2 0.7-0.3 2.3-0.9 3.6-1.2 1.2-0.3 2.9-0.7 3.7-0.9 0.8-0.1 2.1-0.3 2.7-0.3 0.7 0 2.8 0.4 4.6 0.8 1.8 0.4 3.7 1 4.2 1.3 0.6 0.3 1.9 1.1 3 1.9 1.6 1.1 2.1 1.7 3.3 3.3 0.7 1.1 1.5 2.3 1.6 2.7 0.2 0.3 0.7 1.9 1.1 3.5 0.3 1.6 0.6 3.1 0.6 3.4 0 0.3-0.2 1.7-0.6 3.2-0.6 2.5-0.8 2.9-1.9 4.5-0.7 0.9-1.5 2-1.8 2.4-0.3 0.3-1.5 1.3-2.6 2.1-1.2 0.9-2.1 1.6-2.2 1.6 0 0-0.2 1.2-0.3 2.7-0.2 1.5-0.4 4.3-0.6 6.1-0.1 1.9-0.2 3.4-0.2 3.5 0.1 0 0.6-0.1 1.3-0.2 1.1-0.3 1.4-0.2 4.4 0.5 3 0.7 3.2 0.7 5 2 1.2 0.9 2.2 1.8 3 2.8 0.6 0.9 1.3 1.8 1.4 2.1 0.2 0.3 0.6 1.7 0.9 3 0.3 1.4 0.6 2.8 0.6 3.3 0 0.4-0.3 2.1-0.7 3.6-0.5 2-1 3.4-1.5 4.5-0.5 0.9-1.7 2.8-2.7 4.2-1 1.4-2.6 3.5-3.7 4.7-1 1.2-2.8 3-4 4-1.2 1.1-3.4 2.9-5 4-1.6 1.2-3.6 2.5-4.5 3.1-0.9 0.5-2.4 1.3-3.4 1.7-0.9 0.4-3.3 1.1-5.2 1.5-2.9 0.7-3.7 0.8-5.1 0.7-0.9 0-2.9-0.4-4.5-0.8-1.6-0.3-3.2-0.8-3.7-1-0.5-0.3-1.7-1-2.7-1.8-1.5-1.1-2.1-1.7-3.4-3.4-1-1.6-1.6-2.6-2.4-5.3l-1.6 2c-0.9 1.1-2.6 2.9-3.7 3.9-1.1 1.1-3.2 3-4.8 4-1.5 1.2-3.6 2.5-4.7 3.1-1.5 0.7-2.9 1.2-5.7 1.8-2.4 0.6-4.5 0.9-5.9 1-1.3 0.1-2.8 0.1-3.7-0.1-0.8-0.2-2.9-0.6-4.6-1-1.7-0.4-3.6-1-4.4-1.4-0.7-0.4-2.1-1.3-3.1-2-1-0.7-2.1-1.5-2.3-1.8-0.4-0.4-0.4-0.4-2 0.3-0.8 0.4-3 1.1-4.9 1.6-2.5 0.6-3.8 0.8-5.1 0.8-1.2 0-2.7-0.2-5-0.8-1.7-0.4-3.4-0.9-3.8-1-0.3-0.2-1.4-0.9-2.4-1.6-1-0.7-2-1.7-2.3-2.1-0.3-0.5-0.7-0.8-0.8-0.8-0.1 0-1 0.5-1.9 1.2-0.9 0.6-2.3 1.5-3 1.8-0.7 0.4-2.6 1-4.3 1.4-2.1 0.5-3.4 0.7-4.6 0.7-1.3-0.1-2.7-0.3-5-0.9-1.7-0.4-3.5-1-3.9-1.2-0.4-0.3-1.4-1-3.6-2.6l-1.5 1.5c-0.8 0.8-2.6 2.2-3.8 3.1-1.3 0.9-2.8 1.9-3.5 2.3-0.6 0.4-1.7 1-2.5 1.3-0.7 0.3-2.9 1-4.9 1.4-2.3 0.6-4.4 0.9-5.8 1-1.3 0.1-2.8 0-3.7-0.1-0.8-0.2-2.9-0.6-4.6-1-1.7-0.4-3.6-1.1-4.3-1.4-0.6-0.3-2-1.2-3-1.9-1-0.8-2.1-1.6-2.8-2.5l-1.6 0.7c-0.9 0.5-2.5 1.1-3.7 1.4-1.1 0.4-3.5 1-5.3 1.5-1.8 0.4-4.1 0.8-5 1-0.9 0.1-2.5 0.2-3.6 0.2-1 0-2.6-0.1-3.4-0.2-0.9-0.1-3-0.6-4.8-1-1.7-0.4-3.8-1-4.7-1.3-0.8-0.3-2-0.9-3.7-1.9l-2.1 1.5c-1.1 0.7-2.6 1.6-3.3 1.9-0.7 0.4-2.9 1-4.9 1.5-2 0.5-4.4 0.9-5.3 1-1.5 0.1-2.2 0-5.1-0.7-2.6-0.6-3.7-1-4.4-1.5-0.6-0.4-1.6-1.1-2.3-1.6-0.9-0.7-1.7-1.5-4.3-5.1l-1.7 1.1c-1.5 1.1-1.9 1.2-4.7 1.9-1.8 0.4-3.6 0.7-4.5 0.7-0.8 0-2.5-0.3-4.2-0.7-1.6-0.3-3.3-0.8-3.8-1.1-0.6-0.2-2-1.1-3.2-2-1.8-1.4-2.4-2-3.7-3.8-0.9-1.1-1.8-2.5-2.1-3.1-0.3-0.5-0.9-2-1.2-3.3-0.3-1.2-0.7-3-0.9-3.8-0.2-1.2-0.2-1.9-0.1-3.1q0.2-1.4 0.5-3.4l-1.2 1.2c-0.7 0.6-2.7 2.1-4.5 3.4-1.7 1.2-4.3 2.8-5.7 3.5-1.3 0.7-3.3 1.6-4.3 2-1.1 0.3-2.4 0.8-4.4 1.2l-0.9 1.7c-0.5 0.8-1.5 2.5-2.2 3.6-0.7 1-1.8 2.6-2.5 3.4-0.6 0.9-1.8 2.2-2.6 3-0.8 0.8-2.6 2.3-4 3.3-1.4 0.9-3.3 2.1-4.2 2.5-0.9 0.5-3.2 1.2-5.4 1.8-3.5 0.9-4 0.9-6.8 1-2.7 0-3.2-0.1-6.1-0.8-1.8-0.5-3.8-1.1-4.4-1.4-0.6-0.3-1.8-1.1-2.7-1.7-0.8-0.6-1.7-1.3-2-1.5-0.3-0.3-1-1.2-1.7-2-0.6-0.8-1.4-2-1.7-2.5-0.3-0.5-0.7-1.4-1.3-3.3l-2.2 1.5c-1.2 0.9-2.8 2-3.6 2.4-0.8 0.5-2.2 1.1-3.1 1.5-0.9 0.4-3.4 1.1-5.5 1.6-3.9 0.9-4 1-7.6 0.9-3.5 0-3.6 0-7.7-1-2.7-0.7-4.7-1.3-5.9-1.9-0.9-0.4-2.8-1.6-4.2-2.6-1.4-1-2.9-2.3-3.3-2.8-0.4-0.6-0.8-1.1-0.8-1.1-0.1-0.1-0.3 0.1-0.5 0.4-0.2 0.3-1 1.3-1.9 2.2-0.8 0.8-2.5 2.3-3.8 3.2-1.3 1-3.1 2.2-4 2.8-1 0.5-2.6 1.3-3.5 1.7-1 0.3-3.3 1-5.3 1.5-1.9 0.4-4.2 0.9-5.1 1-1 0.2-2.6 0.3-3.8 0.3-1 0-2.9-0.2-4-0.4-1.2-0.1-3.7-0.7-5.7-1.2-2.4-0.6-4.2-1.2-5.6-1.8-1.1-0.5-3-1.6-4.2-2.5-1.3-0.9-2.8-2.1-3.4-2.7-0.6-0.6-1.8-2.1-2.7-3.3-0.8-1.2-1.9-2.9-2.3-3.7-0.4-0.9-1.1-2.7-1.4-4.2-0.4-1.4-0.9-3.6-1.1-4.7-0.3-1.2-0.5-2.9-0.5-3.8 0-1 0.1-2.4 0.3-3.1 0.1-0.8 0.5-2.9 1-4.6 0.4-1.9 1.1-3.9 1.6-5 0.5-1.1 1.5-2.7 2.2-3.8 0.7-1 1.6-2.1 1.9-2.4 0.3-0.4 1-1 1.7-1.5 0.5-0.4 1.7-1.2 2.6-1.8 1.1-0.8 2-1.1 3.5-1.5 1.1-0.3 2-0.6 2-0.7 0-0.1-0.2-1.3-0.5-2.5-0.3-1.3-0.6-3.3-0.7-4.5-0.1-1.3 0-2.9 0.1-3.9 0.2-1 0.6-3 0.9-4.6 0.4-1.6 0.9-3.6 1.2-4.4 0.3-0.9 0.9-2.3 1.3-3.1 0.4-0.8 1.6-2.6 2.6-4.1 1-1.4 2.4-3.2 3.2-4 0.8-0.8 2.4-2.2 3.7-3.1 1.3-0.8 3.1-2 4.2-2.5 1.3-0.7 2.8-1.2 5.6-1.9 3.6-0.8 4.1-0.9 6.8-0.9 2.7 0 3.2 0.1 6.8 0.9 2.7 0.7 4.2 1.2 7.2 2.7l1.5-0.8c0.9-0.5 2.4-1.2 3.3-1.5 0.8-0.3 3-0.8 4.9-1.3 1.7-0.4 4.1-0.8 5.2-1 1.1-0.1 3-0.2 4.4-0.1 1.7 0.1 3.3 0.3 5.7 0.9 1.9 0.4 4 1.1 4.7 1.4 0.7 0.3 2.4 1.3 3.6 2.2 1.3 0.9 2.6 2.1 3.6 3.4l1.6-1.1c0.9-0.7 2-1.4 2.4-1.6 0.5-0.3 2.1-0.8 3.7-1.1 1.5-0.4 3.2-0.7 3.7-0.7 0.5 0 2.3 0.3 4.1 0.8 2.1 0.4 3.9 1 4.8 1.5 0.9 0.4 2.4 1.3 3.4 2.1 1 0.7 2 1.4 2.1 1.4 0.1 0.1 0.9-0.4 1.7-0.9 0.9-0.6 2.3-1.4 3.3-1.9 0.9-0.5 3-1.3 4.6-1.8 1.6-0.6 3.1-1 3.3-1 0.3 0 0.9-0.4 1.4-0.8 0.5-0.5 1.9-1.5 3-2.3 1.1-0.8 2.5-1.6 3-1.8 0.4-0.2 2.2-0.7 4-1.1 1.7-0.4 3.5-0.8 3.9-0.8 0.4 0 2.1 0.4 3.6 0.7 2.6 0.6 3 0.8 4.5 1.9 1.1 0.7 1.9 1.6 2.5 2.4 0.9 1.3 0.9 1.3 2.9 1.8 1 0.3 2.7 0.8 3.6 1.2 1 0.4 2.3 1 3 1.4 0.6 0.4 2.2 1.5 5.7 4l2.3-1.6c1.3-0.8 3.4-2.1 4.8-2.7 1.3-0.6 3.3-1.5 4.5-1.9 1.2-0.4 4.2-1.2 6.6-1.8 2.4-0.6 5.5-1.2 6.8-1.4 1.8-0.2 3.6-0.3 6-0.2 2 0.1 4.4 0.3 5.4 0.5 1 0.2 3.3 0.7 5 1.1 1.8 0.5 3.9 1.1 4.8 1.5 0.9 0.3 2.2 1 3 1.4 0.7 0.4 2.2 1.5 3.4 2.3 1.2 0.9 2.7 2.1 3.3 2.8 0.6 0.7 1.8 2.2 2.7 3.6 0.9 1.3 1.6 2.4 1.7 2.4 0 0 0.6-0.8 1.4-1.8 0.8-1.1 2.2-2.7 3.2-3.6 0.9-0.9 2.9-2.5 4.3-3.4 1.5-1 3.5-2.3 4.6-2.8 1.4-0.7 3-1.3 5.5-1.9 1.9-0.4 4.2-0.9 5.1-1.1 0.9-0.1 2.6-0.2 3.8-0.1 1.4 0.1 3.4 0.4 5.6 0.9 1.9 0.5 3.9 1.1 4.8 1.5 0.7 0.4 2.3 1.3 3.3 2.1 1.5 1.1 2.3 1.9 3.4 3.3 0.7 1 1.6 2.4 2 3 0.3 0.7 0.9 2.5 1.3 4 0.3 1.5 0.7 3.4 0.9 4.2 0.1 1 0.2 2.3 0.1 3.4-0.1 1.1-0.5 3.6-1 5.6-0.5 2.3-1.2 4.2-1.6 5.1-0.4 0.8-1.3 2.2-2 3.3-0.8 1-1.9 2.3-2.4 2.8-0.6 0.5-1.4 1.2-1.7 1.4-0.5 0.4-0.6 0.6-0.5 0.8 0.2 0.1 0.7 0.1 1.9-0.2 1.3-0.3 1.8-0.3 2.9-0.1 0.7 0.2 2 0.3 2.9 0.3 1.1 0 2.6 0.2 4.7 0.7 3 0.8 3.1 0.9 7.4 3.9l8.7-17.6-0.3-2c-0.3-1.1-0.4-3-0.4-4.5 0-2.4 0.1-3 0.9-6.4 0.6-2.5 1.2-4.2 1.8-5.4 0.5-1 1.6-2.9 2.6-4.2 0.9-1.3 2.3-2.9 3-3.6 0.7-0.7 2.3-2 3.6-2.9 1.3-1 3.1-2 3.8-2.4 0.8-0.3 3-1 4.9-1.4 2.3-0.6 4.1-0.9 5.1-0.9z"/>
		<path id="Path 4" class="s3" d="m72.6 130c0.9 0 2.4 0.2 3.5 0.3 1 0.2 2.7 0.7 3.7 1.1 1 0.3 2.4 1.1 3.3 1.7 0.8 0.5 2.1 1.6 2.8 2.4 0.8 0.9 1.6 2.1 2.2 3.3 0.5 1.1 1.1 2.5 1.2 3.1 0.1 0.7 0.2 1.9 0.2 2.7 0 0.8-0.2 2.2-0.4 3.2-0.2 0.9-0.8 2.4-1.2 3.3-0.4 0.8-1.1 2.1-1.6 2.9-0.6 0.8-1.7 2.1-2.5 3-0.9 0.9-2.3 2.2-3.1 2.9-0.9 0.7-2.5 1.9-3.6 2.6-1.1 0.8-3.3 2-4.7 2.8-1.4 0.7-3.7 1.8-5 2.3-1.3 0.5-3.3 1.3-6.2 2.2l-0.5 1.2c-0.2 0.7-1.1 2.4-1.9 3.8-0.7 1.5-2 3.6-2.8 4.8-0.9 1.4-1.3 2.2-1.1 2.2 0.1 0.1 2 0.5 4.2 0.9 2.2 0.4 5.2 1.2 6.8 1.6 1.5 0.5 3.5 1.2 4.3 1.5 0.9 0.3 2.4 1 3.5 1.5 1.1 0.6 2.5 1.4 3.2 1.8 0.6 0.5 1.7 1.3 2.3 1.8 0.6 0.6 1.5 1.6 1.9 2.3 0.5 0.7 1.1 1.8 1.3 2.5 0.3 0.8 0.4 1.8 0.4 3.1 0.1 1.4-0.1 2.4-0.3 3.2-0.3 0.7-0.6 1.5-0.9 2-0.2 0.4-0.8 1.2-1.3 1.7-0.5 0.5-1.4 1.2-3.1 2l-1.2-1c-0.6-0.6-2.3-1.7-3.6-2.6-1.3-0.9-3.2-2.1-4.2-2.6-1.1-0.6-3.1-1.5-4.5-2.1-1.5-0.7-4.4-1.7-6.5-2.4-2-0.7-5.6-1.8-11.9-3.4l-1 0.9c-0.5 0.5-1.5 1.3-2.1 1.8-0.7 0.5-1.8 1.1-2.5 1.5-1 0.4-1.6 0.6-2.7 0.6-1 0-1.7-0.1-2.3-0.4-0.5-0.3-1.5-1.1-2.3-1.8-1-1-1.6-1.9-2.3-3.4-0.6-1.1-1.1-2.7-1.3-3.5-0.3-0.9-0.4-1.9-0.3-3 0.1-1.2 0.2-1.9 0.6-2.6 0.3-0.5 0.9-1.2 1.3-1.5 0.4-0.3 1.3-0.7 1.9-0.9 0.8-0.3 2-0.3 10.2-0.4l1.1-2.2c0.6-1.2 1.6-3.3 2.3-4.8 0.7-1.5 1.3-3 1.4-3.2 0.1-0.4 0-0.5-1.3-0.8-0.9-0.2-2.1-0.7-2.9-1.1-0.8-0.4-1.9-1.1-2.4-1.7-0.6-0.6-1.2-1.4-1.4-2.1-0.3-0.8-0.4-1.4-0.3-2.4q0.1-1.3 0.7-2.5c0.4-0.6 1.1-1.5 1.6-2 0.6-0.5 1.1-0.8 1.2-0.8 0.1 0 0.5 0.3 1 0.6 0.6 0.3 1.7 1 2.6 1.4 0.9 0.5 2.3 1.1 3.2 1.4 1.1 0.3 1.6 0.4 1.6 0.2 0.1-0.1 0.8-2 1.7-4.2 0.8-2.1 2.2-5.9 3.2-8.3 0.9-2.4 2.5-6 3.5-8 1-2.1 2.3-4.4 2.9-5.1 0.6-0.8 1.6-1.9 2.2-2.4 0.7-0.6 1.8-1.3 2.6-1.6 0.7-0.4 1.9-0.8 2.7-0.9 0.8-0.2 2.1-0.4 2.9-0.4zm80.4 1.6c1.3 0.1 2.2 0.2 3 0.6 0.5 0.3 1.4 0.8 1.9 1.1 0.5 0.4 1.1 1.3 1.5 2.1 0.3 0.7 0.6 1.6 0.6 2 0 0.4-0.1 0.9-0.3 1.3-0.2 0.3-0.9 1.1-1.6 1.7-0.7 0.7-2.4 1.9-3.8 2.9-1.3 0.9-2.5 1.8-2.6 2.1-0.1 0.2-0.4 2-0.6 3.8-0.3 1.9-0.6 4.9-0.8 6.8-0.2 1.8-0.4 5-0.6 6.9-0.1 2-0.2 4-0.3 4.5-0.1 0.9-0.1 0.9 0.7 1.2 0.5 0.1 1.2 0.5 1.6 0.9 0.4 0.4 0.8 1.1 0.9 1.5 0.1 0.4 0.2 1.1 0.2 1.5 0 0.5-0.2 1.4-0.4 2-0.2 0.7-0.5 1.6-0.8 2-0.2 0.4-0.9 1.3-2.5 3.2v1.9c0 1.1 0.1 2.3 0.2 2.7 0.1 0.4 0.4 0.8 0.7 0.9 0.3 0.2 0.7 0.1 1.6-0.3 0.7-0.4 2-1.2 2.9-1.8 0.9-0.7 2.5-2.2 3.6-3.4 1.1-1.1 2.6-2.9 3.3-3.8 1-1.3 1.5-1.8 1.8-1.8 0.3 0 0.8 0.1 1.2 0.3 0.4 0.1 1 0.6 1.3 0.9 0.5 0.6 0.6 1 0.6 1.7 0 0.6-0.2 1.5-0.4 2.1-0.3 0.7-1.1 2.1-1.9 3.3-0.7 1.1-2.2 3-3.2 4.1-1 1.1-2.6 2.7-3.4 3.5-0.9 0.8-2.4 2-3.3 2.7-0.9 0.7-2.4 1.8-3.3 2.4-0.9 0.5-2.3 1.3-3.2 1.7-0.9 0.5-2.3 1-3 1.2-0.7 0.1-1.8 0.3-2.5 0.3-0.6 0-1.7-0.1-2.4-0.3-0.6-0.1-1.7-0.5-2.2-0.9-0.8-0.4-1.2-0.9-1.7-1.7-0.4-0.7-0.8-1.8-0.9-2.7-0.2-1-0.2-2.8 0.1-10.2l-1.1 0.1c-0.6 0.1-2.5 0.3-4.2 0.4-1.8 0.1-4.4 0.3-8.6 0.5l-1.9 2.5c-1 1.4-2.6 3.5-3.5 4.7-0.9 1.1-2.6 2.9-3.6 4-1.1 1.1-2.7 2.5-3.5 3.1-0.8 0.6-2.4 1.6-3.5 2.1-1 0.6-2.6 1.2-3.4 1.4-1 0.2-2.2 0.3-4.3 0.3-2.2 0-3.3-0.1-4.4-0.3-0.8-0.3-1.9-0.7-2.6-1-0.6-0.4-1.8-1.2-2.5-1.8-0.9-0.9-1.6-1.8-2.2-3-0.5-0.9-1.1-2.3-1.3-3.1-0.2-0.8-0.4-2.4-0.5-3.5-0.1-1.4 0-2.6 0.3-3.9 0.2-1.2 0.6-2.5 1.2-3.7 0.6-1.2 1.3-2.3 2.3-3.3 0.7-0.8 1.9-1.7 2.6-2.1 0.7-0.4 1.9-0.9 2.6-1 0.7-0.2 1.8-0.4 2.4-0.4 0.6 0 1.5 0.2 2.1 0.3 0.5 0.2 1.2 0.6 1.5 0.9 0.3 0.2 0.6 0.8 1.1 2l3.4-0.2c1.8-0.1 4.8-0.3 6.6-0.4 1.9-0.1 4.1-0.2 6.4-0.4l2-2.8c1.1-1.5 3.3-4.6 4.9-6.8 1.5-2.2 5.8-8.4 9.5-13.6 5.4-8 6.7-9.9 7-10.9 0.2-0.8 0.8-2.3 1.4-3.4 0.8-1.7 1.3-2.5 2.8-3.9 1.2-1.2 2.1-2 3.1-2.5 0.8-0.3 2-0.8 2.8-1 0.7-0.1 2.1-0.2 3.1-0.2zm195.4 100.5c0.7 0 1.9 0.2 2.6 0.3 0.7 0.2 1.7 0.6 2.1 1 0.5 0.3 1.1 0.8 1.3 1.1 0.2 0.3 0.5 0.9 0.6 1.3 0.1 0.4 0.1 1.3 0 1.9-0.1 0.6-0.6 1.8-1.1 2.8-0.4 1-1.7 3.1-4.7 7.5l1.6 8.7c0.9 4.8 1.8 10.4 2.1 12.5 0.4 2.1 0.6 3.8 0.7 3.8 0 0 3.2-3.8 14.3-17.2l0.5-1.8c0.3-0.9 0.8-2.4 1.1-3.1 0.3-0.8 0.8-2.1 1.2-2.9 0.4-0.8 1.1-2 1.7-2.7 0.5-0.7 1.5-1.8 2.2-2.5 0.7-0.7 2-1.5 3-2 1.1-0.5 2.3-0.9 3.4-1.1 0.9-0.1 2.2-0.2 2.8-0.1 0.7 0.1 1.6 0.4 2.2 0.6 0.5 0.2 1.3 0.7 1.6 1 0.3 0.3 0.8 0.9 1 1.3 0.1 0.3 0.4 1 0.5 1.5 0.1 0.5 0.1 1.2-0.1 1.7-0.1 0.4-0.7 1.5-1.4 2.4-0.8 0.8-2.9 3.1-8.5 8.4l-0.7 3.3c-0.4 1.9-1 4.8-1.2 6.7-0.3 1.7-0.8 5-1.1 7.3-0.3 2.2-0.7 5.6-0.9 7.6-0.2 2-0.4 4.7-0.4 6.1-0.1 1.9-0.1 2.6 0.1 2.9 0.2 0.3 0.6 0.4 1 0.4 0.3 0.1 1.1-0.2 1.9-0.7 0.8-0.5 2.5-1.9 4.5-3.9 1.7-1.7 3.8-4.1 4.7-5.3 1.4-2 1.5-2.1 2.2-2 0.3 0.1 1 0.3 1.4 0.6 0.7 0.4 0.8 0.4 2 0 0.8-0.1 1.8-0.3 2.4-0.3 0.6 0 1.6 0.2 2.1 0.3 0.6 0.2 1.2 0.6 1.5 0.9 0.3 0.2 0.7 0.8 1.2 2l3.3-0.2c1.8-0.1 4.8-0.3 6.7-0.4 1.8-0.1 4-0.2 6.3-0.4l2-2.8c1.2-1.5 3.3-4.6 4.9-6.8 1.6-2.2 5.8-8.4 9.5-13.6 5.5-7.9 6.7-9.9 7-10.9 0.2-0.8 0.9-2.3 1.4-3.4 0.8-1.7 1.4-2.4 2.8-3.9 1.3-1.4 2.1-1.9 3.4-2.5 0.9-0.5 2.3-0.9 3.1-1.1 0.9-0.1 2.2-0.2 3-0.1 0.8 0.1 1.9 0.3 2.5 0.6 0.6 0.3 1.5 0.8 1.9 1.2 0.5 0.3 1.1 1.2 1.5 2 0.3 0.7 0.6 1.6 0.6 2 0 0.4-0.1 1-0.3 1.3-0.1 0.3-0.9 1.1-1.5 1.7-0.8 0.7-2.4 1.9-3.8 2.9-1.4 0.9-2.6 1.9-2.7 2.1 0 0.2-0.3 2-0.6 3.8-0.2 1.9-0.6 4.9-0.8 6.8-0.2 1.8-0.4 5-0.5 7-0.1 1.9-0.3 4-0.4 4.4 0 0.9 0 0.9 0.8 1.2 0.4 0.1 1.1 0.6 1.5 0.9 0.4 0.4 0.8 1.1 0.9 1.5 0.1 0.4 0.2 1.1 0.2 1.6 0 0.4-0.1 1.3-0.3 1.9-0.2 0.7-0.6 1.6-0.8 2-0.3 0.4-0.9 1.3-2.6 3.3v1.9c0 1 0.1 2.2 0.2 2.6 0.1 0.4 0.5 0.8 0.7 0.9 0.3 0.2 0.7 0.1 1.7-0.3 0.7-0.3 2-1.2 2.9-1.8 0.8-0.7 2.5-2.2 3.6-3.4 1-1.1 2.5-2.9 3.2-3.8 1-1.3 1.5-1.8 1.8-1.8 0.3 0 0.9 0.1 1.2 0.3 0.4 0.1 1 0.6 1.3 1 0.5 0.5 0.7 0.9 0.7 1.6 0 0.6-0.2 1.5-0.5 2.1-0.2 0.7-1.1 2.1-1.8 3.3-0.8 1.1-2.2 3-3.3 4.1-1 1.2-2.5 2.7-3.4 3.5-0.9 0.8-2.4 2-3.3 2.8-0.9 0.7-2.3 1.7-3.2 2.3-0.9 0.5-2.4 1.3-3.3 1.8-0.9 0.4-2.2 0.9-3 1.1-0.7 0.1-1.8 0.3-2.5 0.3-0.6 0-1.7-0.1-2.4-0.3-0.6-0.1-1.6-0.5-2.2-0.9-0.7-0.4-1.2-0.9-1.7-1.7-0.4-0.7-0.7-1.8-0.9-2.7-0.2-1-0.2-2.8 0.1-10.2l-1.1 0.1c-0.6 0.1-2.4 0.3-4.2 0.4-1.7 0.1-4.4 0.3-8.6 0.5l-1.9 2.5c-1 1.4-2.6 3.5-3.5 4.7-0.9 1.1-2.5 2.9-3.6 4-1.1 1.1-2.6 2.5-3.5 3.1-0.8 0.7-2.3 1.6-3.4 2.1-1.1 0.6-2.6 1.2-3.4 1.4-1 0.2-2.3 0.4-4.4 0.4-2.1 0-3.3-0.2-4.3-0.4-0.8-0.3-2-0.7-2.7-1-0.6-0.4-1.8-1.2-2.5-1.8-0.9-0.9-1.6-1.7-2.2-2.9-0.5-1-1-2.4-1.2-3.1-0.2-0.7-0.4-1.6-0.4-2 0-0.4-0.1-0.8-0.2-0.8-0.1-0.1-1 0.5-1.9 1.3-0.9 0.9-2.5 2.1-3.5 2.9-1.1 0.7-3 1.9-4.3 2.5-1.3 0.7-3 1.4-3.6 1.5-0.7 0.1-2 0.2-3.1 0.1q-1.8-0.1-2.8-0.5c-0.5-0.2-1.3-0.8-1.7-1.2-0.4-0.4-0.9-1.2-1.1-1.7q-0.3-1-0.4-4c-0.1-1.7 0-4.3 0.1-5.8 0.2-1.5 0.5-4.2 0.8-5.9 0.3-1.8 1-5.1 1.5-7.5 0.6-2.4 1.1-4.6 1.2-4.9q0.1-0.6-0.1-0.5c-0.2 0.1-2.5 2.9-10.2 12.4l-0.2 1.6c-0.1 0.9-0.4 2.4-0.7 3.5-0.3 1-0.9 2.6-1.4 3.5-0.4 0.9-1.2 2.2-1.7 2.9-0.4 0.7-1.6 2.1-2.7 3.2-1.1 1.1-2.4 2.1-3.1 2.5-0.8 0.4-2 0.9-2.8 1.1-0.9 0.2-1.8 0.3-2.7 0.2-0.6-0.1-1.7-0.3-2.4-0.6-0.6-0.2-1.5-0.8-1.9-1.2-0.5-0.5-1.1-1.3-1.4-1.9-0.3-0.6-0.6-1.7-0.6-2.3-0.1-0.7-0.1-1.6 0-2.1 0.2-0.5 0.7-1.5 1.2-2.3 0.5-0.7 1.9-2.4 5.3-5.8l-0.1-2.1c-0.1-1.2-0.4-3.8-0.5-5.6-0.2-1.9-0.5-4.8-0.8-6.5-0.2-1.7-0.4-3.1-0.5-3.1-0.1 0.1-1 1.9-1.9 4-0.9 2.2-2.2 5.2-2.9 6.7-0.7 1.5-2 4-2.8 5.7-0.8 1.6-2.4 4.4-3.5 6.2-1.1 1.8-2.7 4.3-3.7 5.6-1 1.4-2.8 3.5-4.1 4.7-1.3 1.3-3.1 2.9-4 3.5-1 0.6-2.6 1.4-3.5 1.8-1 0.4-2.6 0.8-3.6 1q-1.9 0.3-4.1 0.2c-1.3-0.1-2.8-0.3-3.8-0.6-0.9-0.3-2.1-0.8-2.7-1.2-0.6-0.4-1.6-1.2-2.2-1.8-0.5-0.6-1.3-1.7-1.6-2.5-0.4-0.7-0.8-2-1-2.9-0.2-0.8-0.3-1.8-0.3-2.2 0-0.3-0.1-0.7-0.2-0.8 0-0.1-0.8 0.5-1.7 1.2-0.8 0.7-2.4 1.8-3.4 2.5-1 0.7-3 1.8-4.3 2.5-1.4 0.7-3.5 1.6-4.6 2-1.2 0.3-2.9 0.8-4 1.1-1 0.2-2.9 0.4-4.3 0.5-1.5 0.1-3.4 0.1-4.6-0.1-1-0.1-2.8-0.5-3.9-0.8-1-0.4-2.6-1-3.4-1.5-0.9-0.5-2.2-1.5-3.2-2.5-1.2-1.2-1.8-2.1-2.4-3.3-0.4-0.9-0.9-2.3-1.1-3-0.2-0.9-0.4-2.4-0.4-3.6 0-1.6 0.1-2.7 0.4-3.8 0.3-0.9 0.7-2.2 1-2.9 0.4-0.6 1.1-1.9 1.7-2.8 0.7-0.9 1.8-2.3 2.6-3 0.8-0.8 1.9-1.9 2.6-2.4 0.7-0.5 2.1-1.4 5.2-3.3l-0.8-0.8c-0.4-0.5-1.1-1.7-1.6-2.6-0.4-1-1-2.6-1.3-3.5-0.2-1-0.5-2.7-0.6-3.8 0-1.3 0-2.9 0.2-4 0.1-1 0.5-2.7 0.9-3.8 0.4-1.1 1.1-2.7 1.6-3.7 0.5-1 1.4-2.5 2.1-3.4 0.7-0.9 1.9-2.3 2.8-3.1 0.9-0.9 2.3-2 3.1-2.6 0.7-0.5 2.2-1.3 3.1-1.7 1-0.5 2.5-1 3.4-1.3 0.9-0.3 2.6-0.5 3.9-0.6 1.7-0.1 2.9 0 4.3 0.2 1.1 0.2 2.5 0.7 3.3 1 0.7 0.4 1.7 1 2.2 1.5 0.6 0.5 1.2 1.4 1.7 2.4 0.4 0.9 0.8 2.1 1 3.1 0.1 0.9 0.2 2.4 0.1 3.4-0.1 1-0.3 2.3-0.5 3.1-0.1 0.7-0.7 2-1.1 2.9-0.6 1.1-1.3 2-2.2 2.9q-1.5 1.4-2.8 1.9c-1 0.4-1.7 0.6-3.4 0.6-2 0-2.2-0.1-2.7-0.7-0.6-0.5-0.6-0.6-0.3-1.3 0.1-0.3 0.5-1.5 0.8-2.4 0.4-1.3 0.5-2.3 0.6-3.8 0-1.7-0.1-2.3-0.5-3.1-0.3-0.6-0.7-1.2-0.9-1.3-0.2-0.1-0.8-0.2-1.3-0.2-0.7 0-1.1 0.2-1.8 0.7-0.5 0.4-1.3 1.3-1.8 2-0.5 0.7-1.2 2-1.5 2.9-0.3 0.8-0.7 2.1-0.9 2.9-0.2 0.8-0.4 2.2-0.5 3.2 0 0.9 0 2.6 0.1 3.8 0.2 1.1 0.5 2.8 0.7 3.8 0.3 1 0.5 1.9 0.6 2 0.1 0.2 0.5 0.2 1.6 0.1 0.8-0.1 2.5-0.3 3.8-0.4 1.5-0.1 2.8 0 3.3 0.1 0.6 0.2 1.2 0.5 1.5 0.8 0.4 0.4 0.6 0.8 0.6 1.5 0 0.5-0.2 1.5-0.4 2.2-0.2 0.7-0.6 1.8-0.9 2.4-0.3 0.6-1.1 1.6-1.6 2.2-0.6 0.6-1.6 1.4-2.4 1.8-0.8 0.5-1.9 0.8-2.5 0.9-0.8 0.1-1.5 0-2.7-0.4-0.9-0.3-2.1-0.8-2.6-1.2-0.6-0.3-1.1-0.5-1.3-0.5-0.1 0.1-0.6 0.6-0.9 1.1-0.4 0.5-1 1.6-1.4 2.3-0.4 0.8-0.9 2.1-1.1 2.9q-0.4 1.4-0.3 2.8c0.1 0.8 0.3 1.9 0.6 2.5 0.2 0.6 0.8 1.4 1.2 1.8 0.4 0.4 0.9 0.9 1.3 1.1 0.4 0.2 1.1 0.5 1.8 0.6 0.5 0.2 1.6 0.3 2.4 0.3 0.7 0 1.9-0.1 2.6-0.2 0.7-0.1 2.1-0.4 3-0.8 1-0.3 2.6-1 3.7-1.5 1.1-0.6 2.7-1.5 3.5-2 0.9-0.5 2.4-1.6 3.4-2.4 1-0.8 2.7-2.3 3.7-3.3 1-1 2.5-2.6 3.2-3.6 0.9-1.2 1.4-1.7 1.8-1.7 0.3 0 0.7 0.2 1.1 0.3 0.3 0.1 1.6 0.3 2.9 0.3 2.2 0 2.4 0 3.3 0.7 0.5 0.3 1.1 0.9 1.2 1.2 0.3 0.5 0.3 0.7-0.3 2.4-0.4 1-1 2.5-1.2 3.4-0.2 0.9-0.5 2.5-0.6 3.5 0 1.2 0 2.3 0.2 3 0.1 0.6 0.4 1.3 0.8 1.7 0.3 0.3 1 0.6 1.5 0.8 0.5 0.1 1.1 0.2 1.4 0.2 0.3 0 1.1-0.2 1.7-0.5 0.6-0.4 1.7-1.1 2.3-1.7 0.7-0.7 1.8-1.9 2.5-2.7 0.7-0.8 2-2.6 2.9-3.9 0.9-1.3 2.3-3.5 3-4.7 0.8-1.3 2.3-4 3.4-6 1.1-2.1 3-5.7 4.1-8 1.2-2.3 3-6 5.8-12l-0.4-1.9c-0.3-1.1-0.6-3-0.7-4.3 0-1.3 0-3.1 0.1-3.9 0.1-0.9 0.4-2.3 0.7-3.1 0.3-0.8 1-2.2 1.5-3 0.5-0.9 1.7-2.4 2.7-3.4 1.2-1.2 2.5-2.2 3.3-2.7 0.8-0.4 1.9-0.9 2.4-1.1 0.6-0.2 1.4-0.5 1.9-0.6 0.5-0.1 1.4-0.2 2.2-0.2zm-179.7 0.7c0.6 0 1.2 0.1 1.5 0.2 0.4 0.2 0.7 0.7 0.9 1.1 0.1 0.4 0.2 1.3 0.2 3.3l2.3 0.3c1.2 0.2 3.1 0.5 4.2 0.8 1.1 0.3 2.6 0.8 3.4 1.1 0.7 0.3 2 1 2.9 1.5 0.9 0.5 2.2 1.5 2.9 2.2 0.8 0.8 1.8 2 2.3 2.8 0.6 0.7 1.2 1.9 1.5 2.5 0.2 0.6 0.7 1.8 1.4 4.6l1.1-1.7c0.6-0.9 2.1-2.6 3.3-3.9 1.3-1.3 3.3-3 4.4-3.8 1.1-0.8 3.4-2.1 4.9-2.9 1.6-0.7 4.2-1.8 5.8-2.4 1.7-0.5 4.2-1.2 5.6-1.4 2.1-0.4 3.4-0.5 6.9-0.5 3.3 0 4.9 0.1 6.5 0.4 1.1 0.2 3 0.7 4.1 1.1 1.2 0.3 2.9 1.1 3.8 1.6 1.2 0.7 2.4 1.6 3.5 2.8 1.3 1.2 2 2.2 2.7 3.5 0.5 0.9 1.1 2.6 1.4 3.7 0.3 1.4 0.4 2.6 0.4 4.4 0 1.4-0.1 3.2-0.3 4.1-0.2 0.8-0.5 2.1-0.8 2.9-0.3 0.8-0.9 2.2-1.3 3.1-0.5 0.9-1.4 2.5-2.1 3.6-0.7 1.1-2.1 2.9-3 4-1 1.1-3 3.3-7.4 7.7l0.9 0.9c0.5 0.5 1.5 1.7 2.2 2.7 0.8 1.1 1.9 2.7 2.5 3.8 0.6 1 1.6 2.7 2.3 3.9 0.6 1.1 1.3 2.3 1.7 2.7 0.3 0.4 0.9 0.7 1.3 0.8 0.3 0.1 1.3 0.1 2.1 0 0.9-0.2 1.7-0.3 1.9-0.4q0.3-0.1 0.8 0.7c0.3 0.7 0.4 1.3 0.4 2.5 0 1.4-0.1 1.8-0.6 2.8-0.4 0.7-1 1.6-1.3 2.1-0.4 0.5-1.4 1.3-2.1 1.9-0.8 0.6-2.2 1.4-3.1 1.7-0.9 0.4-2.3 0.9-3.2 1-0.9 0.2-2.1 0.3-2.7 0.3-0.7 0-1.6-0.1-2.1-0.2-0.4-0.1-1.2-0.5-1.7-0.8-0.4-0.3-1.2-1.2-1.7-2-0.5-0.8-1.5-2.7-2.2-4.2-0.7-1.5-2.1-4.3-3.1-6.3-1-2-2.3-4.3-2.8-5.1-0.6-0.9-1.5-2-2.1-2.6-0.5-0.6-1.4-1.3-2-1.6-0.6-0.3-1.1-0.5-1.2-0.4-0.1 0.1-0.3 0.9-0.6 1.8-0.2 0.9-0.7 3.5-1.1 5.6-0.4 2.2-0.9 5.1-1.1 6.6-0.2 1.8-0.4 2.7-0.7 3-0.2 0.2-0.8 0.5-1.3 0.7-0.6 0.2-1.3 0.3-2.8 0.2-1.6 0-2.2-0.2-3.1-0.6-0.6-0.4-1.6-1.1-2.3-1.8-0.6-0.6-1.4-1.7-1.7-2.5-0.7-1.4-0.7-1.6-0.7-4 0-2.1 0.1-2.9 0.7-5.3 0.4-1.6 2.7-8.7 5.1-15.8 2.3-7.1 4.9-14.8 5.6-17.1 0.7-2.3 1.3-4.2 1.2-4.3-0.1-0.1-0.9 0.1-1.9 0.4-1 0.3-2.5 0.9-3.3 1.3-0.9 0.4-2.1 1.1-2.7 1.5-0.7 0.5-2.3 1.9-3.7 3.2-1.7 1.7-2.9 3.1-3.8 4.6-1.2 1.9-1.5 2.2-2.2 2.4-0.4 0.1-1 0.1-1.3 0.1-0.3 0-0.9-0.2-2.1-0.8l-0.3 0.9c-0.1 0.5-0.3 1.5-0.5 2.1-0.2 0.7-0.7 2-1.1 3.1-0.4 1-1.2 2.6-1.8 3.6-0.5 0.9-1.6 2.6-2.5 3.7-0.8 1.1-2.4 2.9-3.6 4-1.2 1.2-2.9 2.7-3.9 3.4-0.9 0.7-2.6 1.8-3.7 2.4-1.1 0.6-2.9 1.5-4 2-1.2 0.4-3 1-4.1 1.3-1 0.2-2.5 0.5-4.8 0.8l-0.5 1.3c-0.2 0.7-1 2.4-1.6 3.8-0.7 1.3-1.7 3.1-2.3 4.1-0.7 1-2.2 2.7-3.5 4-1.3 1.3-2.8 2.7-3.5 3-0.7 0.4-1.8 1-2.5 1.3-0.7 0.3-2 0.7-2.7 0.9-1 0.3-2.3 0.4-4.2 0.4-2.1 0-3-0.1-3.9-0.4-0.7-0.2-1.6-0.7-2.2-1-0.5-0.3-1.4-1.1-1.9-1.7-0.5-0.6-1.2-1.6-1.4-2.2-0.3-0.9-0.5-1.8-0.5-3.1 0-1.6 0.1-2 0.6-3.1 0.3-0.6 1-1.5 1.4-2 0.5-0.4 1.3-1.1 1.8-1.3 0.6-0.3 1.3-0.6 1.6-0.6 0.4-0.1 0.8 0.2 1.7 1 0.7 0.5 1.7 1.2 2.3 1.5 0.6 0.3 1.4 0.6 1.8 0.6 0.4 0 1-0.2 1.5-0.4 0.4-0.2 1.1-0.8 1.5-1.3 0.4-0.4 1-1.4 1.3-2.1 0.4-0.8 1-2.3 1.5-3.4 0.4-1.2 1.2-3.7 1.7-5.7 0.6-2 1.5-5.6 2.1-8.1 0.6-2.4 2.2-9.1 3.5-14.7 1.3-5.6 2.4-10.3 2.3-10.3 0 0-0.9 0.2-2.1 0.5-1.1 0.3-2.7 0.8-3.6 1.1-0.8 0.3-2.1 0.9-2.9 1.3-0.8 0.4-2 1.2-2.6 1.6-1.2 0.9-1.3 0.9-2 0.7-0.5-0.1-1.2-0.5-1.6-0.8-0.3-0.4-0.8-1-1-1.5-0.3-0.5-0.4-1.4-0.4-2 0-0.6 0.1-1.6 0.3-2.2 0.2-0.6 0.6-1.5 1-2 0.3-0.6 1.2-1.6 1.9-2.3 0.7-0.7 1.9-1.7 2.6-2.2 0.8-0.5 2.4-1.4 3.5-1.9 1.2-0.6 3-1.3 4.1-1.7 1.1-0.3 2.8-0.8 3.8-1 1-0.2 2-0.4 2.2-0.4 0.2-0.1 0.5-0.4 0.6-0.7 0.1-0.4 0.5-1 0.8-1.4 0.4-0.4 1.2-1.1 1.9-1.5 0.6-0.4 1.7-0.9 2.3-1.2 0.7-0.1 1.7-0.3 2.2-0.3zm-72.7 3c1.1 0 2.8 0.2 3.7 0.3 1 0.2 2.4 0.7 3.3 1.1 0.9 0.5 2 1.2 2.6 1.8 0.6 0.6 1.3 1.6 1.7 2.3 0.3 0.6 0.7 1.9 0.9 2.8 0.3 1.2 0.3 2.2 0.2 4-0.1 1.3-0.4 3.6-0.7 5.1-0.2 1.4-0.8 3.7-1.2 5.2-0.5 1.4-1.2 3.7-1.7 5-0.4 1.3-1.7 4.6-2.7 7.3-1 2.7-2.1 5.9-2.5 7-0.4 1.1-0.9 2.9-1.1 4q-0.5 2-0.5 4.2c0 2 0 2.3 0.6 3.5 0.4 0.8 0.9 1.4 1.4 1.8 0.4 0.3 1.2 0.6 1.6 0.7 0.5 0.1 1.5 0.2 2.1 0.1 0.8 0 1.7-0.3 2.5-0.7 0.7-0.3 1.9-1.2 2.7-2 0.8-0.8 2.1-2.4 2.9-3.5 0.7-1.2 1.8-3 2.4-4.2 0.6-1.1 1.6-3.4 2.2-5.1 0.7-1.7 1.5-4 1.9-5.2 0.4-1.2 1.1-3.8 1.6-5.8 1-3.6 1-3.6 0.7-5-0.2-0.8-0.5-2.6-0.6-3.9-0.2-1.4-0.4-3.9-0.4-5.6 0.1-1.7 0.2-3.8 0.3-4.7 0.2-0.9 0.5-2.2 0.8-2.9 0.2-0.6 0.9-1.7 1.4-2.2 0.7-0.8 1.3-1.2 2-1.5 0.6-0.2 1.5-0.4 2-0.4 0.5 0 1.3 0.1 1.9 0.3 0.6 0.2 1.7 0.6 2.5 1 0.7 0.4 2 1.3 2.8 2 1 1 1.6 1.8 2.1 2.8 0.6 1.4 0.7 1.5 0.6 3.4-0.1 1.1-0.4 2.8-0.8 3.9-0.3 1.1-1 3.3-1.6 4.9-0.6 1.6-1.6 4.9-2.2 7.3-0.6 2.4-1.6 6-2.2 8-0.7 2-1.6 4.5-2 5.7-0.5 1.1-1.6 3.6-2.5 5.5-1 1.9-2.4 4.5-3.3 5.8-0.8 1.3-2.1 3-2.8 3.9-0.7 0.9-2.1 2.4-3.1 3.4-1 0.9-2.8 2.3-3.8 3-1.1 0.7-2.7 1.6-3.6 1.9-0.9 0.4-2.4 0.9-3.3 1.1-0.9 0.3-2.6 0.5-3.8 0.6-1.3 0.1-3.1 0-4.4-0.1-1.2-0.2-2.8-0.5-3.6-0.7-0.8-0.3-2.2-0.9-3.1-1.4-1.1-0.5-2.3-1.4-3.1-2.2-0.7-0.7-1.7-1.9-2.1-2.7-0.4-0.8-1-2.2-1.3-3.1-0.5-1.4-0.5-2.1-0.5-5 0-2.7 0.1-3.9 0.5-5.8 0.3-1.3 0.8-3.4 1.2-4.6 0.3-1.2 1.6-4.7 2.8-7.7 1.1-3.1 2.5-6.8 3.1-8.4 0.5-1.6 1.3-3.8 1.6-4.9 0.4-1.1 0.8-2.9 1-3.9 0.3-1.1 0.4-2.4 0.3-3.1-0.1-0.9-0.2-1.3-0.7-1.7-0.4-0.3-0.8-0.5-1.6-0.5-0.6 0-1.5 0.2-2.1 0.5-0.6 0.3-1.7 0.9-2.4 1.4-0.7 0.5-1.8 1.4-2.5 1.9-0.9 0.8-1.2 1-1.7 0.9-0.3 0-1-0.4-1.5-0.7-0.6-0.4-1.2-1.2-1.6-1.9-0.4-0.6-0.8-1.5-0.9-2.1-0.1-0.6-0.1-1.4 0-2.3 0.1-0.7 0.4-1.7 0.7-2.3 0.3-0.5 1.2-1.6 2-2.5 1.1-1.1 2.1-1.8 3.3-2.4 1-0.5 2.5-1.1 3.5-1.4 1-0.4 2.5-0.7 3.4-0.8 0.9-0.2 1.9-0.3 2.2-0.4 0.3 0 1.4 0 2.5-0.1zm-31.7 1.2c1.5 0.1 3.2 0.3 4 0.4 0.7 0.2 1.9 0.7 2.7 1 0.8 0.4 1.9 1.2 2.6 1.9 0.7 0.6 1.5 1.6 1.8 2.2 0.3 0.6 0.7 1.6 0.9 2.4 0.3 0.9 0.4 1.8 0.3 3.1 0 1.5-0.2 2.2-0.7 3.3-0.4 0.8-0.9 1.7-1.2 2.1-0.4 0.3-0.8 0.8-1.1 0.9-0.5 0.3-0.6 0.2-2.6-1.2-1.1-0.8-2.8-1.9-3.7-2.4-0.9-0.5-2.2-1.1-3-1.3-0.7-0.1-1.7-0.3-2.2-0.3-0.5 0-1.2 0.1-1.5 0.3-0.4 0.2-0.9 0.6-1.2 1-0.4 0.4-0.7 1.1-0.9 1.8-0.1 0.9-0.1 1.5 0.1 2.8 0.2 0.9 0.8 2.5 1.4 3.6 0.5 1.1 1.7 3.2 2.7 4.7 1 1.5 2.7 3.9 3.7 5.5 1.1 1.5 2.5 3.7 3.3 5 0.7 1.2 1.7 3 2.1 3.9 0.4 0.9 0.9 2.4 1.2 3.4 0.3 1.3 0.4 2.4 0.4 4.4 0 2.1-0.1 3.2-0.4 4.4-0.2 0.9-0.7 2.4-1.1 3.3-0.4 0.9-1.2 2.4-1.8 3.4-0.7 0.9-1.9 2.4-2.7 3.3-0.8 0.9-2.2 2.1-3 2.7-0.7 0.6-2.4 1.6-3.6 2.1-1.2 0.6-3 1.4-4 1.7-1 0.2-2.7 0.6-3.8 0.7-1.3 0.2-3 0.3-4.7 0.2-1.5-0.1-3.6-0.3-4.6-0.6-1-0.2-2.6-0.7-3.6-1.1-0.9-0.4-2.4-1.1-3.2-1.7-0.9-0.5-2.1-1.5-2.7-2.1-0.6-0.6-1.5-1.7-1.9-2.4-0.5-0.7-1.1-1.9-1.4-2.5-0.2-0.7-0.6-1.8-0.9-2.6-0.2-1.1-0.3-2.2-0.3-4.5 0-2.4 0.1-3.4 0.5-4.8 0.2-1 0.8-2.5 1.3-3.4q0.8-1.6 2.2-3.1c1.1-1 1.7-1.5 2.7-1.9 0.8-0.3 1.7-0.4 2.7-0.4 1.1 0 1.7 0.1 3.4 1l0.2 3.1c0 1.8 0.3 4 0.5 4.9 0.2 1 0.6 2.5 1 3.4 0.3 0.9 1.1 2.4 1.7 3.2 0.6 0.9 1.6 2 2.3 2.5 0.6 0.4 1.6 1 2.3 1.3 0.6 0.2 1.9 0.5 2.7 0.6 1.3 0.1 1.7 0 2.7-0.4 0.8-0.3 1.5-0.9 2-1.5 0.5-0.6 1.1-1.5 1.3-2.2 0.3-0.6 0.5-1.8 0.6-2.7 0.1-1.1 0-2-0.2-2.9-0.2-0.8-0.7-2-1.1-2.8-0.4-0.7-1.4-2.3-2.2-3.6-0.9-1.2-2.4-3.4-3.5-4.8-1.1-1.4-2.5-3.3-3.1-4.3-0.7-0.9-1.7-2.7-2.3-3.9-0.6-1.2-1.2-2.9-1.5-3.8-0.2-0.9-0.5-2.7-0.7-4-0.2-1.9-0.1-2.9 0-4.5 0.2-1.1 0.6-2.9 0.9-3.8 0.3-1 0.9-2.6 1.5-3.6 0.5-1.1 1.4-2.6 2.1-3.4 0.6-0.8 1.9-2.1 2.8-2.9 0.9-0.8 2.2-1.7 3-2.1 0.8-0.4 1.9-0.9 2.4-1.1 0.5-0.2 1.6-0.5 2.4-0.7q1.4-0.3 4-0.2z"/>
		<path id="Path 5" class="s1" d="m77.8 264.4q0.2 0 0.2 0.1c0 0.1-0.1 0.4-0.2 0.7-0.3 0.6-0.3 0.6-0.6 0.2-0.2-0.3-0.3-0.5-0.4-0.6 0-0.1 0.2-0.2 0.4-0.3 0.2 0 0.5-0.1 0.6-0.1zm64.6 2c0.1 0 0.4 0 0.5 0.1 0.1 0.1-0.4 2.5-1.5 6.9-0.9 3.8-1.8 7.4-2.1 8.1-0.4 1.3-0.4 1.3-1.1 1.3-0.5-0.1-0.8-0.1-0.8-0.1-0.1-0.1 0.2-0.9 0.6-2 0.3-1 1.1-3.2 1.6-5 0.5-1.7 1.2-4.4 1.6-6 0.4-1.5 0.8-2.9 0.8-3.1 0.1-0.1 0.2-0.2 0.4-0.2z"/>
		<path id="Path 6" class="s2" d="m72.5 141.8c0.7 0 1.7 0.2 2.2 0.4 0.6 0.2 1.5 0.7 2 1 0.6 0.4 1.1 1.1 1.4 1.6 0.3 0.6 0.5 1.4 0.5 2.1 0 0.5-0.1 1.5-0.4 2.1-0.2 0.7-0.7 1.7-1.1 2.4-0.5 0.6-1.5 1.8-2.3 2.6-0.8 0.9-2 1.9-2.6 2.3-0.6 0.5-1.9 1.3-3 2-1 0.5-2.6 1.4-3.5 1.8-0.9 0.4-1.7 0.7-1.8 0.7 0-0.1 1.2-3.9 2.8-8.5 1.5-4.7 3-8.7 3.2-9.1 0.3-0.4 0.7-0.8 1-1 0.3-0.3 0.8-0.4 1.6-0.4zm65.1 15.4c0.1 0.1-0.1 1.6-0.3 3.2-0.2 1.6-0.6 5.3-1 8.2-0.3 3-0.6 5.7-0.6 6.1-0.1 0.6-0.2 0.7-1.1 0.8-0.5 0.1-2.1 0.2-3.7 0.3-1.5 0.1-3.1 0.2-4.3 0.2l2-3.4c1.2-1.9 3.5-5.9 5.2-9 1.7-3.1 3.3-5.8 3.5-6.1 0.2-0.3 0.3-0.4 0.3-0.3zm-29.3 27c0.9-0.1 1.5 0 1.5 0.1 0 0.1-0.7 1-1.7 1.9-0.9 1-2.2 2.1-2.9 2.5-0.6 0.4-1.6 1-2.2 1.2-0.6 0.2-1.5 0.3-2.1 0.3-0.6 0-1.3-0.1-1.7-0.4-0.4-0.3-0.9-0.7-1.1-1-0.1-0.2-0.4-0.8-0.5-1.3-0.1-0.5-0.2-1.4 0-3.2h4.7c2.5-0.1 5.2-0.1 6.1-0.1zm114.4 65.6c0.3 0 1.2 0.1 2.2 0.3 0.9 0.2 2.2 0.6 2.9 1 0.8 0.3 1.8 1 2.3 1.4 0.6 0.5 1.2 1.4 1.6 2.3 0.6 1.2 0.7 1.7 0.8 3.4 0.1 1.1 0 2.7-0.2 3.5-0.1 0.9-0.4 2.2-0.7 2.9-0.2 0.8-0.8 2.2-1.2 3.2-0.5 0.9-1.5 2.7-2.2 3.8-0.8 1.1-1.7 2.5-2.8 4l-1.6-0.3c-1.1-0.2-2.4-0.2-3.7-0.1-2 0.1-2.2 0.1-2.1-0.3 0.1-0.2 0.6-2.3 1.1-4.7 0.5-2.4 1.2-5.7 1.5-7.3 0.3-1.7 0.8-4.2 1-5.8 0.3-1.6 0.5-3.9 0.6-5.1 0.1-2 0.2-2.2 0.5-2.2zm-53.1 1c0.4 0 1.4 0.3 2.2 0.6 0.8 0.3 2 0.9 2.6 1.3 0.6 0.3 1.5 1.2 2.1 1.9 0.6 0.6 1.3 1.7 1.5 2.4 0.4 0.8 0.5 1.9 0.6 3.8 0.1 1.5 0 3.3-0.2 4.2-0.1 0.9-0.5 2.5-0.8 3.4-0.3 1-0.9 2.5-1.4 3.4-0.5 0.9-1.3 2.2-1.9 2.9-0.5 0.7-1.5 1.7-2.1 2.1-0.6 0.5-1.5 1-2 1.3-0.5 0.2-1.5 0.6-2.2 0.8-0.7 0.2-1.8 0.3-2.4 0.3-0.6 0-1.1 0-1.1-0.2 0 0 0.2-1.4 0.5-3.1 0.3-1.6 1-5.7 1.5-9.2 0.6-3.5 1.3-8.3 1.6-10.7 0.3-2.4 0.6-4.6 0.7-4.9 0.1-0.4 0.2-0.5 0.8-0.3zm267.7 11.1c0 0.1-0.2 1.6-0.4 3.2-0.2 1.6-0.6 5.3-0.9 8.2-0.3 3-0.7 5.7-0.7 6.1-0.1 0.6-0.2 0.7-1 0.8-0.5 0.1-2.2 0.2-3.7 0.3-1.6 0.1-3.2 0.2-4.3 0.2l2-3.4c1.1-1.9 3.4-5.9 5.1-9 1.8-3 3.3-5.8 3.5-6.1 0.2-0.3 0.3-0.4 0.4-0.3zm-29.3 27c0.8-0.1 1.5 0 1.5 0.1 0 0.1-0.8 1-1.7 1.9-1 1-2.3 2.1-2.9 2.5-0.7 0.5-1.7 1-2.3 1.2-0.5 0.2-1.5 0.3-2 0.3-0.7 0-1.3-0.1-1.8-0.4-0.4-0.2-0.8-0.7-1-0.9-0.2-0.3-0.5-0.9-0.6-1.4-0.1-0.5-0.1-1.4 0-3.2h4.7c2.5 0 5.3-0.1 6.1-0.1z"/>
	</g>
</svg>