<svg version="1.2" xmlns="http://www.w3.org/2000/svg" viewBox="0 0 735 444" width="890" height="538">
	<title>Nuevo proyecto</title>
	<style>
		.s0 { fill: #c99620 } 
	</style>
	<path id="Path 0" class="s0" d="m372.5 0c3.9 0 9.7 0.7 13 1.5 3.3 0.9 8.7 3.1 12 5 3.3 1.8 8.1 5.5 10.6 8.1 2.5 2.7 5.7 6.9 7.1 9.4 1.5 2.5 3.3 7 4.2 10 0.9 3.1 1.6 9.1 1.6 13.8 0 5.1-0.7 10.3-1.8 13.9-1 3.2-3.1 7.8-4.7 10.3-1.6 2.5-4.9 6.6-7.4 9.1-2.5 2.5-6.6 5.6-9.1 7-2.5 1.3-6.7 3.1-9.5 4.1-2.7 0.9-6 1.7-7.2 1.7-1.3 0.1-2.5 0.7-2.8 1.3-0.3 0.7 0.3 6.7 1.4 13.3 1.2 6.6 3 16.5 4.1 22 1.2 5.5 2.8 12.7 3.6 16 0.8 3.3 3.1 11.2 5 17.5 1.9 6.3 5.1 15.8 7.1 21 2 5.2 5.9 14.4 8.8 20.5 2.8 6.1 7.1 13.9 9.4 17.5 2.3 3.6 6.9 9.8 10.2 13.7 3.2 4 8.7 9.6 12.2 12.5 3.4 2.8 9.8 6.8 14.2 8.9 4.4 2 10.6 4.2 13.8 4.8 3.9 0.8 7.3 0.8 11 0.1 2.8-0.6 7.5-1.7 10.2-2.6 2.8-0.9 8.6-3.4 13-5.6 4.4-2.2 11.6-6.4 16-9.3 4.4-2.9 12.5-9 17.9-13.6 5.5-4.6 14.6-13.6 20.3-19.9 5.6-6.3 14.1-16.6 27.3-34l-3.2-3.8c-1.7-2-3.7-5.2-4.5-7-0.7-1.7-1.3-5.7-1.3-8.7 0-3 0.6-7 1.3-8.8 0.8-1.7 2.7-4.7 4.3-6.6 1.6-1.9 5.2-4.5 7.9-5.8 2.9-1.3 6.9-2.3 9.5-2.3 2.5 0 6.2 0.6 8.4 1.3 2.1 0.6 5.4 2.5 7.4 4.2 1.9 1.7 4.6 5.1 5.8 7.7 1.7 3.4 2.4 6.5 2.4 10.8q0 6-2 10c-1.1 2.2-3.1 5.1-4.5 6.5-1.4 1.4-4.4 3.5-6.7 4.7-3 1.5-6.3 2.1-17.2 2.3l-2.3 7.5c-1.3 4.1-4.1 14.2-6.3 22.5-2.2 8.2-4.7 18.6-5.5 23-0.9 4.4-2.5 13.2-3.6 19.5-1.2 6.9-2.3 18.3-2.6 28.5-0.4 13.6-0.2 18.6 1.1 25 0.9 4.4 2.7 10.2 4 13 1.2 2.7 3.8 6.7 5.7 8.8 1.9 2.1 5.4 4.8 7.9 5.9 3.8 1.8 5.7 2 12.5 1.6 5.9-0.4 10.5-1.5 17.5-4.2 5.2-2.1 12.9-5.5 17-7.8 4.1-2.3 11.5-6.8 16.5-10.1 5-3.3 14-9.8 20-14.5 6-4.7 12.2-9.7 16.3-13.7l-2.4-4c-1.9-3.2-2.4-5.5-2.4-11-0.1-6.3 0.3-7.5 3.2-12 1.8-2.7 5.3-6.3 7.6-8 3.6-2.4 5.6-3.1 11-3.4 5.6-0.3 7.5 0.1 11.7 2.1 2.8 1.4 6.3 4 7.9 5.9 1.5 1.9 3.5 5 4.2 6.9 0.8 1.9 1.4 6.1 1.4 9.2 0 3.3-0.7 7.2-1.6 9-0.9 1.8-3 4.8-4.8 6.6-1.7 1.9-4.9 4.3-7.1 5.4-2.7 1.4-6 2.1-10 2.1-4.2 0-7.2-0.6-14-4.2l-5.7 9.7c-3.1 5.3-6.6 11.5-7.9 13.7-1.2 2.2-5 8.9-8.4 15-3.4 6.1-14 24.7-23.5 41.5-9.6 16.8-19.4 34.1-21.8 38.5-2.4 4.4-7.2 12.7-10.5 18.5-3.3 5.8-6.2 10.7-6.4 11-0.2 0.3-6.8-1.6-14.6-4.2-7.8-2.6-19.2-6.1-25.2-7.8-6-1.7-19.3-5-29.5-7.4-10.2-2.5-25.7-5.8-34.5-7.5-8.8-1.6-21.4-3.9-28-5-6.6-1.1-17.2-2.7-23.5-3.6-6.3-0.8-20.3-2.4-31-3.5-10.7-1.1-27.6-2.5-37.5-3.1-10.9-0.7-31.6-0.9-52.5-0.6-25.1 0.5-41.7 1.3-61 3.1-14.6 1.4-36.2 3.9-48 5.6-11.8 1.7-30.7 4.8-42 7-11.3 2.2-30.6 6.5-43 9.6-12.4 3-22.5 5.4-22.6 5.2-0.1-0.2-17.1-34.1-37.9-75.3-20.7-41.3-37.9-75.2-38.1-75.5-0.2-0.3-2.2 0.3-4.4 1.2-2.2 1-6.4 1.8-9.2 1.8-3.4 0-7.1-0.9-10.3-2.3-2.7-1.3-6.2-3.9-7.7-5.8-1.5-1.9-3.4-5.1-4.2-7.2-0.9-2-1.6-5.6-1.6-8 0-2.3 0.5-5.8 1.1-7.7 0.7-1.9 2.2-5 3.5-6.8 1.3-1.7 4.1-4.3 6.2-5.7 2-1.3 5.8-2.9 8.5-3.5 3.3-0.7 6.1-0.7 9.5 0.1 2.6 0.5 6.4 2.2 8.5 3.7 2.1 1.5 4.9 4.3 6.3 6.2 1.3 1.9 2.9 6 3.6 9 1 4.7 0.9 6.3-0.6 11-1 3-2.5 6.3-3.4 7.4-1.6 1.7-1.4 2.1 4.8 7.8 3.6 3.3 11.7 10.2 18 15.3 6.3 5.1 15.6 11.9 20.5 15.2 4.9 3.3 11.9 7.5 15.5 9.3 3.6 1.8 9.4 4.4 13 5.8 5 1.9 8.5 2.5 15.2 2.6 8 0.1 8.9-0.1 12.9-2.9 2.4-1.6 5.8-5 7.7-7.5 1.8-2.5 4.4-7.9 5.7-12 1.3-4.1 2.8-12.7 3.4-19 0.9-8.4 0.9-15.7 0.1-27.5-0.6-8.8-2.2-22.8-3.5-31-1.4-8.3-3.4-19.3-4.5-24.5-1.1-5.2-3.2-14.2-7.2-30.5l-6.2-0.1c-3.7 0-7.5-0.7-9.6-1.8-1.9-1-4.8-3-6.3-4.5-1.6-1.4-3.8-4.4-4.9-6.6-1.1-2.2-2.3-6.3-2.5-9-0.4-3.9 0-6.2 1.8-10.4 1.5-3.4 4.1-6.9 6.9-9.3 2.5-2.2 6.1-4.3 8-4.8 1.9-0.6 5.1-1 7-1 1.9 0 5.1 0.4 7 1 1.9 0.5 5.3 2.4 7.5 4.3 2.2 1.8 5.1 5.1 6.5 7.3 2.1 3.3 2.5 5.1 2.4 11.4 0 4.1-0.5 8.5-1.2 9.7-0.7 1.3-2.8 4.1-8.2 10.3l4.7 7.2c2.6 4 8.1 11.8 12.3 17.2 4.1 5.5 11.6 14.5 16.6 20 5 5.6 10.6 11.5 12.5 13.1 1.9 1.7 5.9 5.1 8.9 7.6 3 2.6 9.6 7.3 14.5 10.6 4.9 3.2 12.4 7.3 16.5 9 4.1 1.8 10.4 3.9 14 4.8 6 1.5 7.1 1.5 14.5 0 4.4-0.9 10-2.7 12.5-3.9 2.5-1.2 7-3.8 10-5.8 3-2 8.4-6.5 11.9-10 3.6-3.5 8.8-9.5 11.6-13.3 2.8-3.9 6.7-9.7 8.7-13 2-3.3 5.8-10.3 8.3-15.5 2.6-5.2 6.7-14.2 9-20 2.4-5.8 6.1-16.1 8.3-23 2.1-6.9 4.8-15.7 6-19.5 1.1-3.9 3.2-12.2 4.6-18.5 1.3-6.3 2.8-13.6 4.1-20.8l-4-0.6c-2.2-0.4-6.8-2-10.3-3.7-3.4-1.6-8.9-5.5-12.3-8.7-4.3-4-7.1-7.8-9.4-12.7-1.9-3.9-3.9-10.2-4.6-14-1-5.6-1-8.4 0-14.5 0.7-4.1 2.7-10.2 4.4-13.5 1.6-3.3 5.5-8.6 8.6-11.9 3.1-3.2 7.9-7 10.6-8.4 2.8-1.4 7.5-3.3 10.5-4.3 3-1 8.6-1.8 12.5-1.9z"/>
</svg>